ScreenboxFluentIcons.ufo
<glyph name="uniE62E" format="2">
  <advance width="2048"/>
  <unicode hex="E62E"/>
  <outline>
    <contour>
      <point x="320" y="1920" type="qcurve" smooth="yes"/>
      <point x="576" y="1920" type="line" smooth="yes"/>
      <point x="656" y="1920"/>
      <point x="768" y="1808"/>
      <point x="768" y="1728" type="qcurve" smooth="yes"/>
      <point x="768" y="320" type="line" smooth="yes"/>
      <point x="768" y="240"/>
      <point x="656" y="128"/>
      <point x="576" y="128" type="qcurve" smooth="yes"/>
      <point x="320" y="128" type="line" smooth="yes"/>
      <point x="240" y="128"/>
      <point x="128" y="240"/>
      <point x="128" y="320" type="qcurve" smooth="yes"/>
      <point x="128" y="1728" type="line" smooth="yes"/>
      <point x="128" y="1808"/>
      <point x="240" y="1920"/>
    </contour>
    <contour>
      <point x="1472" y="1920" type="qcurve" smooth="yes"/>
      <point x="1728" y="1920" type="line" smooth="yes"/>
      <point x="1808" y="1920"/>
      <point x="1920" y="1808"/>
      <point x="1920" y="1728" type="qcurve" smooth="yes"/>
      <point x="1920" y="320" type="line" smooth="yes"/>
      <point x="1920" y="240"/>
      <point x="1808" y="128"/>
      <point x="1728" y="128" type="qcurve" smooth="yes"/>
      <point x="1472" y="128" type="line" smooth="yes"/>
      <point x="1392" y="128"/>
      <point x="1280" y="240"/>
      <point x="1280" y="320" type="qcurve" smooth="yes"/>
      <point x="1280" y="1728" type="line" smooth="yes"/>
      <point x="1280" y="1808"/>
      <point x="1392" y="1920"/>
    </contour>
  </outline>
</glyph>
<glyph name="uniE74D" format="2">
  <advance width="2048"/>
  <unicode hex="E74D"/>
  <outline>
    <contour>
      <point x="768" y="1216" type="line" smooth="yes"/>
      <point x="768" y="1243"/>
      <point x="805" y="1280"/>
      <point x="859" y="1280"/>
      <point x="896" y="1243"/>
      <point x="896" y="1216" type="qcurve" smooth="yes"/>
      <point x="896" y="576" type="line" smooth="yes"/>
      <point x="896" y="549"/>
      <point x="859" y="512"/>
      <point x="805" y="512"/>
      <point x="768" y="549"/>
      <point x="768" y="576" type="qcurve" smooth="yes"/>
    </contour>
    <contour>
      <point x="1152" y="1216" type="line" smooth="yes"/>
      <point x="1152" y="1243"/>
      <point x="1189" y="1280"/>
      <point x="1243" y="1280"/>
      <point x="1280" y="1243"/>
      <point x="1280" y="1216" type="qcurve" smooth="yes"/>
      <point x="1280" y="576" type="line" smooth="yes"/>
      <point x="1280" y="549"/>
      <point x="1243" y="512"/>
      <point x="1189" y="512"/>
      <point x="1152" y="549"/>
      <point x="1152" y="576" type="qcurve" smooth="yes"/>
    </contour>
    <contour>
      <point x="128" y="1792" type="qcurve" smooth="yes"/>
      <point x="710" y="1792" type="line"/>
      <point x="732" y="1902"/>
      <point x="909" y="2048"/>
      <point x="1139" y="2048"/>
      <point x="1316" y="1902"/>
      <point x="1338" y="1792" type="qcurve"/>
      <point x="1920" y="1792" type="line" smooth="yes"/>
      <point x="1947" y="1792"/>
      <point x="1984" y="1755"/>
      <point x="1984" y="1701"/>
      <point x="1947" y="1664"/>
      <point x="1920" y="1664" type="qcurve" smooth="yes"/>
      <point x="1849" y="1664" type="line"/>
      <point x="1683" y="227" type="line" smooth="yes"/>
      <point x="1672" y="130"/>
      <point x="1526" y="0"/>
      <point x="1429" y="0" type="qcurve" smooth="yes"/>
      <point x="619" y="0" type="line" smooth="yes"/>
      <point x="522" y="0"/>
      <point x="376" y="130"/>
      <point x="365" y="227" type="qcurve" smooth="yes"/>
      <point x="199" y="1664" type="line"/>
      <point x="128" y="1664" type="line" smooth="yes"/>
      <point x="101" y="1664"/>
      <point x="64" y="1701"/>
      <point x="64" y="1755"/>
      <point x="101" y="1792"/>
    </contour>
    <contour>
      <point x="328" y="1664" type="line"/>
      <point x="492" y="241" type="line" smooth="yes"/>
      <point x="498" y="193"/>
      <point x="570" y="128"/>
      <point x="619" y="128" type="qcurve" smooth="yes"/>
      <point x="1429" y="128" type="line" smooth="yes"/>
      <point x="1478" y="128"/>
      <point x="1550" y="193"/>
      <point x="1556" y="241" type="qcurve" smooth="yes"/>
      <point x="1720" y="1664" type="line"/>
    </contour>
    <contour>
      <point x="843" y="1792" type="qcurve"/>
      <point x="1205" y="1792" type="line"/>
      <point x="1185" y="1849"/>
      <point x="1086" y="1920"/>
      <point x="962" y="1920"/>
      <point x="863" y="1849"/>
    </contour>
  </outline>
</glyph>
<glyph name="uniE768" format="2">
  <advance width="2048"/>
  <unicode hex="E768"/>
  <outline>
    <contour>
      <point x="256" y="1734" type="line" smooth="yes"/>
      <point x="256" y="1816"/>
      <point x="371" y="1926"/>
      <point x="448" y="1926" type="qcurve" smooth="yes"/>
      <point x="499" y="1926"/>
      <point x="542" y="1902" type="qcurve" smooth="yes"/>
      <point x="1815" y="1192" type="line" smooth="yes"/>
      <point x="1863" y="1165"/>
      <point x="1914" y="1075"/>
      <point x="1914" y="973"/>
      <point x="1863" y="883"/>
      <point x="1815" y="856" type="qcurve" smooth="yes"/>
      <point x="542" y="146" type="line" smooth="yes"/>
      <point x="499" y="122"/>
      <point x="448" y="122" type="qcurve" smooth="yes"/>
      <point x="371" y="122"/>
      <point x="256" y="232"/>
      <point x="256" y="314" type="qcurve" smooth="yes"/>
    </contour>
    <contour>
      <point x="480" y="1790" type="line" smooth="yes"/>
      <point x="448" y="1808"/>
      <point x="384" y="1771"/>
      <point x="384" y="1734" type="qcurve" smooth="yes"/>
      <point x="384" y="314" type="line" smooth="yes"/>
      <point x="384" y="277"/>
      <point x="448" y="240"/>
      <point x="480" y="258" type="qcurve" smooth="yes"/>
      <point x="1753" y="968" type="line" smooth="yes"/>
      <point x="1786" y="986"/>
      <point x="1786" y="1062"/>
      <point x="1753" y="1080" type="qcurve" smooth="yes"/>
    </contour>
  </outline>
</glyph>
<glyph name="uniE769" format="2">
  <advance width="2048"/>
  <unicode hex="E769"/>
  <outline>
    <contour>
      <point x="320" y="1920" type="qcurve" smooth="yes"/>
      <point x="576" y="1920" type="line" smooth="yes"/>
      <point x="656" y="1920"/>
      <point x="768" y="1808"/>
      <point x="768" y="1728" type="qcurve" smooth="yes"/>
      <point x="768" y="320" type="line" smooth="yes"/>
      <point x="768" y="240"/>
      <point x="656" y="128"/>
      <point x="576" y="128" type="qcurve" smooth="yes"/>
      <point x="320" y="128" type="line" smooth="yes"/>
      <point x="240" y="128"/>
      <point x="128" y="240"/>
      <point x="128" y="320" type="qcurve" smooth="yes"/>
      <point x="128" y="1728" type="line" smooth="yes"/>
      <point x="128" y="1808"/>
      <point x="240" y="1920"/>
    </contour>
    <contour>
      <point x="256" y="1728" type="qcurve" smooth="yes"/>
      <point x="256" y="320" type="line" smooth="yes"/>
      <point x="256" y="293"/>
      <point x="293" y="256"/>
      <point x="320" y="256" type="qcurve" smooth="yes"/>
      <point x="576" y="256" type="line" smooth="yes"/>
      <point x="603" y="256"/>
      <point x="640" y="293"/>
      <point x="640" y="320" type="qcurve" smooth="yes"/>
      <point x="640" y="1728" type="line" smooth="yes"/>
      <point x="640" y="1755"/>
      <point x="603" y="1792"/>
      <point x="576" y="1792" type="qcurve" smooth="yes"/>
      <point x="320" y="1792" type="line" smooth="yes"/>
      <point x="293" y="1792"/>
      <point x="256" y="1755"/>
    </contour>
    <contour>
      <point x="1472" y="1920" type="qcurve" smooth="yes"/>
      <point x="1728" y="1920" type="line" smooth="yes"/>
      <point x="1808" y="1920"/>
      <point x="1920" y="1808"/>
      <point x="1920" y="1728" type="qcurve" smooth="yes"/>
      <point x="1920" y="320" type="line" smooth="yes"/>
      <point x="1920" y="240"/>
      <point x="1808" y="128"/>
      <point x="1728" y="128" type="qcurve" smooth="yes"/>
      <point x="1472" y="128" type="line" smooth="yes"/>
      <point x="1392" y="128"/>
      <point x="1280" y="240"/>
      <point x="1280" y="320" type="qcurve" smooth="yes"/>
      <point x="1280" y="1728" type="line" smooth="yes"/>
      <point x="1280" y="1808"/>
      <point x="1392" y="1920"/>
    </contour>
    <contour>
      <point x="1408" y="1728" type="qcurve" smooth="yes"/>
      <point x="1408" y="320" type="line" smooth="yes"/>
      <point x="1408" y="293"/>
      <point x="1445" y="256"/>
      <point x="1472" y="256" type="qcurve" smooth="yes"/>
      <point x="1728" y="256" type="line" smooth="yes"/>
      <point x="1755" y="256"/>
      <point x="1792" y="293"/>
      <point x="1792" y="320" type="qcurve" smooth="yes"/>
      <point x="1792" y="1728" type="line" smooth="yes"/>
      <point x="1792" y="1755"/>
      <point x="1755" y="1792"/>
      <point x="1728" y="1792" type="qcurve" smooth="yes"/>
      <point x="1472" y="1792" type="line" smooth="yes"/>
      <point x="1445" y="1792"/>
      <point x="1408" y="1755"/>
    </contour>
  </outline>
</glyph>
<glyph name="uniE795" format="2">
  <advance width="2048"/>
  <unicode hex="E795"/>
  <outline>
    <contour>
      <point x="384" y="1984" type="line" smooth="yes"/>
      <point x="384" y="2011"/>
      <point x="421" y="2048"/>
      <point x="448" y="2048" type="qcurve" smooth="yes"/>
      <point x="1600" y="2048" type="line" smooth="yes"/>
      <point x="1627" y="2048"/>
      <point x="1664" y="2011"/>
      <point x="1664" y="1984" type="qcurve" smooth="yes"/>
      <point x="1664" y="896" type="line" smooth="yes"/>
      <point x="1664" y="790"/>
      <point x="1514" y="640"/>
      <point x="1408" y="640" type="qcurve" smooth="yes"/>
      <point x="1280" y="640" type="line"/>
      <point x="1280" y="256" type="line" smooth="yes"/>
      <point x="1280" y="150"/>
      <point x="1130" y="0"/>
      <point x="918" y="0"/>
      <point x="768" y="150"/>
      <point x="768" y="256" type="qcurve" smooth="yes"/>
      <point x="768" y="640" type="line"/>
      <point x="640" y="640" type="line" smooth="yes"/>
      <point x="534" y="640"/>
      <point x="384" y="790"/>
      <point x="384" y="896" type="qcurve" smooth="yes"/>
    </contour>
    <contour>
      <point x="1152" y="1920" type="line"/>
      <point x="1152" y="1728" type="line" smooth="yes"/>
      <point x="1152" y="1701"/>
      <point x="1115" y="1664"/>
      <point x="1061" y="1664"/>
      <point x="1024" y="1701"/>
      <point x="1024" y="1728" type="qcurve" smooth="yes"/>
      <point x="1024" y="1920" type="line"/>
      <point x="512" y="1920" type="line"/>
      <point x="512" y="1152" type="line"/>
      <point x="1536" y="1152" type="line"/>
      <point x="1536" y="1920" type="line"/>
      <point x="1408" y="1920" type="line"/>
      <point x="1408" y="1600" type="line" smooth="yes"/>
      <point x="1408" y="1573"/>
      <point x="1371" y="1536"/>
      <point x="1317" y="1536"/>
      <point x="1280" y="1573"/>
      <point x="1280" y="1600" type="qcurve" smooth="yes"/>
      <point x="1280" y="1920" type="line"/>
    </contour>
    <contour>
      <point x="512" y="1024" type="line"/>
      <point x="512" y="896" type="line" smooth="yes"/>
      <point x="512" y="843"/>
      <point x="587" y="768"/>
      <point x="640" y="768" type="qcurve" smooth="yes"/>
      <point x="832" y="768" type="line" smooth="yes"/>
      <point x="859" y="768"/>
      <point x="896" y="731"/>
      <point x="896" y="704" type="qcurve" smooth="yes"/>
      <point x="896" y="256" type="line" smooth="yes"/>
      <point x="896" y="203"/>
      <point x="971" y="128"/>
      <point x="1077" y="128"/>
      <point x="1152" y="203"/>
      <point x="1152" y="256" type="qcurve" smooth="yes"/>
      <point x="1152" y="704" type="line" smooth="yes"/>
      <point x="1152" y="731"/>
      <point x="1189" y="768"/>
      <point x="1216" y="768" type="qcurve" smooth="yes"/>
      <point x="1408" y="768" type="line" smooth="yes"/>
      <point x="1461" y="768"/>
      <point x="1536" y="843"/>
      <point x="1536" y="896" type="qcurve" smooth="yes"/>
      <point x="1536" y="1024" type="line"/>
    </contour>
  </outline>
</glyph>
<glyph name="uniE838" format="2">
  <advance width="2048"/>
  <unicode hex="E838"/>
  <outline>
    <contour>
      <point x="1600" y="1664" type="line" smooth="yes"/>
      <point x="1730" y="1664"/>
      <point x="1916" y="1484"/>
      <point x="1920" y="1355" type="qcurve"/>
      <point x="1973" y="1314"/>
      <point x="2027" y="1187"/>
      <point x="2017" y="1117" type="qcurve" smooth="yes"/>
      <point x="1918" y="404" type="line" smooth="yes"/>
      <point x="1902" y="285"/>
      <point x="1721" y="128"/>
      <point x="1601" y="128" type="qcurve" smooth="yes"/>
      <point x="320" y="128" type="line" smooth="yes"/>
      <point x="187" y="128"/>
      <point x="0" y="315"/>
      <point x="0" y="448" type="qcurve" smooth="yes"/>
      <point x="0" y="1600" type="line" smooth="yes"/>
      <point x="0" y="1733"/>
      <point x="187" y="1920"/>
      <point x="320" y="1920" type="qcurve" smooth="yes"/>
      <point x="702" y="1920" type="line" smooth="yes"/>
      <point x="777" y="1920"/>
      <point x="911" y="1853"/>
      <point x="956" y="1794" type="qcurve" smooth="yes"/>
      <point x="1055" y="1664" type="line"/>
    </contour>
    <contour>
      <point x="320" y="1792" type="line" smooth="yes"/>
      <point x="240" y="1792"/>
      <point x="128" y="1680"/>
      <point x="128" y="1600" type="qcurve" smooth="yes"/>
      <point x="128" y="448" type="line" smooth="yes"/>
      <point x="128" y="435"/>
      <point x="129" y="426" type="qcurve"/>
      <point x="289" y="1201" type="line" smooth="yes"/>
      <point x="308" y="1292"/>
      <point x="451" y="1408"/>
      <point x="544" y="1408" type="qcurve" smooth="yes"/>
      <point x="1764" y="1408" type="line" smooth="yes"/>
      <point x="1766" y="1408"/>
      <point x="1781" y="1407" type="qcurve"/>
      <point x="1761" y="1464"/>
      <point x="1662" y="1536"/>
      <point x="1600" y="1536" type="qcurve" smooth="yes"/>
      <point x="992" y="1536" type="line"/>
      <point x="854" y="1717" type="line" smooth="yes"/>
      <point x="797" y="1792"/>
      <point x="702" y="1792" type="qcurve" smooth="yes"/>
    </contour>
    <contour>
      <point x="544" y="1280" type="line" smooth="yes"/>
      <point x="497" y="1280"/>
      <point x="423" y="1221"/>
      <point x="414" y="1175" type="qcurve" smooth="yes"/>
      <point x="230" y="279" type="line"/>
      <point x="273" y="256"/>
      <point x="320" y="256" type="qcurve" smooth="yes"/>
      <point x="1601" y="256" type="line" smooth="yes"/>
      <point x="1673" y="256"/>
      <point x="1781" y="351"/>
      <point x="1791" y="422" type="qcurve" smooth="yes"/>
      <point x="1890" y="1134" type="line" smooth="yes"/>
      <point x="1898" y="1192"/>
      <point x="1822" y="1280"/>
      <point x="1764" y="1280" type="qcurve" smooth="yes"/>
    </contour>
  </outline>
</glyph>
<glyph name="uniE8B1" format="2">
  <advance width="2048"/>
  <unicode hex="E8B1"/>
  <outline>
    <contour>
      <point x="1754" y="1792"/>
      <point x="1773" y="1773" type="qcurve" smooth="yes"/>
      <point x="2029" y="1517" type="line" smooth="yes"/>
      <point x="2048" y="1498"/>
      <point x="2048" y="1446"/>
      <point x="2029" y="1427" type="qcurve" smooth="yes"/>
      <point x="1773" y="1171" type="line" smooth="yes"/>
      <point x="1754" y="1152"/>
      <point x="1702" y="1152"/>
      <point x="1664" y="1190"/>
      <point x="1664" y="1242"/>
      <point x="1683" y="1261" type="qcurve" smooth="yes"/>
      <point x="1830" y="1408" type="line"/>
      <point x="1773" y="1407"/>
      <point x="1659" y="1394"/>
      <point x="1477" y="1349"/>
      <point x="1306" y="1275"/>
      <point x="1098" y="1136"/>
      <point x="1005" y="1043" type="qcurve" smooth="yes"/>
      <point x="675" y="713"/>
      <point x="343" y="580" type="qcurve" smooth="yes"/>
      <point x="243" y="540"/>
      <point x="144" y="521" type="qcurve" smooth="yes"/>
      <point x="97" y="512"/>
      <point x="64" y="512" type="qcurve" smooth="yes"/>
      <point x="37" y="512"/>
      <point x="0" y="549"/>
      <point x="0" y="576" type="qcurve" smooth="yes"/>
      <point x="0" y="602"/>
      <point x="38" y="640"/>
      <point x="64" y="640" type="qcurve" smooth="yes"/>
      <point x="82" y="640"/>
      <point x="121" y="647" type="qcurve" smooth="yes"/>
      <point x="203" y="662"/>
      <point x="296" y="699" type="qcurve" smooth="yes"/>
      <point x="544" y="798"/>
      <point x="799" y="1024" type="qcurve"/>
      <point x="544" y="1250"/>
      <point x="296" y="1349" type="qcurve" smooth="yes"/>
      <point x="203" y="1386"/>
      <point x="121" y="1401" type="qcurve" smooth="yes"/>
      <point x="83" y="1408"/>
      <point x="64" y="1408" type="qcurve" smooth="yes"/>
      <point x="38" y="1408"/>
      <point x="0" y="1446"/>
      <point x="0" y="1472" type="qcurve" smooth="yes"/>
      <point x="0" y="1499"/>
      <point x="37" y="1536"/>
      <point x="64" y="1536" type="qcurve" smooth="yes"/>
      <point x="97" y="1536"/>
      <point x="144" y="1527" type="qcurve" smooth="yes"/>
      <point x="243" y="1508"/>
      <point x="343" y="1468" type="qcurve" smooth="yes"/>
      <point x="616" y="1359"/>
      <point x="893" y="1111" type="qcurve"/>
      <point x="915" y="1133" type="line" smooth="yes"/>
      <point x="1018" y="1236"/>
      <point x="1249" y="1390"/>
      <point x="1438" y="1471"/>
      <point x="1641" y="1521"/>
      <point x="1767" y="1535"/>
      <point x="1830" y="1536" type="qcurve"/>
      <point x="1683" y="1683" type="line" smooth="yes"/>
      <point x="1664" y="1702"/>
      <point x="1664" y="1754"/>
      <point x="1702" y="1792"/>
    </contour>
    <contour>
      <point x="1830" y="512" type="line"/>
      <point x="1773" y="513"/>
      <point x="1660" y="524"/>
      <point x="1481" y="564"/>
      <point x="1312" y="628"/>
      <point x="1104" y="747"/>
      <point x="1010" y="827" type="qcurve"/>
      <point x="1064" y="876"/>
      <point x="1104" y="915" type="qcurve"/>
      <point x="1428" y="648"/>
      <point x="1830" y="640" type="qcurve"/>
      <point x="1683" y="787" type="line" smooth="yes"/>
      <point x="1664" y="806"/>
      <point x="1664" y="858"/>
      <point x="1702" y="896"/>
      <point x="1754" y="896"/>
      <point x="1773" y="877" type="qcurve" smooth="yes"/>
      <point x="2029" y="621" type="line" smooth="yes"/>
      <point x="2048" y="602"/>
      <point x="2048" y="550"/>
      <point x="2029" y="531" type="qcurve" smooth="yes"/>
      <point x="1773" y="275" type="line" smooth="yes"/>
      <point x="1754" y="256"/>
      <point x="1702" y="256"/>
      <point x="1664" y="294"/>
      <point x="1664" y="346"/>
      <point x="1683" y="365" type="qcurve" smooth="yes"/>
    </contour>
  </outline>
</glyph>
<glyph name="uniE8B2" format="2">
  <advance width="2048"/>
  <unicode hex="E8B2"/>
  <outline>
    <contour>
      <point x="384" y="1600" type="line" smooth="yes"/>
      <point x="384" y="1627"/>
      <point x="421" y="1664"/>
      <point x="475" y="1664"/>
      <point x="512" y="1627"/>
      <point x="512" y="1600" type="qcurve" smooth="yes"/>
      <point x="512" y="1472" type="line" smooth="yes"/>
      <point x="512" y="1445"/>
      <point x="475" y="1408"/>
      <point x="421" y="1408"/>
      <point x="384" y="1445"/>
      <point x="384" y="1472" type="qcurve" smooth="yes"/>
    </contour>
    <contour>
      <point x="475" y="1152"/>
      <point x="512" y="1115"/>
      <point x="512" y="1088" type="qcurve" smooth="yes"/>
      <point x="512" y="960" type="line" smooth="yes"/>
      <point x="512" y="933"/>
      <point x="475" y="896"/>
      <point x="421" y="896"/>
      <point x="384" y="933"/>
      <point x="384" y="960" type="qcurve" smooth="yes"/>
      <point x="384" y="1088" type="line" smooth="yes"/>
      <point x="384" y="1115"/>
      <point x="421" y="1152"/>
    </contour>
    <contour>
      <point x="384" y="576" type="line" smooth="yes"/>
      <point x="384" y="603"/>
      <point x="421" y="640"/>
      <point x="475" y="640"/>
      <point x="512" y="603"/>
      <point x="512" y="576" type="qcurve" smooth="yes"/>
      <point x="512" y="448" type="line" smooth="yes"/>
      <point x="512" y="421"/>
      <point x="475" y="384"/>
      <point x="421" y="384"/>
      <point x="384" y="421"/>
      <point x="384" y="448" type="qcurve" smooth="yes"/>
    </contour>
    <contour>
      <point x="1627" y="1664"/>
      <point x="1664" y="1627"/>
      <point x="1664" y="1600" type="qcurve" smooth="yes"/>
      <point x="1664" y="1472" type="line" smooth="yes"/>
      <point x="1664" y="1445"/>
      <point x="1627" y="1408"/>
      <point x="1573" y="1408"/>
      <point x="1536" y="1445"/>
      <point x="1536" y="1472" type="qcurve" smooth="yes"/>
      <point x="1536" y="1600" type="line" smooth="yes"/>
      <point x="1536" y="1627"/>
      <point x="1573" y="1664"/>
    </contour>
    <contour>
      <point x="1536" y="1088" type="line" smooth="yes"/>
      <point x="1536" y="1115"/>
      <point x="1573" y="1152"/>
      <point x="1627" y="1152"/>
      <point x="1664" y="1115"/>
      <point x="1664" y="1088" type="qcurve" smooth="yes"/>
      <point x="1664" y="960" type="line" smooth="yes"/>
      <point x="1664" y="933"/>
      <point x="1627" y="896"/>
      <point x="1573" y="896"/>
      <point x="1536" y="933"/>
      <point x="1536" y="960" type="qcurve" smooth="yes"/>
    </contour>
    <contour>
      <point x="1627" y="640"/>
      <point x="1664" y="603"/>
      <point x="1664" y="576" type="qcurve" smooth="yes"/>
      <point x="1664" y="448" type="line" smooth="yes"/>
      <point x="1664" y="421"/>
      <point x="1627" y="384"/>
      <point x="1573" y="384"/>
      <point x="1536" y="421"/>
      <point x="1536" y="448" type="qcurve" smooth="yes"/>
      <point x="1536" y="576" type="line" smooth="yes"/>
      <point x="1536" y="603"/>
      <point x="1573" y="640"/>
    </contour>
    <contour>
      <point x="512" y="1920" type="qcurve" smooth="yes"/>
      <point x="1536" y="1920" type="line" smooth="yes"/>
      <point x="1695" y="1920"/>
      <point x="1920" y="1695"/>
      <point x="1920" y="1536" type="qcurve" smooth="yes"/>
      <point x="1920" y="512" type="line" smooth="yes"/>
      <point x="1920" y="353"/>
      <point x="1695" y="128"/>
      <point x="1536" y="128" type="qcurve" smooth="yes"/>
      <point x="512" y="128" type="line" smooth="yes"/>
      <point x="353" y="128"/>
      <point x="128" y="353"/>
      <point x="128" y="512" type="qcurve" smooth="yes"/>
      <point x="128" y="1536" type="line" smooth="yes"/>
      <point x="128" y="1695"/>
      <point x="353" y="1920"/>
    </contour>
    <contour>
      <point x="1536" y="1792" type="qcurve" smooth="yes"/>
      <point x="512" y="1792" type="line" smooth="yes"/>
      <point x="406" y="1792"/>
      <point x="256" y="1642"/>
      <point x="256" y="1536" type="qcurve" smooth="yes"/>
      <point x="256" y="512" type="line" smooth="yes"/>
      <point x="256" y="406"/>
      <point x="406" y="256"/>
      <point x="512" y="256" type="qcurve" smooth="yes"/>
      <point x="1536" y="256" type="line" smooth="yes"/>
      <point x="1642" y="256"/>
      <point x="1792" y="406"/>
      <point x="1792" y="512" type="qcurve" smooth="yes"/>
      <point x="1792" y="1536" type="line" smooth="yes"/>
      <point x="1792" y="1642"/>
      <point x="1642" y="1792"/>
    </contour>
  </outline>
</glyph>
<glyph name="uniE8B7" format="2">
  <advance width="2048"/>
  <unicode hex="E8B7"/>
  <outline>
    <contour>
      <point x="0" y="1600" type="line" smooth="yes"/>
      <point x="0" y="1733"/>
      <point x="187" y="1920"/>
      <point x="320" y="1920" type="qcurve" smooth="yes"/>
      <point x="702" y="1920" type="line" smooth="yes"/>
      <point x="777" y="1920"/>
      <point x="911" y="1853"/>
      <point x="956" y="1794" type="qcurve" smooth="yes"/>
      <point x="1055" y="1664" type="line"/>
      <point x="1728" y="1664" type="line" smooth="yes"/>
      <point x="1861" y="1664"/>
      <point x="2048" y="1477"/>
      <point x="2048" y="1344" type="qcurve" smooth="yes"/>
      <point x="2048" y="448" type="line" smooth="yes"/>
      <point x="2048" y="315"/>
      <point x="1861" y="128"/>
      <point x="1728" y="128" type="qcurve" smooth="yes"/>
      <point x="320" y="128" type="line" smooth="yes"/>
      <point x="187" y="128"/>
      <point x="0" y="315"/>
      <point x="0" y="448" type="qcurve" smooth="yes"/>
    </contour>
    <contour>
      <point x="931" y="1616" type="line"/>
      <point x="854" y="1717" type="line" smooth="yes"/>
      <point x="797" y="1792"/>
      <point x="702" y="1792" type="qcurve" smooth="yes"/>
      <point x="320" y="1792" type="line" smooth="yes"/>
      <point x="240" y="1792"/>
      <point x="128" y="1680"/>
      <point x="128" y="1600" type="qcurve" smooth="yes"/>
      <point x="128" y="1536" type="line"/>
      <point x="752" y="1536" type="line" smooth="yes"/>
      <point x="810" y="1536"/>
      <point x="857" y="1567" type="qcurve" smooth="yes"/>
    </contour>
    <contour>
      <point x="128" y="1408" type="line"/>
      <point x="128" y="448" type="line" smooth="yes"/>
      <point x="128" y="368"/>
      <point x="240" y="256"/>
      <point x="320" y="256" type="qcurve" smooth="yes"/>
      <point x="1728" y="256" type="line" smooth="yes"/>
      <point x="1808" y="256"/>
      <point x="1920" y="368"/>
      <point x="1920" y="448" type="qcurve" smooth="yes"/>
      <point x="1920" y="1344" type="line" smooth="yes"/>
      <point x="1920" y="1424"/>
      <point x="1808" y="1536"/>
      <point x="1728" y="1536" type="qcurve" smooth="yes"/>
      <point x="1043" y="1536" type="line"/>
      <point x="927" y="1460" type="line" smooth="yes"/>
      <point x="847" y="1408"/>
      <point x="752" y="1408" type="qcurve" smooth="yes"/>
    </contour>
  </outline>
</glyph>
<glyph name="uniE8D5" format="2">
  <advance width="2048"/>
  <unicode hex="E8D6"/>
  <outline>
    <contour>
      <point x="1664" y="1444" type="line"/>
      <point x="768" y="1110" type="line"/>
      <point x="768" y="320" type="line" smooth="yes"/>
      <point x="768" y="187"/>
      <point x="581" y="0"/>
      <point x="315" y="0"/>
      <point x="128" y="187"/>
      <point x="128" y="453"/>
      <point x="315" y="640"/>
      <point x="448" y="640" type="qcurve" smooth="yes"/>
      <point x="555" y="640"/>
      <point x="640" y="576" type="qcurve"/>
      <point x="640" y="1580" type="line" smooth="yes"/>
      <point x="640" y="1610"/>
      <point x="675" y="1659"/>
      <point x="703" y="1670" type="qcurve" smooth="yes"/>
      <point x="1663" y="2028" type="line" smooth="yes"/>
      <point x="1679" y="2034"/>
      <point x="1696" y="2034" type="qcurve" smooth="yes"/>
      <point x="1735" y="2034"/>
      <point x="1792" y="1979"/>
      <point x="1792" y="1938" type="qcurve" smooth="yes"/>
      <point x="1792" y="448" type="line" smooth="yes"/>
      <point x="1792" y="315"/>
      <point x="1605" y="128"/>
      <point x="1339" y="128"/>
      <point x="1152" y="315"/>
      <point x="1152" y="581"/>
      <point x="1339" y="768"/>
      <point x="1472" y="768" type="qcurve" smooth="yes"/>
      <point x="1579" y="768"/>
      <point x="1664" y="704" type="qcurve"/>
    </contour>
    <contour>
      <point x="1664" y="1580" type="line"/>
      <point x="1664" y="1892" type="line"/>
      <point x="768" y="1558" type="line"/>
      <point x="768" y="1246" type="line"/>
    </contour>
    <contour>
      <point x="1392" y="640"/>
      <point x="1280" y="528"/>
      <point x="1280" y="368"/>
      <point x="1392" y="256"/>
      <point x="1552" y="256"/>
      <point x="1664" y="368"/>
      <point x="1664" y="528"/>
      <point x="1552" y="640"/>
    </contour>
    <contour>
      <point x="368" y="512"/>
      <point x="256" y="400"/>
      <point x="256" y="240"/>
      <point x="368" y="128"/>
      <point x="528" y="128"/>
      <point x="640" y="240"/>
      <point x="640" y="400"/>
      <point x="528" y="512"/>
    </contour>
  </outline>
</glyph>
<glyph name="uniE8ED" format="2">
  <advance width="2048"/>
  <unicode hex="E8ED"/>
  <outline>
    <contour>
      <point x="1389" y="2029" type="qcurve" smooth="yes"/>
      <point x="1645" y="1773" type="line" smooth="yes"/>
      <point x="1664" y="1754"/>
      <point x="1664" y="1702"/>
      <point x="1645" y="1683" type="qcurve" smooth="yes"/>
      <point x="1389" y="1427" type="line" smooth="yes"/>
      <point x="1370" y="1408"/>
      <point x="1318" y="1408"/>
      <point x="1280" y="1446"/>
      <point x="1280" y="1498"/>
      <point x="1299" y="1517" type="qcurve" smooth="yes"/>
      <point x="1446" y="1664" type="line"/>
      <point x="768" y="1664" type="line" smooth="yes"/>
      <point x="638" y="1664"/>
      <point x="401" y="1563"/>
      <point x="229" y="1391"/>
      <point x="128" y="1154"/>
      <point x="128" y="1024" type="qcurve" smooth="yes"/>
      <point x="128" y="879"/>
      <point x="191" y="745" type="qcurve" smooth="yes"/>
      <point x="211" y="703"/>
      <point x="234" y="668" type="qcurve" smooth="yes"/>
      <point x="245" y="652"/>
      <point x="251" y="644" type="qcurve" smooth="yes"/>
      <point x="267" y="624"/>
      <point x="263" y="571"/>
      <point x="223" y="537"/>
      <point x="169" y="542"/>
      <point x="153" y="562" type="qcurve" smooth="yes"/>
      <point x="140" y="579"/>
      <point x="126" y="599" type="qcurve" smooth="yes"/>
      <point x="100" y="638"/>
      <point x="75" y="691" type="qcurve" smooth="yes"/>
      <point x="0" y="850"/>
      <point x="0" y="1024" type="qcurve" smooth="yes"/>
      <point x="0" y="1233"/>
      <point x="206" y="1586"/>
      <point x="559" y="1792"/>
      <point x="768" y="1792" type="qcurve" smooth="yes"/>
      <point x="1446" y="1792" type="line"/>
      <point x="1299" y="1939" type="line" smooth="yes"/>
      <point x="1280" y="1958"/>
      <point x="1280" y="2010"/>
      <point x="1318" y="2048"/>
      <point x="1370" y="2048"/>
    </contour>
    <contour>
      <point x="1825" y="1511"/>
      <point x="1879" y="1506"/>
      <point x="1895" y="1486" type="qcurve" smooth="yes"/>
      <point x="1907" y="1471"/>
      <point x="1922" y="1449" type="qcurve" smooth="yes"/>
      <point x="1948" y="1410"/>
      <point x="1973" y="1357" type="qcurve" smooth="yes"/>
      <point x="2046" y="1203"/>
      <point x="2048" y="1034" type="qcurve"/>
      <point x="1984" y="1115"/>
      <point x="1903" y="1173" type="qcurve"/>
      <point x="1888" y="1238"/>
      <point x="1857" y="1303" type="qcurve" smooth="yes"/>
      <point x="1837" y="1346"/>
      <point x="1814" y="1380" type="qcurve" smooth="yes"/>
      <point x="1806" y="1392"/>
      <point x="1797" y="1404" type="qcurve" smooth="yes"/>
      <point x="1780" y="1424"/>
      <point x="1785" y="1477"/>
    </contour>
    <contour>
      <point x="761" y="384" type="line"/>
      <point x="778" y="319"/>
      <point x="809" y="256" type="qcurve"/>
      <point x="602" y="256" type="line"/>
      <point x="749" y="109" type="line" smooth="yes"/>
      <point x="768" y="90"/>
      <point x="768" y="38"/>
      <point x="730" y="0"/>
      <point x="678" y="0"/>
      <point x="659" y="19" type="qcurve" smooth="yes"/>
      <point x="403" y="275" type="line" smooth="yes"/>
      <point x="384" y="294"/>
      <point x="384" y="346"/>
      <point x="403" y="365" type="qcurve" smooth="yes"/>
      <point x="659" y="621" type="line" smooth="yes"/>
      <point x="678" y="640"/>
      <point x="704" y="640" type="qcurve" smooth="yes"/>
      <point x="722" y="640"/>
      <point x="738" y="630" type="qcurve"/>
      <point x="736" y="602"/>
      <point x="736" y="576" type="qcurve" smooth="yes"/>
      <point x="736" y="547"/>
      <point x="738" y="520" type="qcurve"/>
      <point x="602" y="384" type="line"/>
    </contour>
    <contour>
      <point x="2048" y="420"/>
      <point x="1894" y="154"/>
      <point x="1628" y="0"/>
      <point x="1316" y="0"/>
      <point x="1050" y="154"/>
      <point x="896" y="420"/>
      <point x="896" y="732"/>
      <point x="1050" y="998"/>
      <point x="1316" y="1152"/>
      <point x="1628" y="1152"/>
      <point x="1894" y="998"/>
      <point x="2048" y="732"/>
    </contour>
    <contour>
      <point x="1497" y="891" type="qcurve" smooth="yes"/>
      <point x="1457" y="907"/>
      <point x="1427" y="877" type="qcurve" smooth="yes"/>
      <point x="1299" y="749" type="line" smooth="yes"/>
      <point x="1280" y="730"/>
      <point x="1280" y="678"/>
      <point x="1318" y="640"/>
      <point x="1370" y="640"/>
      <point x="1389" y="659" type="qcurve" smooth="yes"/>
      <point x="1408" y="677" type="line"/>
      <point x="1408" y="320" type="line" smooth="yes"/>
      <point x="1408" y="293"/>
      <point x="1445" y="256"/>
      <point x="1499" y="256"/>
      <point x="1536" y="293"/>
      <point x="1536" y="320" type="qcurve" smooth="yes"/>
      <point x="1536" y="832" type="line" smooth="yes"/>
      <point x="1536" y="875"/>
    </contour>
  </outline>
</glyph>
<glyph name="uniE8EE" format="2">
  <advance width="2048"/>
  <unicode hex="E8EE"/>
  <outline>
    <contour>
      <point x="1389" y="2029" type="qcurve" smooth="yes"/>
      <point x="1645" y="1773" type="line" smooth="yes"/>
      <point x="1664" y="1754"/>
      <point x="1664" y="1702"/>
      <point x="1645" y="1683" type="qcurve" smooth="yes"/>
      <point x="1389" y="1427" type="line" smooth="yes"/>
      <point x="1370" y="1408"/>
      <point x="1318" y="1408"/>
      <point x="1280" y="1446"/>
      <point x="1280" y="1498"/>
      <point x="1299" y="1517" type="qcurve" smooth="yes"/>
      <point x="1446" y="1664" type="line"/>
      <point x="768" y="1664" type="line" smooth="yes"/>
      <point x="638" y="1664"/>
      <point x="401" y="1563"/>
      <point x="229" y="1391"/>
      <point x="128" y="1154"/>
      <point x="128" y="1024" type="qcurve" smooth="yes"/>
      <point x="128" y="879"/>
      <point x="191" y="745" type="qcurve" smooth="yes"/>
      <point x="211" y="703"/>
      <point x="234" y="668" type="qcurve" smooth="yes"/>
      <point x="245" y="652"/>
      <point x="251" y="644" type="qcurve" smooth="yes"/>
      <point x="267" y="624"/>
      <point x="263" y="571"/>
      <point x="223" y="537"/>
      <point x="169" y="542"/>
      <point x="153" y="562" type="qcurve" smooth="yes"/>
      <point x="140" y="579"/>
      <point x="126" y="599" type="qcurve" smooth="yes"/>
      <point x="100" y="638"/>
      <point x="75" y="691" type="qcurve" smooth="yes"/>
      <point x="0" y="850"/>
      <point x="0" y="1024" type="qcurve" smooth="yes"/>
      <point x="0" y="1233"/>
      <point x="206" y="1586"/>
      <point x="559" y="1792"/>
      <point x="768" y="1792" type="qcurve" smooth="yes"/>
      <point x="1446" y="1792" type="line"/>
      <point x="1299" y="1939" type="line" smooth="yes"/>
      <point x="1280" y="1958"/>
      <point x="1280" y="2010"/>
      <point x="1318" y="2048"/>
      <point x="1370" y="2048"/>
    </contour>
    <contour>
      <point x="1825" y="1511"/>
      <point x="1879" y="1506"/>
      <point x="1895" y="1486" type="qcurve" smooth="yes"/>
      <point x="1907" y="1471"/>
      <point x="1922" y="1449" type="qcurve" smooth="yes"/>
      <point x="1948" y="1410"/>
      <point x="1973" y="1357" type="qcurve" smooth="yes"/>
      <point x="2048" y="1198"/>
      <point x="2048" y="1024" type="qcurve" smooth="yes"/>
      <point x="2048" y="815"/>
      <point x="1842" y="462"/>
      <point x="1489" y="256"/>
      <point x="1280" y="256" type="qcurve" smooth="yes"/>
      <point x="602" y="256" type="line"/>
      <point x="749" y="109" type="line" smooth="yes"/>
      <point x="768" y="90"/>
      <point x="768" y="38"/>
      <point x="730" y="0"/>
      <point x="678" y="0"/>
      <point x="659" y="19" type="qcurve" smooth="yes"/>
      <point x="403" y="275" type="line" smooth="yes"/>
      <point x="384" y="294"/>
      <point x="384" y="346"/>
      <point x="403" y="365" type="qcurve" smooth="yes"/>
      <point x="659" y="621" type="line" smooth="yes"/>
      <point x="678" y="640"/>
      <point x="730" y="640"/>
      <point x="768" y="602"/>
      <point x="768" y="550"/>
      <point x="749" y="531" type="qcurve" smooth="yes"/>
      <point x="602" y="384" type="line"/>
      <point x="1280" y="384" type="line" smooth="yes"/>
      <point x="1410" y="384"/>
      <point x="1647" y="485"/>
      <point x="1819" y="657"/>
      <point x="1920" y="894"/>
      <point x="1920" y="1024" type="qcurve" smooth="yes"/>
      <point x="1920" y="1169"/>
      <point x="1857" y="1303" type="qcurve" smooth="yes"/>
      <point x="1837" y="1346"/>
      <point x="1814" y="1380" type="qcurve" smooth="yes"/>
      <point x="1806" y="1392"/>
      <point x="1797" y="1404" type="qcurve" smooth="yes"/>
      <point x="1780" y="1424"/>
      <point x="1785" y="1477"/>
    </contour>
  </outline>
</glyph>
<glyph name="uniE8F4" format="2">
  <advance width="2048"/>
  <unicode hex="E8F4"/>
  <outline>
    <contour>
      <point x="0" y="1600" type="line" smooth="yes"/>
      <point x="0" y="1733"/>
      <point x="187" y="1920"/>
      <point x="320" y="1920" type="qcurve" smooth="yes"/>
      <point x="702" y="1920" type="line" smooth="yes"/>
      <point x="777" y="1920"/>
      <point x="911" y="1853"/>
      <point x="956" y="1794" type="qcurve" smooth="yes"/>
      <point x="1055" y="1664" type="line"/>
      <point x="1728" y="1664" type="line" smooth="yes"/>
      <point x="1861" y="1664"/>
      <point x="2048" y="1477"/>
      <point x="2048" y="1344" type="qcurve" smooth="yes"/>
      <point x="2048" y="1034" type="line"/>
      <point x="1991" y="1105"/>
      <point x="1920" y="1160" type="qcurve"/>
      <point x="1920" y="1344" type="line" smooth="yes"/>
      <point x="1920" y="1424"/>
      <point x="1808" y="1536"/>
      <point x="1728" y="1536" type="qcurve" smooth="yes"/>
      <point x="1043" y="1536" type="line"/>
      <point x="927" y="1460" type="line" smooth="yes"/>
      <point x="847" y="1408"/>
      <point x="752" y="1408" type="qcurve" smooth="yes"/>
      <point x="128" y="1408" type="line"/>
      <point x="128" y="448" type="line" smooth="yes"/>
      <point x="128" y="368"/>
      <point x="240" y="256"/>
      <point x="320" y="256" type="qcurve" smooth="yes"/>
      <point x="809" y="256" type="line"/>
      <point x="842" y="188"/>
      <point x="888" y="128" type="qcurve"/>
      <point x="320" y="128" type="line" smooth="yes"/>
      <point x="187" y="128"/>
      <point x="0" y="315"/>
      <point x="0" y="448" type="qcurve" smooth="yes"/>
    </contour>
    <contour>
      <point x="931" y="1616" type="line"/>
      <point x="854" y="1717" type="line" smooth="yes"/>
      <point x="797" y="1792"/>
      <point x="702" y="1792" type="qcurve" smooth="yes"/>
      <point x="320" y="1792" type="line" smooth="yes"/>
      <point x="240" y="1792"/>
      <point x="128" y="1680"/>
      <point x="128" y="1600" type="qcurve" smooth="yes"/>
      <point x="128" y="1536" type="line"/>
      <point x="752" y="1536" type="line" smooth="yes"/>
      <point x="810" y="1536"/>
      <point x="857" y="1567" type="qcurve" smooth="yes"/>
    </contour>
    <contour>
      <point x="896" y="732"/>
      <point x="1050" y="998"/>
      <point x="1316" y="1152"/>
      <point x="1628" y="1152"/>
      <point x="1894" y="998"/>
      <point x="2048" y="732"/>
      <point x="2048" y="420"/>
      <point x="1894" y="154"/>
      <point x="1628" y="0"/>
      <point x="1316" y="0"/>
      <point x="1050" y="154"/>
      <point x="896" y="420"/>
    </contour>
    <contour>
      <point x="1445" y="896"/>
      <point x="1408" y="859"/>
      <point x="1408" y="832" type="qcurve" smooth="yes"/>
      <point x="1408" y="640" type="line"/>
      <point x="1216" y="640" type="line" smooth="yes"/>
      <point x="1189" y="640"/>
      <point x="1152" y="603"/>
      <point x="1152" y="549"/>
      <point x="1189" y="512"/>
      <point x="1216" y="512" type="qcurve" smooth="yes"/>
      <point x="1408" y="512" type="line"/>
      <point x="1408" y="320" type="line" smooth="yes"/>
      <point x="1408" y="293"/>
      <point x="1445" y="256"/>
      <point x="1499" y="256"/>
      <point x="1536" y="293"/>
      <point x="1536" y="320" type="qcurve" smooth="yes"/>
      <point x="1536" y="512" type="line"/>
      <point x="1728" y="512" type="line" smooth="yes"/>
      <point x="1755" y="512"/>
      <point x="1792" y="549"/>
      <point x="1792" y="603"/>
      <point x="1755" y="640"/>
      <point x="1728" y="640" type="qcurve" smooth="yes"/>
      <point x="1536" y="640" type="line"/>
      <point x="1536" y="832" type="line" smooth="yes"/>
      <point x="1536" y="859"/>
      <point x="1499" y="896"/>
    </contour>
  </outline>
</glyph>
<glyph name="uniE93D" format="2">
  <advance width="2048"/>
  <unicode hex="E93D"/>
  <outline>
    <contour>
      <point x="128" y="1600" type="line" smooth="yes"/>
      <point x="128" y="1627"/>
      <point x="165" y="1664"/>
      <point x="219" y="1664"/>
      <point x="256" y="1627"/>
      <point x="256" y="1600" type="qcurve" smooth="yes"/>
      <point x="256" y="448" type="line" smooth="yes"/>
      <point x="256" y="421"/>
      <point x="219" y="384"/>
      <point x="165" y="384"/>
      <point x="128" y="421"/>
      <point x="128" y="448" type="qcurve" smooth="yes"/>
    </contour>
    <contour>
      <point x="512" y="1344" type="line" smooth="yes"/>
      <point x="512" y="1371"/>
      <point x="549" y="1408"/>
      <point x="603" y="1408"/>
      <point x="640" y="1371"/>
      <point x="640" y="1344" type="qcurve" smooth="yes"/>
      <point x="640" y="704" type="line" smooth="yes"/>
      <point x="640" y="677"/>
      <point x="603" y="640"/>
      <point x="549" y="640"/>
      <point x="512" y="677"/>
      <point x="512" y="704" type="qcurve" smooth="yes"/>
    </contour>
    <contour>
      <point x="1371" y="1408"/>
      <point x="1408" y="1371"/>
      <point x="1408" y="1344" type="qcurve" smooth="yes"/>
      <point x="1408" y="704" type="line" smooth="yes"/>
      <point x="1408" y="677"/>
      <point x="1371" y="640"/>
      <point x="1317" y="640"/>
      <point x="1280" y="677"/>
      <point x="1280" y="704" type="qcurve" smooth="yes"/>
      <point x="1280" y="1344" type="line" smooth="yes"/>
      <point x="1280" y="1371"/>
      <point x="1317" y="1408"/>
    </contour>
    <contour>
      <point x="896" y="1216" type="line" smooth="yes"/>
      <point x="896" y="1243"/>
      <point x="933" y="1280"/>
      <point x="987" y="1280"/>
      <point x="1024" y="1243"/>
      <point x="1024" y="1216" type="qcurve" smooth="yes"/>
      <point x="1024" y="832" type="line" smooth="yes"/>
      <point x="1024" y="805"/>
      <point x="987" y="768"/>
      <point x="933" y="768"/>
      <point x="896" y="805"/>
      <point x="896" y="832" type="qcurve" smooth="yes"/>
    </contour>
    <contour>
      <point x="1755" y="1664"/>
      <point x="1792" y="1627"/>
      <point x="1792" y="1600" type="qcurve" smooth="yes"/>
      <point x="1792" y="448" type="line" smooth="yes"/>
      <point x="1792" y="421"/>
      <point x="1755" y="384"/>
      <point x="1701" y="384"/>
      <point x="1664" y="421"/>
      <point x="1664" y="448" type="qcurve" smooth="yes"/>
      <point x="1664" y="1600" type="line" smooth="yes"/>
      <point x="1664" y="1627"/>
      <point x="1701" y="1664"/>
    </contour>
  </outline>
</glyph>
<glyph name="uniE93F" format="2">
  <advance width="2048"/>
  <unicode hex="E93F"/>
  <outline>
    <contour>
      <point x="0" y="1930" type="line" smooth="yes"/>
      <point x="0" y="1971"/>
      <point x="57" y="2026"/>
      <point x="96" y="2026" type="qcurve" smooth="yes"/>
      <point x="122" y="2026"/>
      <point x="143" y="2014" type="qcurve" smooth="yes"/>
      <point x="620" y="1748" type="line" smooth="yes"/>
      <point x="669" y="1721"/>
      <point x="669" y="1607"/>
      <point x="620" y="1580" type="qcurve" smooth="yes"/>
      <point x="143" y="1314" type="line" smooth="yes"/>
      <point x="122" y="1302"/>
      <point x="96" y="1302" type="qcurve" smooth="yes"/>
      <point x="57" y="1302"/>
      <point x="0" y="1357"/>
      <point x="0" y="1398" type="qcurve" smooth="yes"/>
    </contour>
    <contour>
      <point x="896" y="1627"/>
      <point x="933" y="1664"/>
      <point x="960" y="1664" type="qcurve" smooth="yes"/>
      <point x="1984" y="1664" type="line" smooth="yes"/>
      <point x="2011" y="1664"/>
      <point x="2048" y="1627"/>
      <point x="2048" y="1573"/>
      <point x="2011" y="1536"/>
      <point x="1984" y="1536" type="qcurve" smooth="yes"/>
      <point x="960" y="1536" type="line" smooth="yes"/>
      <point x="933" y="1536"/>
      <point x="896" y="1573"/>
    </contour>
    <contour>
      <point x="0" y="1115"/>
      <point x="37" y="1152"/>
      <point x="64" y="1152" type="qcurve" smooth="yes"/>
      <point x="1984" y="1152" type="line" smooth="yes"/>
      <point x="2011" y="1152"/>
      <point x="2048" y="1115"/>
      <point x="2048" y="1061"/>
      <point x="2011" y="1024"/>
      <point x="1984" y="1024" type="qcurve" smooth="yes"/>
      <point x="64" y="1024" type="line" smooth="yes"/>
      <point x="37" y="1024"/>
      <point x="0" y="1061"/>
    </contour>
    <contour>
      <point x="0" y="603"/>
      <point x="37" y="640"/>
      <point x="64" y="640" type="qcurve" smooth="yes"/>
      <point x="1984" y="640" type="line" smooth="yes"/>
      <point x="2011" y="640"/>
      <point x="2048" y="603"/>
      <point x="2048" y="549"/>
      <point x="2011" y="512"/>
      <point x="1984" y="512" type="qcurve" smooth="yes"/>
      <point x="64" y="512" type="line" smooth="yes"/>
      <point x="37" y="512"/>
      <point x="0" y="549"/>
    </contour>
  </outline>
</glyph>
<glyph name="uniEA20" format="2">
  <advance width="2048"/>
  <unicode hex="EA20"/>
  <outline>
    <contour>
      <point x="0" y="1114"/>
      <point x="38" y="1152"/>
      <point x="90" y="1152"/>
      <point x="109" y="1133" type="qcurve" smooth="yes"/>
      <point x="192" y="1051" type="line"/>
      <point x="531" y="1389" type="line" smooth="yes"/>
      <point x="550" y="1408"/>
      <point x="602" y="1408"/>
      <point x="640" y="1370"/>
      <point x="640" y="1318"/>
      <point x="621" y="1299" type="qcurve" smooth="yes"/>
      <point x="237" y="915" type="line" smooth="yes"/>
      <point x="218" y="896"/>
      <point x="166" y="896"/>
      <point x="147" y="915" type="qcurve" smooth="yes"/>
      <point x="19" y="1043" type="line" smooth="yes"/>
      <point x="0" y="1062"/>
    </contour>
    <contour>
      <point x="768" y="1115"/>
      <point x="805" y="1152"/>
      <point x="832" y="1152" type="qcurve" smooth="yes"/>
      <point x="1984" y="1152" type="line" smooth="yes"/>
      <point x="2011" y="1152"/>
      <point x="2048" y="1115"/>
      <point x="2048" y="1061"/>
      <point x="2011" y="1024"/>
      <point x="1984" y="1024" type="qcurve" smooth="yes"/>
      <point x="832" y="1024" type="line" smooth="yes"/>
      <point x="805" y="1024"/>
      <point x="768" y="1061"/>
    </contour>
  </outline>
</glyph>
<glyph name="uniEA66" format="2">
  <advance width="2048"/>
  <unicode hex="EA66"/>
  <outline>
    <contour>
      <point x="1408" y="1114"/>
      <point x="1446" y="1152"/>
      <point x="1498" y="1152"/>
      <point x="1517" y="1133" type="qcurve" smooth="yes"/>
      <point x="1600" y="1051" type="line"/>
      <point x="1939" y="1389" type="line" smooth="yes"/>
      <point x="1958" y="1408"/>
      <point x="2010" y="1408"/>
      <point x="2048" y="1370"/>
      <point x="2048" y="1318"/>
      <point x="2029" y="1299" type="qcurve" smooth="yes"/>
      <point x="1645" y="915" type="line" smooth="yes"/>
      <point x="1626" y="896"/>
      <point x="1574" y="896"/>
      <point x="1555" y="915" type="qcurve" smooth="yes"/>
      <point x="1427" y="1043" type="line" smooth="yes"/>
      <point x="1408" y="1062"/>
    </contour>
    <contour>
      <point x="0" y="1115"/>
      <point x="37" y="1152"/>
      <point x="64" y="1152" type="qcurve" smooth="yes"/>
      <point x="1216" y="1152" type="line" smooth="yes"/>
      <point x="1243" y="1152"/>
      <point x="1280" y="1115"/>
      <point x="1280" y="1061"/>
      <point x="1243" y="1024"/>
      <point x="1216" y="1024" type="qcurve" smooth="yes"/>
      <point x="64" y="1024" type="line" smooth="yes"/>
      <point x="37" y="1024"/>
      <point x="0" y="1061"/>
    </contour>
  </outline>
</glyph>
<glyph name="uniEB24" format="2">
  <advance width="2048"/>
  <unicode hex="EB24"/>
  <outline>
    <contour>
      <point x="960" y="1662" type="line"/>
      <point x="840" y="1654"/>
      <point x="620" y="1584"/>
      <point x="445" y="1474"/>
      <point x="311" y="1354"/>
      <point x="255" y="1284" type="qcurve"/>
      <point x="482" y="1142" type="line" smooth="yes"/>
      <point x="504" y="1128"/>
      <point x="516" y="1076"/>
      <point x="488" y="1032"/>
      <point x="436" y="1020"/>
      <point x="414" y="1034" type="qcurve" smooth="yes"/>
      <point x="182" y="1180" type="line"/>
      <point x="144" y="1118"/>
      <point x="124" y="1065" type="qcurve" smooth="yes"/>
      <point x="108" y="1024"/>
      <point x="64" y="1024" type="qcurve" smooth="yes"/>
      <point x="51" y="1024"/>
      <point x="41" y="1028" type="qcurve" smooth="yes"/>
      <point x="0" y="1044"/>
      <point x="0" y="1088" type="qcurve" smooth="yes"/>
      <point x="0" y="1101"/>
      <point x="4" y="1111" type="qcurve" smooth="yes"/>
      <point x="27" y="1170"/>
      <point x="108" y="1305"/>
      <point x="234" y="1463"/>
      <point x="407" y="1605"/>
      <point x="612" y="1722"/>
      <point x="880" y="1792"/>
      <point x="1024" y="1792" type="qcurve" smooth="yes"/>
      <point x="1452" y="1792"/>
      <point x="1770" y="1497" type="qcurve"/>
      <point x="1649" y="1433" type="line"/>
      <point x="1403" y="1642"/>
      <point x="1088" y="1662" type="qcurve"/>
      <point x="1088" y="1344" type="line" smooth="yes"/>
      <point x="1088" y="1317"/>
      <point x="1051" y="1280"/>
      <point x="997" y="1280"/>
      <point x="960" y="1317"/>
      <point x="960" y="1344" type="qcurve" smooth="yes"/>
    </contour>
    <contour>
      <point x="1941" y="1040" type="qcurve"/>
      <point x="2031" y="1142" type="line"/>
      <point x="2039" y="1123"/>
      <point x="2044" y="1111" type="qcurve" smooth="yes"/>
      <point x="2048" y="1101"/>
      <point x="2048" y="1088" type="qcurve" smooth="yes"/>
      <point x="2048" y="1044"/>
      <point x="2007" y="1028" type="qcurve" smooth="yes"/>
      <point x="1997" y="1024"/>
      <point x="1984" y="1024" type="qcurve" smooth="yes"/>
      <point x="1959" y="1024"/>
    </contour>
    <contour>
      <point x="1948" y="1305" type="qcurve" smooth="yes"/>
      <point x="1948" y="1281"/>
      <point x="1932" y="1263" type="qcurve" smooth="yes"/>
      <point x="1217" y="471" type="line" smooth="yes"/>
      <point x="1140" y="385"/>
      <point x="1024" y="385" type="qcurve" smooth="yes"/>
      <point x="966" y="385"/>
      <point x="859" y="436"/>
      <point x="822" y="483" type="qcurve" smooth="yes"/>
      <point x="769" y="551"/>
      <point x="769" y="636" type="qcurve" smooth="yes"/>
      <point x="769" y="708"/>
      <point x="844" y="835"/>
      <point x="909" y="869" type="qcurve" smooth="yes"/>
      <point x="1852" y="1363" type="line" smooth="yes"/>
      <point x="1867" y="1371"/>
      <point x="1883" y="1371" type="qcurve" smooth="yes"/>
      <point x="1915" y="1371"/>
      <point x="1934" y="1346" type="qcurve" smooth="yes"/>
      <point x="1948" y="1328"/>
    </contour>
    <contour>
      <point x="1599" y="1086" type="line"/>
      <point x="965" y="756" type="line" smooth="yes"/>
      <point x="912" y="728"/>
      <point x="886" y="609"/>
      <point x="960" y="515"/>
      <point x="1082" y="510"/>
      <point x="1122" y="554" type="qcurve" smooth="yes"/>
    </contour>
  </outline>
</glyph>
<glyph name="uniEC48" format="2">
  <advance width="2048"/>
  <unicode hex="EC48"/>
  <outline>
    <contour>
      <point x="960" y="1662" type="line"/>
      <point x="645" y="1642"/>
      <point x="399" y="1433" type="qcurve"/>
      <point x="278" y="1497" type="line"/>
      <point x="596" y="1792"/>
      <point x="1024" y="1792" type="qcurve" smooth="yes"/>
      <point x="1168" y="1792"/>
      <point x="1436" y="1722"/>
      <point x="1641" y="1605"/>
      <point x="1814" y="1463"/>
      <point x="1940" y="1305"/>
      <point x="2021" y="1170"/>
      <point x="2044" y="1111" type="qcurve" smooth="yes"/>
      <point x="2048" y="1101"/>
      <point x="2048" y="1088" type="qcurve" smooth="yes"/>
      <point x="2048" y="1044"/>
      <point x="2007" y="1028" type="qcurve" smooth="yes"/>
      <point x="1997" y="1024"/>
      <point x="1984" y="1024" type="qcurve" smooth="yes"/>
      <point x="1940" y="1024"/>
      <point x="1924" y="1065" type="qcurve" smooth="yes"/>
      <point x="1904" y="1118"/>
      <point x="1866" y="1180" type="qcurve"/>
      <point x="1634" y="1034" type="line" smooth="yes"/>
      <point x="1612" y="1020"/>
      <point x="1560" y="1032"/>
      <point x="1532" y="1076"/>
      <point x="1544" y="1128"/>
      <point x="1566" y="1142" type="qcurve" smooth="yes"/>
      <point x="1793" y="1284" type="line"/>
      <point x="1737" y="1354"/>
      <point x="1603" y="1474"/>
      <point x="1428" y="1584"/>
      <point x="1208" y="1654"/>
      <point x="1088" y="1662" type="qcurve"/>
      <point x="1088" y="1344" type="line" smooth="yes"/>
      <point x="1088" y="1317"/>
      <point x="1051" y="1280"/>
      <point x="997" y="1280"/>
      <point x="960" y="1317"/>
      <point x="960" y="1344" type="qcurve" smooth="yes"/>
    </contour>
    <contour>
      <point x="17" y="1142" type="qcurve"/>
      <point x="107" y="1040" type="line"/>
      <point x="89" y="1024"/>
      <point x="64" y="1024" type="qcurve" smooth="yes"/>
      <point x="51" y="1024"/>
      <point x="41" y="1028" type="qcurve" smooth="yes"/>
      <point x="0" y="1044"/>
      <point x="0" y="1088" type="qcurve" smooth="yes"/>
      <point x="0" y="1101"/>
      <point x="4" y="1111" type="qcurve" smooth="yes"/>
      <point x="8" y="1123"/>
    </contour>
    <contour>
      <point x="164" y="1371" type="qcurve" smooth="yes"/>
      <point x="180" y="1371"/>
      <point x="196" y="1363" type="qcurve" smooth="yes"/>
      <point x="1141" y="868" type="line" smooth="yes"/>
      <point x="1206" y="834"/>
      <point x="1279" y="708"/>
      <point x="1279" y="636" type="qcurve" smooth="yes"/>
      <point x="1279" y="551"/>
      <point x="1226" y="483" type="qcurve" smooth="yes"/>
      <point x="1189" y="436"/>
      <point x="1082" y="385"/>
      <point x="1024" y="385" type="qcurve" smooth="yes"/>
      <point x="908" y="385"/>
      <point x="831" y="471" type="qcurve" smooth="yes"/>
      <point x="116" y="1263" type="line" smooth="yes"/>
      <point x="100" y="1281"/>
      <point x="100" y="1306" type="qcurve" smooth="yes"/>
      <point x="100" y="1328"/>
      <point x="114" y="1346" type="qcurve" smooth="yes"/>
      <point x="133" y="1371"/>
    </contour>
    <contour>
      <point x="449" y="1086" type="line"/>
      <point x="926" y="554" type="line" smooth="yes"/>
      <point x="966" y="510"/>
      <point x="1088" y="515"/>
      <point x="1162" y="609"/>
      <point x="1136" y="728"/>
      <point x="1083" y="756" type="qcurve" smooth="yes"/>
    </contour>
  </outline>
</glyph>
<glyph name="uniEC49" format="2">
  <advance width="2048"/>
  <unicode hex="EC49"/>
  <outline>
    <contour>
      <point x="1047" y="1792"/>
      <point x="1084" y="1763"/>
      <point x="1088" y="1740" type="qcurve" smooth="yes"/>
      <point x="1276" y="688" type="line" smooth="yes"/>
      <point x="1280" y="666"/>
      <point x="1280" y="642" type="qcurve" smooth="yes"/>
      <point x="1280" y="537"/>
      <point x="1131" y="384"/>
      <point x="917" y="384"/>
      <point x="768" y="537"/>
      <point x="768" y="642" type="qcurve" smooth="yes"/>
      <point x="768" y="666"/>
      <point x="772" y="688" type="qcurve" smooth="yes"/>
      <point x="960" y="1740" type="line" smooth="yes"/>
      <point x="964" y="1763"/>
      <point x="1001" y="1792"/>
    </contour>
    <contour>
      <point x="1024" y="1368" type="line"/>
      <point x="896" y="664" type="line" smooth="yes"/>
      <point x="885" y="605"/>
      <point x="964" y="512"/>
      <point x="1084" y="512"/>
      <point x="1163" y="605"/>
      <point x="1152" y="664" type="qcurve" smooth="yes"/>
    </contour>
    <contour>
      <point x="783" y="1634" type="qcurve"/>
      <point x="470" y="1553"/>
      <point x="255" y="1284" type="qcurve"/>
      <point x="482" y="1142" type="line" smooth="yes"/>
      <point x="504" y="1128"/>
      <point x="516" y="1076"/>
      <point x="488" y="1032"/>
      <point x="436" y="1020"/>
      <point x="414" y="1034" type="qcurve" smooth="yes"/>
      <point x="182" y="1180" type="line"/>
      <point x="144" y="1118"/>
      <point x="124" y="1065" type="qcurve" smooth="yes"/>
      <point x="108" y="1024"/>
      <point x="64" y="1024" type="qcurve" smooth="yes"/>
      <point x="51" y="1024"/>
      <point x="41" y="1028" type="qcurve" smooth="yes"/>
      <point x="0" y="1044"/>
      <point x="0" y="1088" type="qcurve" smooth="yes"/>
      <point x="0" y="1101"/>
      <point x="4" y="1111" type="qcurve" smooth="yes"/>
      <point x="28" y="1174"/>
      <point x="113" y="1315"/>
      <point x="256" y="1483"/>
      <point x="430" y="1625"/>
      <point x="674" y="1744"/>
      <point x="807" y="1771" type="qcurve"/>
      <point x="802" y="1745"/>
      <point x="785" y="1647"/>
    </contour>
    <contour>
      <point x="1241" y="1771" type="qcurve"/>
      <point x="1374" y="1744"/>
      <point x="1618" y="1625"/>
      <point x="1792" y="1483"/>
      <point x="1935" y="1315"/>
      <point x="2020" y="1174"/>
      <point x="2044" y="1111" type="qcurve" smooth="yes"/>
      <point x="2048" y="1101"/>
      <point x="2048" y="1088" type="qcurve" smooth="yes"/>
      <point x="2048" y="1044"/>
      <point x="2007" y="1028" type="qcurve" smooth="yes"/>
      <point x="1997" y="1024"/>
      <point x="1984" y="1024" type="qcurve" smooth="yes"/>
      <point x="1940" y="1024"/>
      <point x="1924" y="1065" type="qcurve" smooth="yes"/>
      <point x="1904" y="1118"/>
      <point x="1866" y="1180" type="qcurve"/>
      <point x="1634" y="1034" type="line" smooth="yes"/>
      <point x="1612" y="1020"/>
      <point x="1560" y="1032"/>
      <point x="1532" y="1076"/>
      <point x="1544" y="1128"/>
      <point x="1566" y="1142" type="qcurve" smooth="yes"/>
      <point x="1793" y="1284" type="line"/>
      <point x="1578" y="1553"/>
      <point x="1265" y="1634" type="qcurve"/>
      <point x="1263" y="1647"/>
      <point x="1246" y="1745"/>
    </contour>
  </outline>
</glyph>
<glyph name="uniEC4A" format="2">
  <advance width="2048"/>
  <unicode hex="EC4A"/>
  <outline>
    <contour>
      <point x="1354" y="1738" type="qcurve" smooth="yes"/>
      <point x="1273" y="1632" type="line"/>
      <point x="1182" y="1656"/>
      <point x="1088" y="1662" type="qcurve"/>
      <point x="1088" y="1344" type="line" smooth="yes"/>
      <point x="1088" y="1317"/>
      <point x="1051" y="1280"/>
      <point x="997" y="1280"/>
      <point x="960" y="1317"/>
      <point x="960" y="1344" type="qcurve" smooth="yes"/>
      <point x="960" y="1662" type="line"/>
      <point x="840" y="1654"/>
      <point x="620" y="1584"/>
      <point x="445" y="1474"/>
      <point x="311" y="1354"/>
      <point x="255" y="1284" type="qcurve"/>
      <point x="482" y="1142" type="line" smooth="yes"/>
      <point x="504" y="1128"/>
      <point x="516" y="1076"/>
      <point x="488" y="1032"/>
      <point x="436" y="1020"/>
      <point x="414" y="1034" type="qcurve" smooth="yes"/>
      <point x="182" y="1180" type="line"/>
      <point x="144" y="1118"/>
      <point x="124" y="1065" type="qcurve" smooth="yes"/>
      <point x="108" y="1024"/>
      <point x="64" y="1024" type="qcurve" smooth="yes"/>
      <point x="51" y="1024"/>
      <point x="41" y="1028" type="qcurve" smooth="yes"/>
      <point x="0" y="1044"/>
      <point x="0" y="1088" type="qcurve" smooth="yes"/>
      <point x="0" y="1101"/>
      <point x="4" y="1111" type="qcurve" smooth="yes"/>
      <point x="27" y="1170"/>
      <point x="108" y="1305"/>
      <point x="234" y="1463"/>
      <point x="407" y="1605"/>
      <point x="612" y="1722"/>
      <point x="880" y="1792"/>
      <point x="1024" y="1792" type="qcurve" smooth="yes"/>
      <point x="1197" y="1792"/>
      <point x="1357" y="1741" type="qcurve"/>
      <point x="1356" y="1740"/>
    </contour>
    <contour>
      <point x="1793" y="1284" type="line"/>
      <point x="1748" y="1341"/>
      <point x="1694" y="1392" type="qcurve"/>
      <point x="1736" y="1527" type="line"/>
      <point x="1850" y="1429"/>
      <point x="2009" y="1203"/>
      <point x="2044" y="1111" type="qcurve" smooth="yes"/>
      <point x="2048" y="1101"/>
      <point x="2048" y="1088" type="qcurve" smooth="yes"/>
      <point x="2048" y="1044"/>
      <point x="2007" y="1028" type="qcurve" smooth="yes"/>
      <point x="1997" y="1024"/>
      <point x="1984" y="1024" type="qcurve" smooth="yes"/>
      <point x="1940" y="1024"/>
      <point x="1924" y="1065" type="qcurve" smooth="yes"/>
      <point x="1904" y="1118"/>
      <point x="1866" y="1180" type="qcurve"/>
      <point x="1634" y="1034" type="line" smooth="yes"/>
      <point x="1612" y="1020"/>
      <point x="1560" y="1032"/>
      <point x="1532" y="1076"/>
      <point x="1544" y="1128"/>
      <point x="1566" y="1142" type="qcurve" smooth="yes"/>
    </contour>
    <contour>
      <point x="1594" y="1603" type="qcurve" smooth="yes"/>
      <point x="1594" y="1594"/>
      <point x="1591" y="1584" type="qcurve" smooth="yes"/>
      <point x="1270" y="566" type="line" smooth="yes"/>
      <point x="1244" y="484"/>
      <point x="1106" y="384"/>
      <point x="1019" y="384" type="qcurve" smooth="yes"/>
      <point x="960" y="384"/>
      <point x="905" y="413" type="qcurve" smooth="yes"/>
      <point x="841" y="447"/>
      <point x="769" y="571"/>
      <point x="769" y="641" type="qcurve" smooth="yes"/>
      <point x="769" y="729"/>
      <point x="823" y="799" type="qcurve" smooth="yes"/>
      <point x="1477" y="1643" type="line" smooth="yes"/>
      <point x="1496" y="1668"/>
      <point x="1528" y="1668" type="qcurve" smooth="yes"/>
      <point x="1544" y="1668"/>
      <point x="1559" y="1660" type="qcurve" smooth="yes"/>
      <point x="1594" y="1642"/>
    </contour>
    <contour>
      <point x="1362" y="1285" type="line"/>
      <point x="922" y="721" type="line" smooth="yes"/>
      <point x="885" y="674"/>
      <point x="912" y="554"/>
      <point x="1018" y="498"/>
      <point x="1131" y="545"/>
      <point x="1149" y="602" type="qcurve" smooth="yes"/>
    </contour>
  </outline>
</glyph>
<glyph name="uniEE47" format="2">
  <advance width="2048"/>
  <unicode hex="EE47"/>
  <outline>
    <contour>
      <point x="128" y="1216" type="qcurve" smooth="yes"/>
      <point x="128" y="1536" type="line" smooth="yes"/>
      <point x="128" y="1695"/>
      <point x="353" y="1920"/>
      <point x="512" y="1920" type="qcurve" smooth="yes"/>
      <point x="1536" y="1920" type="line" smooth="yes"/>
      <point x="1695" y="1920"/>
      <point x="1921" y="1695"/>
      <point x="1920" y="1536" type="qcurve" smooth="yes"/>
      <point x="1920" y="512" type="line" smooth="yes"/>
      <point x="1920" y="353"/>
      <point x="1695" y="128"/>
      <point x="1536" y="128" type="qcurve" smooth="yes"/>
      <point x="1216" y="128" type="line" smooth="yes"/>
      <point x="1189" y="128"/>
      <point x="1152" y="165"/>
      <point x="1152" y="219"/>
      <point x="1189" y="256"/>
      <point x="1216" y="256" type="qcurve" smooth="yes"/>
      <point x="1536" y="256" type="line" smooth="yes"/>
      <point x="1642" y="256"/>
      <point x="1792" y="406"/>
      <point x="1792" y="512" type="qcurve" smooth="yes"/>
      <point x="1792" y="1024" type="line"/>
      <point x="1408" y="1024" type="line" smooth="yes"/>
      <point x="1249" y="1024"/>
      <point x="1024" y="1249"/>
      <point x="1024" y="1408" type="qcurve" smooth="yes"/>
      <point x="1024" y="1792" type="line"/>
      <point x="512" y="1792" type="line" smooth="yes"/>
      <point x="406" y="1792"/>
      <point x="256" y="1642"/>
      <point x="256" y="1536" type="qcurve" smooth="yes"/>
      <point x="256" y="1216" type="line" smooth="yes"/>
      <point x="256" y="1189"/>
      <point x="219" y="1152"/>
      <point x="165" y="1152"/>
      <point x="128" y="1189"/>
    </contour>
    <contour>
      <point x="1792" y="1152" type="line"/>
      <point x="1792" y="1536" type="line" smooth="yes"/>
      <point x="1792" y="1642"/>
      <point x="1642" y="1792"/>
      <point x="1536" y="1792" type="qcurve" smooth="yes"/>
      <point x="1152" y="1792" type="line"/>
      <point x="1152" y="1408" type="line" smooth="yes"/>
      <point x="1152" y="1302"/>
      <point x="1302" y="1152"/>
      <point x="1408" y="1152" type="qcurve" smooth="yes"/>
    </contour>
    <contour>
      <point x="128" y="832" type="line" smooth="yes"/>
      <point x="128" y="859"/>
      <point x="165" y="896"/>
      <point x="219" y="896"/>
      <point x="256" y="859"/>
      <point x="256" y="832" type="qcurve" smooth="yes"/>
      <point x="256" y="346" type="line"/>
      <point x="787" y="877" type="line" smooth="yes"/>
      <point x="806" y="896"/>
      <point x="858" y="896"/>
      <point x="896" y="858"/>
      <point x="896" y="806"/>
      <point x="877" y="787" type="qcurve" smooth="yes"/>
      <point x="346" y="256" type="line"/>
      <point x="832" y="256" type="line" smooth="yes"/>
      <point x="859" y="256"/>
      <point x="896" y="219"/>
      <point x="896" y="165"/>
      <point x="859" y="128"/>
      <point x="832" y="128" type="qcurve" smooth="yes"/>
      <point x="192" y="128" type="line" smooth="yes"/>
      <point x="165" y="128"/>
      <point x="128" y="165"/>
      <point x="128" y="192" type="qcurve" smooth="yes"/>
    </contour>
  </outline>
</glyph>
<glyph name="uniEE49" format="2">
  <advance width="2048"/>
  <unicode hex="EE49"/>
  <outline>
    <contour>
      <point x="512" y="1792" type="line" smooth="yes"/>
      <point x="406" y="1792"/>
      <point x="256" y="1642"/>
      <point x="256" y="1536" type="qcurve" smooth="yes"/>
      <point x="256" y="1216" type="line" smooth="yes"/>
      <point x="256" y="1189"/>
      <point x="219" y="1152"/>
      <point x="165" y="1152"/>
      <point x="128" y="1189"/>
      <point x="128" y="1216" type="qcurve" smooth="yes"/>
      <point x="128" y="1536" type="line" smooth="yes"/>
      <point x="128" y="1695"/>
      <point x="353" y="1920"/>
      <point x="512" y="1920" type="qcurve" smooth="yes"/>
      <point x="1536" y="1920" type="line" smooth="yes"/>
      <point x="1695" y="1920"/>
      <point x="1920" y="1695"/>
      <point x="1920" y="1536" type="qcurve" smooth="yes"/>
      <point x="1920" y="512" type="line" smooth="yes"/>
      <point x="1920" y="353"/>
      <point x="1695" y="128"/>
      <point x="1536" y="128" type="qcurve" smooth="yes"/>
      <point x="1216" y="128" type="line" smooth="yes"/>
      <point x="1189" y="128"/>
      <point x="1152" y="165"/>
      <point x="1152" y="219"/>
      <point x="1189" y="256"/>
      <point x="1216" y="256" type="qcurve" smooth="yes"/>
      <point x="1536" y="256" type="line" smooth="yes"/>
      <point x="1642" y="256"/>
      <point x="1792" y="406"/>
      <point x="1792" y="512" type="qcurve" smooth="yes"/>
      <point x="1792" y="1024" type="line"/>
      <point x="1280" y="1024" type="line" smooth="yes"/>
      <point x="1174" y="1024"/>
      <point x="1024" y="1174"/>
      <point x="1024" y="1280" type="qcurve" smooth="yes"/>
      <point x="1024" y="1792" type="line"/>
    </contour>
    <contour>
      <point x="1280" y="1152" type="qcurve" smooth="yes"/>
      <point x="1792" y="1152" type="line"/>
      <point x="1792" y="1536" type="line" smooth="yes"/>
      <point x="1792" y="1642"/>
      <point x="1642" y="1792"/>
      <point x="1536" y="1792" type="qcurve" smooth="yes"/>
      <point x="1152" y="1792" type="line"/>
      <point x="1152" y="1280" type="line" smooth="yes"/>
      <point x="1152" y="1227"/>
      <point x="1227" y="1152"/>
    </contour>
    <contour>
      <point x="128" y="859"/>
      <point x="165" y="896"/>
      <point x="192" y="896" type="qcurve" smooth="yes"/>
      <point x="832" y="896" type="line" smooth="yes"/>
      <point x="859" y="896"/>
      <point x="896" y="859"/>
      <point x="896" y="832" type="qcurve" smooth="yes"/>
      <point x="896" y="192" type="line" smooth="yes"/>
      <point x="896" y="165"/>
      <point x="859" y="128"/>
      <point x="805" y="128"/>
      <point x="768" y="165"/>
      <point x="768" y="192" type="qcurve" smooth="yes"/>
      <point x="768" y="678" type="line"/>
      <point x="237" y="147" type="line" smooth="yes"/>
      <point x="218" y="128"/>
      <point x="166" y="128"/>
      <point x="128" y="166"/>
      <point x="128" y="218"/>
      <point x="147" y="237" type="qcurve" smooth="yes"/>
      <point x="678" y="768" type="line"/>
      <point x="192" y="768" type="line" smooth="yes"/>
      <point x="165" y="768"/>
      <point x="128" y="805"/>
    </contour>
  </outline>
</glyph>
<glyph name="uniEE71" format="2">
  <advance width="2048"/>
  <unicode hex="EE71"/>
  <outline>
    <contour>
      <point x="1152" y="1316"/>
      <point x="998" y="1050"/>
      <point x="732" y="896"/>
      <point x="420" y="896"/>
      <point x="154" y="1050"/>
      <point x="0" y="1316"/>
      <point x="0" y="1628"/>
      <point x="154" y="1894"/>
      <point x="420" y="2048"/>
      <point x="732" y="2048"/>
      <point x="998" y="1894"/>
      <point x="1152" y="1628"/>
    </contour>
    <contour>
      <point x="621" y="1773" type="line" smooth="yes"/>
      <point x="602" y="1792"/>
      <point x="550" y="1792"/>
      <point x="531" y="1773" type="qcurve" smooth="yes"/>
      <point x="275" y="1517" type="line" smooth="yes"/>
      <point x="256" y="1498"/>
      <point x="256" y="1446"/>
      <point x="294" y="1408"/>
      <point x="346" y="1408"/>
      <point x="365" y="1427" type="qcurve" smooth="yes"/>
      <point x="512" y="1574" type="line"/>
      <point x="512" y="1216" type="line" smooth="yes"/>
      <point x="512" y="1189"/>
      <point x="549" y="1152"/>
      <point x="603" y="1152"/>
      <point x="640" y="1189"/>
      <point x="640" y="1216" type="qcurve" smooth="yes"/>
      <point x="640" y="1574" type="line"/>
      <point x="787" y="1427" type="line" smooth="yes"/>
      <point x="806" y="1408"/>
      <point x="858" y="1408"/>
      <point x="896" y="1446"/>
      <point x="896" y="1498"/>
      <point x="877" y="1517" type="qcurve" smooth="yes"/>
    </contour>
    <contour>
      <point x="256" y="809" type="line"/>
      <point x="319" y="779"/>
      <point x="384" y="761" type="qcurve"/>
      <point x="384" y="384" type="line" smooth="yes"/>
      <point x="384" y="313"/>
      <point x="419" y="254" type="qcurve"/>
      <point x="994" y="828" type="line" smooth="yes"/>
      <point x="1060" y="894"/>
      <point x="1244" y="894"/>
      <point x="1310" y="828" type="qcurve" smooth="yes"/>
      <point x="1885" y="254" type="line"/>
      <point x="1920" y="313"/>
      <point x="1920" y="384" type="qcurve" smooth="yes"/>
      <point x="1920" y="1408" type="line" smooth="yes"/>
      <point x="1920" y="1514"/>
      <point x="1770" y="1664"/>
      <point x="1664" y="1664" type="qcurve" smooth="yes"/>
      <point x="1287" y="1664" type="line"/>
      <point x="1269" y="1729"/>
      <point x="1239" y="1792" type="qcurve"/>
      <point x="1664" y="1792" type="line" smooth="yes"/>
      <point x="1823" y="1792"/>
      <point x="2048" y="1567"/>
      <point x="2048" y="1408" type="qcurve" smooth="yes"/>
      <point x="2048" y="384" type="line" smooth="yes"/>
      <point x="2048" y="225"/>
      <point x="1823" y="0"/>
      <point x="1664" y="0" type="qcurve" smooth="yes"/>
      <point x="640" y="0" type="line" smooth="yes"/>
      <point x="481" y="0"/>
      <point x="256" y="225"/>
      <point x="256" y="384" type="qcurve" smooth="yes"/>
    </contour>
    <contour>
      <point x="640" y="128" type="qcurve" smooth="yes"/>
      <point x="1664" y="128" type="line" smooth="yes"/>
      <point x="1735" y="128"/>
      <point x="1794" y="163" type="qcurve"/>
      <point x="1220" y="738" type="line" smooth="yes"/>
      <point x="1192" y="766"/>
      <point x="1112" y="766"/>
      <point x="1084" y="738" type="qcurve" smooth="yes"/>
      <point x="510" y="163" type="line"/>
      <point x="569" y="128"/>
    </contour>
    <contour>
      <point x="1664" y="1136"/>
      <point x="1552" y="1024"/>
      <point x="1392" y="1024"/>
      <point x="1280" y="1136"/>
      <point x="1280" y="1296"/>
      <point x="1392" y="1408"/>
      <point x="1552" y="1408"/>
      <point x="1664" y="1296"/>
    </contour>
    <contour>
      <point x="1536" y="1243"/>
      <point x="1499" y="1280"/>
      <point x="1445" y="1280"/>
      <point x="1408" y="1243"/>
      <point x="1408" y="1189"/>
      <point x="1445" y="1152"/>
      <point x="1499" y="1152"/>
      <point x="1536" y="1189"/>
    </contour>
  </outline>
</glyph>
<glyph name="uniF2CE" format="2">
  <advance width="2048"/>
  <unicode hex="F2CE"/>
  <outline>
    <contour>
      <point x="0" y="1600" type="line" smooth="yes"/>
      <point x="0" y="1733"/>
      <point x="187" y="1920"/>
      <point x="320" y="1920" type="qcurve" smooth="yes"/>
      <point x="702" y="1920" type="line" smooth="yes"/>
      <point x="777" y="1920"/>
      <point x="911" y="1853"/>
      <point x="956" y="1794" type="qcurve" smooth="yes"/>
      <point x="1055" y="1664" type="line"/>
      <point x="1728" y="1664" type="line" smooth="yes"/>
      <point x="1861" y="1664"/>
      <point x="2048" y="1477"/>
      <point x="2048" y="1344" type="qcurve" smooth="yes"/>
      <point x="2048" y="1024" type="line"/>
      <point x="1920" y="1024" type="line"/>
      <point x="1920" y="1344" type="line" smooth="yes"/>
      <point x="1920" y="1424"/>
      <point x="1808" y="1536"/>
      <point x="1728" y="1536" type="qcurve" smooth="yes"/>
      <point x="1043" y="1536" type="line"/>
      <point x="927" y="1460" type="line" smooth="yes"/>
      <point x="847" y="1408"/>
      <point x="752" y="1408" type="qcurve" smooth="yes"/>
      <point x="128" y="1408" type="line"/>
      <point x="128" y="448" type="line" smooth="yes"/>
      <point x="128" y="368"/>
      <point x="240" y="256"/>
      <point x="320" y="256" type="qcurve" smooth="yes"/>
      <point x="896" y="256" type="line"/>
      <point x="896" y="128" type="line"/>
      <point x="320" y="128" type="line" smooth="yes"/>
      <point x="187" y="128"/>
      <point x="0" y="315"/>
      <point x="0" y="448" type="qcurve" smooth="yes"/>
    </contour>
    <contour>
      <point x="931" y="1616" type="line"/>
      <point x="854" y="1717" type="line" smooth="yes"/>
      <point x="797" y="1792"/>
      <point x="702" y="1792" type="qcurve" smooth="yes"/>
      <point x="320" y="1792" type="line" smooth="yes"/>
      <point x="240" y="1792"/>
      <point x="128" y="1680"/>
      <point x="128" y="1600" type="qcurve" smooth="yes"/>
      <point x="128" y="1536" type="line"/>
      <point x="752" y="1536" type="line" smooth="yes"/>
      <point x="810" y="1536"/>
      <point x="857" y="1567" type="qcurve" smooth="yes"/>
    </contour>
    <contour>
      <point x="1024" y="859"/>
      <point x="1061" y="896"/>
      <point x="1088" y="896" type="qcurve" smooth="yes"/>
      <point x="1984" y="896" type="line" smooth="yes"/>
      <point x="2011" y="896"/>
      <point x="2048" y="859"/>
      <point x="2048" y="805"/>
      <point x="2011" y="768"/>
      <point x="1984" y="768" type="qcurve" smooth="yes"/>
      <point x="1088" y="768" type="line" smooth="yes"/>
      <point x="1061" y="768"/>
      <point x="1024" y="805"/>
    </contour>
    <contour>
      <point x="1024" y="475"/>
      <point x="1061" y="512"/>
      <point x="1088" y="512" type="qcurve" smooth="yes"/>
      <point x="1984" y="512" type="line" smooth="yes"/>
      <point x="2011" y="512"/>
      <point x="2048" y="475"/>
      <point x="2048" y="421"/>
      <point x="2011" y="384"/>
      <point x="1984" y="384" type="qcurve" smooth="yes"/>
      <point x="1088" y="384" type="line" smooth="yes"/>
      <point x="1061" y="384"/>
      <point x="1024" y="421"/>
    </contour>
    <contour>
      <point x="1024" y="91"/>
      <point x="1061" y="128"/>
      <point x="1088" y="128" type="qcurve" smooth="yes"/>
      <point x="1984" y="128" type="line" smooth="yes"/>
      <point x="2011" y="128"/>
      <point x="2048" y="91"/>
      <point x="2048" y="37"/>
      <point x="2011" y="0"/>
      <point x="1984" y="0" type="qcurve" smooth="yes"/>
      <point x="1088" y="0" type="line" smooth="yes"/>
      <point x="1061" y="0"/>
      <point x="1024" y="37"/>
    </contour>
  </outline>
</glyph>
<glyph name="uniF30C" format="2">
  <advance width="2048"/>
  <unicode hex="F30C"/>
  <outline>
    <contour>
      <point x="0" y="1664" type="line"/>
      <point x="128" y="1664" type="line"/>
      <point x="128" y="384" type="line"/>
      <point x="0" y="384" type="line"/>
    </contour>
    <contour>
      <point x="128" y="384" type="line"/>
      <point x="384" y="384" type="line"/>
      <point x="384" y="640" type="line"/>
      <point x="640" y="640" type="line"/>
      <point x="640" y="384" type="line"/>
      <point x="1408" y="384" type="line"/>
      <point x="1408" y="640" type="line"/>
      <point x="1664" y="640" type="line"/>
      <point x="1664" y="384" type="line"/>
      <point x="1920" y="384" type="line"/>
      <point x="1920" y="256" type="line"/>
      <point x="128" y="256" type="line"/>
    </contour>
    <contour>
      <point x="1920" y="1664" type="line"/>
      <point x="2048" y="1664" type="line"/>
      <point x="2048" y="384" type="line"/>
      <point x="1920" y="384" type="line"/>
    </contour>
    <contour>
      <point x="640" y="896" type="line"/>
      <point x="896" y="896" type="line"/>
      <point x="896" y="640" type="line"/>
      <point x="640" y="640" type="line"/>
    </contour>
    <contour>
      <point x="1152" y="896" type="line"/>
      <point x="1408" y="896" type="line"/>
      <point x="1408" y="640" type="line"/>
      <point x="1152" y="640" type="line"/>
    </contour>
    <contour>
      <point x="896" y="1152" type="line"/>
      <point x="1152" y="1152" type="line"/>
      <point x="1152" y="896" type="line"/>
      <point x="896" y="896" type="line"/>
    </contour>
    <contour>
      <point x="1408" y="1280" type="line"/>
      <point x="1536" y="1280" type="line"/>
      <point x="1536" y="1152" type="line"/>
      <point x="1408" y="1152" type="line"/>
    </contour>
    <contour>
      <point x="1280" y="1408" type="line"/>
      <point x="1408" y="1408" type="line"/>
      <point x="1408" y="1280" type="line"/>
      <point x="1280" y="1280" type="line"/>
    </contour>
    <contour>
      <point x="1536" y="1408" type="line"/>
      <point x="1664" y="1408" type="line"/>
      <point x="1664" y="1280" type="line"/>
      <point x="1536" y="1280" type="line"/>
    </contour>
    <contour>
      <point x="1408" y="1536" type="line"/>
      <point x="1536" y="1536" type="line"/>
      <point x="1536" y="1408" type="line"/>
      <point x="1408" y="1408" type="line"/>
    </contour>
    <contour>
      <point x="128" y="1792" type="line"/>
      <point x="1920" y="1792" type="line"/>
      <point x="1920" y="1664" type="line"/>
      <point x="128" y="1664" type="line"/>
    </contour>
  </outline>
</glyph>
<glyph name="uniF353" format="2">
  <advance width="2048"/>
  <unicode hex="F353"/>
  <outline>
    <contour>
      <point x="384" y="1984" type="line" smooth="yes"/>
      <point x="384" y="2011"/>
      <point x="421" y="2048"/>
      <point x="448" y="2048" type="qcurve" smooth="yes"/>
      <point x="1024" y="2048" type="line"/>
      <point x="1024" y="1728" type="line" smooth="yes"/>
      <point x="1024" y="1701"/>
      <point x="1061" y="1664"/>
      <point x="1115" y="1664"/>
      <point x="1152" y="1701"/>
      <point x="1152" y="1728" type="qcurve" smooth="yes"/>
      <point x="1152" y="2048" type="line"/>
      <point x="1280" y="2048" type="line"/>
      <point x="1280" y="1600" type="line" smooth="yes"/>
      <point x="1280" y="1573"/>
      <point x="1317" y="1536"/>
      <point x="1371" y="1536"/>
      <point x="1408" y="1573"/>
      <point x="1408" y="1600" type="qcurve" smooth="yes"/>
      <point x="1408" y="2048" type="line"/>
      <point x="1600" y="2048" type="line" smooth="yes"/>
      <point x="1627" y="2048"/>
      <point x="1664" y="2011"/>
      <point x="1664" y="1984" type="qcurve" smooth="yes"/>
      <point x="1664" y="1152" type="line"/>
      <point x="384" y="1152" type="line"/>
    </contour>
    <contour>
      <point x="384" y="1024" type="line"/>
      <point x="1664" y="1024" type="line"/>
      <point x="1664" y="896" type="line" smooth="yes"/>
      <point x="1664" y="790"/>
      <point x="1514" y="640"/>
      <point x="1408" y="640" type="qcurve" smooth="yes"/>
      <point x="1280" y="640" type="line"/>
      <point x="1280" y="256" type="line" smooth="yes"/>
      <point x="1280" y="150"/>
      <point x="1130" y="0"/>
      <point x="918" y="0"/>
      <point x="768" y="150"/>
      <point x="768" y="256" type="qcurve" smooth="yes"/>
      <point x="768" y="640" type="line"/>
      <point x="640" y="640" type="line" smooth="yes"/>
      <point x="534" y="640"/>
      <point x="384" y="790"/>
      <point x="384" y="896" type="qcurve" smooth="yes"/>
    </contour>
  </outline>
</glyph>
<glyph name="uniF5B0" format="2">
  <advance width="2048"/>
  <unicode hex="F5B0"/>
  <outline>
    <contour>
      <point x="542" y="1902" type="qcurve" smooth="yes"/>
      <point x="1815" y="1192" type="line" smooth="yes"/>
      <point x="1863" y="1165"/>
      <point x="1914" y="1075"/>
      <point x="1914" y="973"/>
      <point x="1863" y="883"/>
      <point x="1815" y="856" type="qcurve" smooth="yes"/>
      <point x="542" y="146" type="line" smooth="yes"/>
      <point x="499" y="122"/>
      <point x="448" y="122" type="qcurve" smooth="yes"/>
      <point x="371" y="122"/>
      <point x="256" y="232"/>
      <point x="256" y="314" type="qcurve" smooth="yes"/>
      <point x="256" y="1734" type="line" smooth="yes"/>
      <point x="256" y="1816"/>
      <point x="371" y="1926"/>
      <point x="448" y="1926" type="qcurve" smooth="yes"/>
      <point x="499" y="1926"/>
    </contour>
  </outline>
</glyph>
<glyph name="uniF5E7" format="2">
  <advance width="2048"/>
  <unicode hex="F5E7"/>
  <outline>
    <contour>
      <point x="314" y="1644" type="qcurve"/>
      <point x="19" y="1939" type="line" smooth="yes"/>
      <point x="0" y="1958"/>
      <point x="0" y="2010"/>
      <point x="38" y="2048"/>
      <point x="90" y="2048"/>
      <point x="109" y="2029" type="qcurve" smooth="yes"/>
      <point x="2029" y="109" type="line" smooth="yes"/>
      <point x="2048" y="90"/>
      <point x="2048" y="38"/>
      <point x="2010" y="0"/>
      <point x="1958" y="0"/>
      <point x="1939" y="19" type="qcurve" smooth="yes"/>
      <point x="1622" y="336" type="line"/>
      <point x="1461" y="256"/>
      <point x="1280" y="256" type="qcurve" smooth="yes"/>
      <point x="602" y="256" type="line"/>
      <point x="749" y="109" type="line" smooth="yes"/>
      <point x="768" y="90"/>
      <point x="768" y="38"/>
      <point x="730" y="0"/>
      <point x="678" y="0"/>
      <point x="659" y="19" type="qcurve" smooth="yes"/>
      <point x="403" y="275" type="line" smooth="yes"/>
      <point x="384" y="294"/>
      <point x="384" y="346"/>
      <point x="403" y="365" type="qcurve" smooth="yes"/>
      <point x="659" y="621" type="line" smooth="yes"/>
      <point x="678" y="640"/>
      <point x="730" y="640"/>
      <point x="768" y="602"/>
      <point x="768" y="550"/>
      <point x="749" y="531" type="qcurve" smooth="yes"/>
      <point x="602" y="384" type="line"/>
      <point x="1280" y="384" type="line" smooth="yes"/>
      <point x="1407" y="384"/>
      <point x="1525" y="433" type="qcurve"/>
      <point x="406" y="1552" type="line"/>
      <point x="278" y="1464"/>
      <point x="128" y="1186"/>
      <point x="128" y="1024" type="qcurve" smooth="yes"/>
      <point x="128" y="879"/>
      <point x="191" y="745" type="qcurve" smooth="yes"/>
      <point x="211" y="703"/>
      <point x="234" y="668" type="qcurve" smooth="yes"/>
      <point x="245" y="652"/>
      <point x="251" y="644" type="qcurve" smooth="yes"/>
      <point x="267" y="624"/>
      <point x="263" y="571"/>
      <point x="223" y="537"/>
      <point x="169" y="542"/>
      <point x="153" y="562" type="qcurve" smooth="yes"/>
      <point x="140" y="579"/>
      <point x="126" y="599" type="qcurve" smooth="yes"/>
      <point x="100" y="638"/>
      <point x="75" y="691" type="qcurve" smooth="yes"/>
      <point x="0" y="850"/>
      <point x="0" y="1024" type="qcurve" smooth="yes"/>
      <point x="0" y="1212"/>
      <point x="168" y="1537"/>
    </contour>
    <contour>
      <point x="1740" y="579" type="line"/>
      <point x="1825" y="667"/>
      <point x="1920" y="897"/>
      <point x="1920" y="1024" type="qcurve" smooth="yes"/>
      <point x="1920" y="1169"/>
      <point x="1857" y="1303" type="qcurve" smooth="yes"/>
      <point x="1837" y="1346"/>
      <point x="1814" y="1380" type="qcurve" smooth="yes"/>
      <point x="1806" y="1392"/>
      <point x="1797" y="1404" type="qcurve" smooth="yes"/>
      <point x="1780" y="1424"/>
      <point x="1785" y="1477"/>
      <point x="1825" y="1511"/>
      <point x="1879" y="1506"/>
      <point x="1895" y="1486" type="qcurve" smooth="yes"/>
      <point x="1907" y="1471"/>
      <point x="1922" y="1449" type="qcurve" smooth="yes"/>
      <point x="1948" y="1410"/>
      <point x="1973" y="1357" type="qcurve" smooth="yes"/>
      <point x="2048" y="1198"/>
      <point x="2048" y="1024" type="qcurve" smooth="yes"/>
      <point x="2048" y="871"/>
      <point x="1934" y="595"/>
      <point x="1831" y="489" type="qcurve"/>
    </contour>
    <contour>
      <point x="557" y="1762" type="line"/>
      <point x="662" y="1792"/>
      <point x="768" y="1792" type="qcurve" smooth="yes"/>
      <point x="1446" y="1792" type="line"/>
      <point x="1299" y="1939" type="line" smooth="yes"/>
      <point x="1280" y="1958"/>
      <point x="1280" y="2010"/>
      <point x="1318" y="2048"/>
      <point x="1370" y="2048"/>
      <point x="1389" y="2029" type="qcurve" smooth="yes"/>
      <point x="1645" y="1773" type="line" smooth="yes"/>
      <point x="1664" y="1754"/>
      <point x="1664" y="1702"/>
      <point x="1645" y="1683" type="qcurve" smooth="yes"/>
      <point x="1389" y="1427" type="line" smooth="yes"/>
      <point x="1370" y="1408"/>
      <point x="1318" y="1408"/>
      <point x="1280" y="1446"/>
      <point x="1280" y="1498"/>
      <point x="1299" y="1517" type="qcurve" smooth="yes"/>
      <point x="1446" y="1664" type="line"/>
      <point x="768" y="1664" type="line" smooth="yes"/>
      <point x="713" y="1664"/>
      <point x="664" y="1656" type="qcurve"/>
    </contour>
  </outline>
</glyph>
<glyph name="uniF5EB" format="2">
  <advance width="2048"/>
  <unicode hex="F5EB"/>
  <outline>
    <contour>
      <point x="384" y="1734" type="line" smooth="yes"/>
      <point x="384" y="1816"/>
      <point x="499" y="1926"/>
      <point x="576" y="1926" type="qcurve" smooth="yes"/>
      <point x="627" y="1926"/>
      <point x="670" y="1902" type="qcurve" smooth="yes"/>
      <point x="1943" y="1192" type="line" smooth="yes"/>
      <point x="1991" y="1165"/>
      <point x="2042" y="1075"/>
      <point x="2042" y="973"/>
      <point x="1991" y="883"/>
      <point x="1943" y="856" type="qcurve" smooth="yes"/>
      <point x="1308" y="502" type="line"/>
      <point x="1312" y="542"/>
      <point x="1312" y="576" type="qcurve" smooth="yes"/>
      <point x="1312" y="607"/>
      <point x="1308" y="648" type="qcurve"/>
      <point x="1881" y="968" type="line" smooth="yes"/>
      <point x="1914" y="986"/>
      <point x="1914" y="1062"/>
      <point x="1881" y="1080" type="qcurve" smooth="yes"/>
      <point x="608" y="1790" type="line" smooth="yes"/>
      <point x="576" y="1808"/>
      <point x="512" y="1771"/>
      <point x="512" y="1734" type="qcurve" smooth="yes"/>
      <point x="512" y="1310" type="line"/>
      <point x="449" y="1305"/>
      <point x="384" y="1287" type="qcurve"/>
    </contour>
    <contour>
      <point x="1152" y="420"/>
      <point x="998" y="154"/>
      <point x="732" y="0"/>
      <point x="420" y="0"/>
      <point x="154" y="154"/>
      <point x="0" y="420"/>
      <point x="0" y="732"/>
      <point x="154" y="998"/>
      <point x="420" y="1152"/>
      <point x="732" y="1152"/>
      <point x="998" y="998"/>
      <point x="1152" y="732"/>
    </contour>
    <contour>
      <point x="549" y="896"/>
      <point x="512" y="859"/>
      <point x="512" y="832" type="qcurve" smooth="yes"/>
      <point x="512" y="640" type="line"/>
      <point x="320" y="640" type="line" smooth="yes"/>
      <point x="293" y="640"/>
      <point x="256" y="603"/>
      <point x="256" y="549"/>
      <point x="293" y="512"/>
      <point x="320" y="512" type="qcurve" smooth="yes"/>
      <point x="512" y="512" type="line"/>
      <point x="512" y="320" type="line" smooth="yes"/>
      <point x="512" y="293"/>
      <point x="549" y="256"/>
      <point x="603" y="256"/>
      <point x="640" y="293"/>
      <point x="640" y="320" type="qcurve" smooth="yes"/>
      <point x="640" y="512" type="line"/>
      <point x="832" y="512" type="line" smooth="yes"/>
      <point x="859" y="512"/>
      <point x="896" y="549"/>
      <point x="896" y="603"/>
      <point x="859" y="640"/>
      <point x="832" y="640" type="qcurve" smooth="yes"/>
      <point x="640" y="640" type="line"/>
      <point x="640" y="832" type="line" smooth="yes"/>
      <point x="640" y="859"/>
      <point x="603" y="896"/>
    </contour>
  </outline>
</glyph>
<glyph name="uF0021" format="2">
  <advance width="2048"/>
  <unicode hex="F0021"/>
  <outline>
    <contour>
      <point x="346" y="1792"/>
      <point x="384" y="1754"/>
      <point x="384" y="1702"/>
      <point x="365" y="1683" type="qcurve" smooth="yes"/>
      <point x="218" y="1536" type="line"/>
      <point x="281" y="1535"/>
      <point x="407" y="1521"/>
      <point x="610" y="1471"/>
      <point x="799" y="1390"/>
      <point x="1030" y="1236"/>
      <point x="1133" y="1133" type="qcurve" smooth="yes"/>
      <point x="1136" y="1130"/>
      <point x="1144" y="1122"/>
      <point x="1152" y="1114"/>
      <point x="1155" y="1111" type="qcurve"/>
      <point x="1432" y="1359"/>
      <point x="1705" y="1468" type="qcurve" smooth="yes"/>
      <point x="1805" y="1508"/>
      <point x="1904" y="1527" type="qcurve" smooth="yes"/>
      <point x="1951" y="1536"/>
      <point x="1984" y="1536" type="qcurve" smooth="yes"/>
      <point x="2011" y="1536"/>
      <point x="2048" y="1499"/>
      <point x="2048" y="1472" type="qcurve" smooth="yes"/>
      <point x="2048" y="1446"/>
      <point x="2010" y="1408"/>
      <point x="1984" y="1408" type="qcurve" smooth="yes"/>
      <point x="1966" y="1408"/>
      <point x="1927" y="1401" type="qcurve" smooth="yes"/>
      <point x="1845" y="1386"/>
      <point x="1752" y="1349" type="qcurve" smooth="yes"/>
      <point x="1504" y="1250"/>
      <point x="1249" y="1024" type="qcurve"/>
      <point x="1504" y="798"/>
      <point x="1752" y="699" type="qcurve" smooth="yes"/>
      <point x="1845" y="662"/>
      <point x="1927" y="647" type="qcurve" smooth="yes"/>
      <point x="1966" y="640"/>
      <point x="1984" y="640" type="qcurve" smooth="yes"/>
      <point x="2010" y="640"/>
      <point x="2048" y="602"/>
      <point x="2048" y="576" type="qcurve" smooth="yes"/>
      <point x="2048" y="549"/>
      <point x="2011" y="512"/>
      <point x="1984" y="512" type="qcurve" smooth="yes"/>
      <point x="1951" y="512"/>
      <point x="1904" y="521" type="qcurve" smooth="yes"/>
      <point x="1805" y="540"/>
      <point x="1705" y="580" type="qcurve" smooth="yes"/>
      <point x="1373" y="713"/>
      <point x="1043" y="1043" type="qcurve" smooth="yes"/>
      <point x="950" y="1136"/>
      <point x="742" y="1275"/>
      <point x="571" y="1349"/>
      <point x="389" y="1394"/>
      <point x="275" y="1407"/>
      <point x="218" y="1408" type="qcurve"/>
      <point x="365" y="1261" type="line" smooth="yes"/>
      <point x="384" y="1242"/>
      <point x="384" y="1190"/>
      <point x="346" y="1152"/>
      <point x="294" y="1152"/>
      <point x="275" y="1171" type="qcurve" smooth="yes"/>
      <point x="19" y="1427" type="line" smooth="yes"/>
      <point x="0" y="1446"/>
      <point x="0" y="1498"/>
      <point x="19" y="1517" type="qcurve" smooth="yes"/>
      <point x="275" y="1773" type="line" smooth="yes"/>
      <point x="294" y="1792"/>
    </contour>
    <contour>
      <point x="218" y="512" type="qcurve"/>
      <point x="365" y="365" type="line" smooth="yes"/>
      <point x="384" y="346"/>
      <point x="384" y="294"/>
      <point x="346" y="256"/>
      <point x="294" y="256"/>
      <point x="275" y="275" type="qcurve" smooth="yes"/>
      <point x="19" y="531" type="line" smooth="yes"/>
      <point x="0" y="550"/>
      <point x="0" y="602"/>
      <point x="19" y="621" type="qcurve" smooth="yes"/>
      <point x="275" y="877" type="line" smooth="yes"/>
      <point x="294" y="896"/>
      <point x="346" y="896"/>
      <point x="384" y="858"/>
      <point x="384" y="806"/>
      <point x="365" y="787" type="qcurve" smooth="yes"/>
      <point x="218" y="640" type="line"/>
      <point x="620" y="648"/>
      <point x="944" y="915" type="qcurve"/>
      <point x="984" y="876"/>
      <point x="1038" y="827" type="qcurve"/>
      <point x="944" y="747"/>
      <point x="736" y="628"/>
      <point x="567" y="564"/>
      <point x="388" y="524"/>
      <point x="275" y="513"/>
    </contour>
  </outline>
</glyph>
<glyph name="uF0022" format="2">
  <advance width="2048"/>
  <unicode hex="F0022"/>
  <outline>
    <contour>
      <point x="475" y="1152"/>
      <point x="512" y="1115"/>
      <point x="512" y="1088" type="qcurve" smooth="yes"/>
      <point x="512" y="960" type="line" smooth="yes"/>
      <point x="512" y="933"/>
      <point x="475" y="896"/>
      <point x="421" y="896"/>
      <point x="384" y="933"/>
      <point x="384" y="960" type="qcurve" smooth="yes"/>
      <point x="384" y="1088" type="line" smooth="yes"/>
      <point x="384" y="1115"/>
      <point x="421" y="1152"/>
    </contour>
    <contour>
      <point x="475" y="640"/>
      <point x="512" y="603"/>
      <point x="512" y="576" type="qcurve" smooth="yes"/>
      <point x="512" y="448" type="line" smooth="yes"/>
      <point x="512" y="421"/>
      <point x="475" y="384"/>
      <point x="421" y="384"/>
      <point x="384" y="421"/>
      <point x="384" y="448" type="qcurve" smooth="yes"/>
      <point x="384" y="576" type="line" smooth="yes"/>
      <point x="384" y="603"/>
      <point x="421" y="640"/>
    </contour>
    <contour>
      <point x="90" y="2048"/>
      <point x="109" y="2029" type="qcurve" smooth="yes"/>
      <point x="2029" y="109" type="line" smooth="yes"/>
      <point x="2048" y="90"/>
      <point x="2048" y="38"/>
      <point x="2010" y="0"/>
      <point x="1958" y="0"/>
      <point x="1939" y="19" type="qcurve" smooth="yes"/>
      <point x="1758" y="200" type="line"/>
      <point x="1657" y="128"/>
      <point x="1536" y="128" type="qcurve" smooth="yes"/>
      <point x="512" y="128" type="line" smooth="yes"/>
      <point x="353" y="128"/>
      <point x="128" y="353"/>
      <point x="128" y="512" type="qcurve" smooth="yes"/>
      <point x="128" y="1536" type="line" smooth="yes"/>
      <point x="128" y="1657"/>
      <point x="200" y="1758" type="qcurve"/>
      <point x="19" y="1939" type="line" smooth="yes"/>
      <point x="0" y="1958"/>
      <point x="0" y="2010"/>
      <point x="38" y="2048"/>
    </contour>
    <contour>
      <point x="292" y="1666" type="line"/>
      <point x="256" y="1605"/>
      <point x="256" y="1536" type="qcurve" smooth="yes"/>
      <point x="256" y="512" type="line" smooth="yes"/>
      <point x="256" y="406"/>
      <point x="406" y="256"/>
      <point x="512" y="256" type="qcurve" smooth="yes"/>
      <point x="1536" y="256" type="line" smooth="yes"/>
      <point x="1605" y="256"/>
      <point x="1666" y="292" type="qcurve"/>
      <point x="508" y="1450" type="line"/>
      <point x="501" y="1431"/>
      <point x="468" y="1408"/>
      <point x="448" y="1408" type="qcurve" smooth="yes"/>
      <point x="421" y="1408"/>
      <point x="384" y="1445"/>
      <point x="384" y="1472" type="qcurve" smooth="yes"/>
      <point x="384" y="1574" type="line"/>
    </contour>
    <contour>
      <point x="1792" y="528" type="line"/>
      <point x="1792" y="1536" type="line" smooth="yes"/>
      <point x="1792" y="1642"/>
      <point x="1642" y="1792"/>
      <point x="1536" y="1792" type="qcurve" smooth="yes"/>
      <point x="528" y="1792" type="line"/>
      <point x="413" y="1907" type="line"/>
      <point x="462" y="1920"/>
      <point x="512" y="1920" type="qcurve" smooth="yes"/>
      <point x="1536" y="1920" type="line" smooth="yes"/>
      <point x="1695" y="1920"/>
      <point x="1920" y="1695"/>
      <point x="1920" y="1536" type="qcurve" smooth="yes"/>
      <point x="1920" y="512" type="line" smooth="yes"/>
      <point x="1920" y="462"/>
      <point x="1907" y="413" type="qcurve"/>
    </contour>
    <contour>
      <point x="1627" y="1664"/>
      <point x="1664" y="1627"/>
      <point x="1664" y="1600" type="qcurve" smooth="yes"/>
      <point x="1664" y="1472" type="line" smooth="yes"/>
      <point x="1664" y="1445"/>
      <point x="1627" y="1408"/>
      <point x="1573" y="1408"/>
      <point x="1536" y="1445"/>
      <point x="1536" y="1472" type="qcurve" smooth="yes"/>
      <point x="1536" y="1600" type="line" smooth="yes"/>
      <point x="1536" y="1627"/>
      <point x="1573" y="1664"/>
    </contour>
    <contour>
      <point x="1627" y="1152"/>
      <point x="1664" y="1115"/>
      <point x="1664" y="1088" type="qcurve" smooth="yes"/>
      <point x="1664" y="960" type="line" smooth="yes"/>
      <point x="1664" y="933"/>
      <point x="1627" y="896"/>
      <point x="1573" y="896"/>
      <point x="1536" y="933"/>
      <point x="1536" y="960" type="qcurve" smooth="yes"/>
      <point x="1536" y="1088" type="line" smooth="yes"/>
      <point x="1536" y="1115"/>
      <point x="1573" y="1152"/>
    </contour>
  </outline>
</glyph>
<glyph name="uF002A" format="2">
  <advance width="2048"/>
  <unicode hex="F002A"/>
  <outline>
    <contour>
      <point x="90" y="2048"/>
      <point x="109" y="2029" type="qcurve" smooth="yes"/>
      <point x="2029" y="109" type="line" smooth="yes"/>
      <point x="2048" y="90"/>
      <point x="2048" y="38"/>
      <point x="2010" y="0"/>
      <point x="1958" y="0"/>
      <point x="1939" y="19" type="qcurve" smooth="yes"/>
      <point x="1337" y="621" type="line"/>
      <point x="1162" y="698"/>
      <point x="1010" y="827" type="qcurve"/>
      <point x="1046" y="859"/>
      <point x="1073" y="885" type="qcurve"/>
      <point x="959" y="999" type="line"/>
      <point x="649" y="702"/>
      <point x="343" y="580" type="qcurve" smooth="yes"/>
      <point x="243" y="540"/>
      <point x="144" y="521" type="qcurve" smooth="yes"/>
      <point x="97" y="512"/>
      <point x="64" y="512" type="qcurve" smooth="yes"/>
      <point x="37" y="512"/>
      <point x="0" y="549"/>
      <point x="0" y="576" type="qcurve" smooth="yes"/>
      <point x="0" y="602"/>
      <point x="38" y="640"/>
      <point x="64" y="640" type="qcurve" smooth="yes"/>
      <point x="83" y="640"/>
      <point x="121" y="647" type="qcurve" smooth="yes"/>
      <point x="203" y="662"/>
      <point x="296" y="699" type="qcurve" smooth="yes"/>
      <point x="544" y="798"/>
      <point x="799" y="1024" type="qcurve"/>
      <point x="544" y="1250"/>
      <point x="296" y="1349" type="qcurve" smooth="yes"/>
      <point x="203" y="1386"/>
      <point x="121" y="1401" type="qcurve" smooth="yes"/>
      <point x="83" y="1408"/>
      <point x="64" y="1408" type="qcurve" smooth="yes"/>
      <point x="38" y="1408"/>
      <point x="0" y="1446"/>
      <point x="0" y="1472" type="qcurve" smooth="yes"/>
      <point x="0" y="1499"/>
      <point x="37" y="1536"/>
      <point x="64" y="1536" type="qcurve" smooth="yes"/>
      <point x="97" y="1536"/>
      <point x="144" y="1527" type="qcurve" smooth="yes"/>
      <point x="243" y="1508"/>
      <point x="343" y="1468" type="qcurve" smooth="yes"/>
      <point x="503" y="1404"/>
      <point x="670" y="1288" type="qcurve"/>
      <point x="19" y="1939" type="line" smooth="yes"/>
      <point x="0" y="1958"/>
      <point x="0" y="2010"/>
      <point x="38" y="2048"/>
    </contour>
    <contour>
      <point x="1664" y="655" type="line"/>
      <point x="1743" y="642"/>
      <point x="1830" y="640" type="qcurve"/>
      <point x="1683" y="787" type="line" smooth="yes"/>
      <point x="1664" y="806"/>
      <point x="1664" y="858"/>
      <point x="1702" y="896"/>
      <point x="1754" y="896"/>
      <point x="1773" y="877" type="qcurve" smooth="yes"/>
      <point x="2029" y="621" type="line" smooth="yes"/>
      <point x="2048" y="602"/>
      <point x="2048" y="550"/>
      <point x="2029" y="531" type="qcurve" smooth="yes"/>
      <point x="1909" y="411" type="line"/>
      <point x="1819" y="501" type="line"/>
      <point x="1830" y="512" type="line"/>
      <point x="1826" y="512"/>
      <point x="1810" y="513"/>
      <point x="1807" y="513" type="qcurve" smooth="yes"/>
    </contour>
    <contour>
      <point x="1059" y="1260" type="line"/>
      <point x="1406" y="1528"/>
      <point x="1830" y="1536" type="qcurve"/>
      <point x="1683" y="1683" type="line" smooth="yes"/>
      <point x="1664" y="1702"/>
      <point x="1664" y="1754"/>
      <point x="1702" y="1792"/>
      <point x="1754" y="1792"/>
      <point x="1773" y="1773" type="qcurve" smooth="yes"/>
      <point x="2029" y="1517" type="line" smooth="yes"/>
      <point x="2048" y="1498"/>
      <point x="2048" y="1446"/>
      <point x="2029" y="1427" type="qcurve" smooth="yes"/>
      <point x="1773" y="1171" type="line" smooth="yes"/>
      <point x="1754" y="1152"/>
      <point x="1702" y="1152"/>
      <point x="1664" y="1190"/>
      <point x="1664" y="1242"/>
      <point x="1683" y="1261" type="qcurve" smooth="yes"/>
      <point x="1830" y="1408" type="line"/>
      <point x="1457" y="1400"/>
      <point x="1150" y="1170" type="qcurve"/>
    </contour>
  </outline>
</glyph>
<glyph name="uF002B" format="2">
  <advance width="2048"/>
  <unicode hex="F002B"/>
  <outline>
    <contour>
      <point x="90" y="2048"/>
      <point x="109" y="2029" type="qcurve" smooth="yes"/>
      <point x="2029" y="109" type="line" smooth="yes"/>
      <point x="2048" y="90"/>
      <point x="2048" y="38"/>
      <point x="2010" y="0"/>
      <point x="1958" y="0"/>
      <point x="1939" y="19" type="qcurve" smooth="yes"/>
      <point x="640" y="1318" type="line"/>
      <point x="437" y="1404"/>
      <point x="218" y="1408" type="qcurve"/>
      <point x="365" y="1261" type="line" smooth="yes"/>
      <point x="384" y="1242"/>
      <point x="384" y="1190"/>
      <point x="346" y="1152"/>
      <point x="294" y="1152"/>
      <point x="275" y="1171" type="qcurve" smooth="yes"/>
      <point x="19" y="1427" type="line" smooth="yes"/>
      <point x="0" y="1446"/>
      <point x="0" y="1498"/>
      <point x="19" y="1517" type="qcurve" smooth="yes"/>
      <point x="230" y="1728" type="line"/>
      <point x="19" y="1939" type="line" smooth="yes"/>
      <point x="0" y="1958"/>
      <point x="0" y="2010"/>
      <point x="38" y="2048"/>
    </contour>
    <contour>
      <point x="320" y="1638" type="line"/>
      <point x="218" y="1536" type="line"/>
      <point x="334" y="1534"/>
      <point x="447" y="1511" type="qcurve"/>
    </contour>
    <contour>
      <point x="1274" y="1046" type="qcurve"/>
      <point x="1183" y="1136" type="line"/>
      <point x="1446" y="1364"/>
      <point x="1705" y="1468" type="qcurve" smooth="yes"/>
      <point x="1805" y="1508"/>
      <point x="1904" y="1527" type="qcurve" smooth="yes"/>
      <point x="1951" y="1536"/>
      <point x="1984" y="1536" type="qcurve" smooth="yes"/>
      <point x="2011" y="1536"/>
      <point x="2048" y="1499"/>
      <point x="2048" y="1472" type="qcurve" smooth="yes"/>
      <point x="2048" y="1446"/>
      <point x="2010" y="1408"/>
      <point x="1984" y="1408" type="qcurve" smooth="yes"/>
      <point x="1965" y="1408"/>
      <point x="1927" y="1401" type="qcurve" smooth="yes"/>
      <point x="1845" y="1386"/>
      <point x="1752" y="1349" type="qcurve" smooth="yes"/>
      <point x="1516" y="1255"/>
    </contour>
    <contour>
      <point x="1760" y="559" type="qcurve"/>
      <point x="1463" y="856" type="line"/>
      <point x="1610" y="756"/>
      <point x="1752" y="699" type="qcurve" smooth="yes"/>
      <point x="1845" y="662"/>
      <point x="1927" y="647" type="qcurve" smooth="yes"/>
      <point x="1965" y="640"/>
      <point x="1984" y="640" type="qcurve" smooth="yes"/>
      <point x="2010" y="640"/>
      <point x="2048" y="602"/>
      <point x="2048" y="576" type="qcurve" smooth="yes"/>
      <point x="2048" y="549"/>
      <point x="2011" y="512"/>
      <point x="1984" y="512" type="qcurve" smooth="yes"/>
      <point x="1951" y="512"/>
      <point x="1904" y="521" type="qcurve" smooth="yes"/>
      <point x="1828" y="536"/>
    </contour>
    <contour>
      <point x="218" y="512" type="qcurve"/>
      <point x="365" y="365" type="line" smooth="yes"/>
      <point x="384" y="346"/>
      <point x="384" y="294"/>
      <point x="346" y="256"/>
      <point x="294" y="256"/>
      <point x="275" y="275" type="qcurve" smooth="yes"/>
      <point x="19" y="531" type="line" smooth="yes"/>
      <point x="0" y="550"/>
      <point x="0" y="602"/>
      <point x="19" y="621" type="qcurve" smooth="yes"/>
      <point x="275" y="877" type="line" smooth="yes"/>
      <point x="294" y="896"/>
      <point x="346" y="896"/>
      <point x="384" y="858"/>
      <point x="384" y="806"/>
      <point x="365" y="787" type="qcurve" smooth="yes"/>
      <point x="218" y="640" type="line"/>
      <point x="620" y="648"/>
      <point x="944" y="915" type="qcurve"/>
      <point x="984" y="876"/>
      <point x="1038" y="827" type="qcurve"/>
      <point x="944" y="747"/>
      <point x="736" y="628"/>
      <point x="567" y="564"/>
      <point x="388" y="524"/>
      <point x="275" y="513"/>
    </contour>
  </outline>
</glyph>
<glyph name="uF0036" format="2">
  <advance width="2048"/>
  <unicode hex="F0036"/>
  <outline>
    <contour>
      <point x="90" y="2048"/>
      <point x="109" y="2029" type="qcurve" smooth="yes"/>
      <point x="2029" y="109" type="line" smooth="yes"/>
      <point x="2048" y="90"/>
      <point x="2048" y="38"/>
      <point x="2010" y="0"/>
      <point x="1958" y="0"/>
      <point x="1939" y="19" type="qcurve" smooth="yes"/>
      <point x="1716" y="242" type="line"/>
      <point x="1671" y="189"/>
      <point x="1544" y="128"/>
      <point x="1472" y="128" type="qcurve" smooth="yes"/>
      <point x="1339" y="128"/>
      <point x="1152" y="315"/>
      <point x="1152" y="448" type="qcurve" smooth="yes"/>
      <point x="1152" y="520"/>
      <point x="1213" y="647"/>
      <point x="1266" y="692" type="qcurve"/>
      <point x="826" y="1132" type="line"/>
      <point x="768" y="1110" type="line"/>
      <point x="768" y="320" type="line" smooth="yes"/>
      <point x="768" y="187"/>
      <point x="581" y="0"/>
      <point x="315" y="0"/>
      <point x="128" y="187"/>
      <point x="128" y="453"/>
      <point x="315" y="640"/>
      <point x="448" y="640" type="qcurve" smooth="yes"/>
      <point x="555" y="640"/>
      <point x="640" y="576" type="qcurve"/>
      <point x="640" y="1318" type="line"/>
      <point x="19" y="1939" type="line" smooth="yes"/>
      <point x="0" y="1958"/>
      <point x="0" y="2010"/>
      <point x="38" y="2048"/>
    </contour>
    <contour>
      <point x="1357" y="601" type="line"/>
      <point x="1280" y="543"/>
      <point x="1280" y="448" type="qcurve" smooth="yes"/>
      <point x="1280" y="368"/>
      <point x="1392" y="256"/>
      <point x="1472" y="256" type="qcurve" smooth="yes"/>
      <point x="1567" y="256"/>
      <point x="1625" y="333" type="qcurve"/>
    </contour>
    <contour>
      <point x="368" y="512"/>
      <point x="256" y="400"/>
      <point x="256" y="240"/>
      <point x="368" y="128"/>
      <point x="528" y="128"/>
      <point x="640" y="240"/>
      <point x="640" y="400"/>
      <point x="528" y="512"/>
    </contour>
    <contour>
      <point x="1664" y="1580" type="line"/>
      <point x="1664" y="1892" type="line"/>
      <point x="768" y="1558" type="line"/>
      <point x="768" y="1551" type="line"/>
      <point x="670" y="1649" type="line"/>
      <point x="685" y="1663"/>
      <point x="703" y="1670" type="qcurve" smooth="yes"/>
      <point x="1663" y="2028" type="line" smooth="yes"/>
      <point x="1679" y="2034"/>
      <point x="1696" y="2034" type="qcurve" smooth="yes"/>
      <point x="1735" y="2034"/>
      <point x="1792" y="1979"/>
      <point x="1792" y="1938" type="qcurve" smooth="yes"/>
      <point x="1792" y="528" type="line"/>
      <point x="1566" y="754" type="line"/>
      <point x="1619" y="738"/>
      <point x="1664" y="704" type="qcurve"/>
      <point x="1664" y="1444" type="line"/>
      <point x="1090" y="1230" type="line"/>
      <point x="991" y="1329" type="line"/>
    </contour>
  </outline>
</glyph>
<glyph name="uF003F" format="2">
  <advance width="2048"/>
  <unicode hex="F003F"/>
  <outline>
    <contour>
      <point x="320" y="1920" type="qcurve" smooth="yes"/>
      <point x="702" y="1920" type="line" smooth="yes"/>
      <point x="777" y="1920"/>
      <point x="911" y="1853"/>
      <point x="956" y="1794" type="qcurve" smooth="yes"/>
      <point x="1055" y="1664" type="line"/>
      <point x="1728" y="1664" type="line" smooth="yes"/>
      <point x="1861" y="1664"/>
      <point x="2048" y="1477"/>
      <point x="2048" y="1344" type="qcurve" smooth="yes"/>
      <point x="2048" y="448" type="line" smooth="yes"/>
      <point x="2048" y="315"/>
      <point x="1861" y="128"/>
      <point x="1728" y="128" type="qcurve" smooth="yes"/>
      <point x="1160" y="128" type="line"/>
      <point x="1206" y="188"/>
      <point x="1239" y="256" type="qcurve"/>
      <point x="1728" y="256" type="line" smooth="yes"/>
      <point x="1808" y="256"/>
      <point x="1920" y="368"/>
      <point x="1920" y="448" type="qcurve" smooth="yes"/>
      <point x="1920" y="1344" type="line" smooth="yes"/>
      <point x="1920" y="1424"/>
      <point x="1808" y="1536"/>
      <point x="1728" y="1536" type="qcurve" smooth="yes"/>
      <point x="1043" y="1536" type="line"/>
      <point x="927" y="1460" type="line" smooth="yes"/>
      <point x="847" y="1408"/>
      <point x="752" y="1408" type="qcurve" smooth="yes"/>
      <point x="128" y="1408" type="line"/>
      <point x="128" y="1160" type="line"/>
      <point x="57" y="1105"/>
      <point x="0" y="1034" type="qcurve"/>
      <point x="0" y="1600" type="line" smooth="yes"/>
      <point x="0" y="1733"/>
      <point x="187" y="1920"/>
    </contour>
    <contour>
      <point x="854" y="1717" type="line" smooth="yes"/>
      <point x="797" y="1792"/>
      <point x="702" y="1792" type="qcurve" smooth="yes"/>
      <point x="320" y="1792" type="line" smooth="yes"/>
      <point x="240" y="1792"/>
      <point x="128" y="1680"/>
      <point x="128" y="1600" type="qcurve" smooth="yes"/>
      <point x="128" y="1536" type="line"/>
      <point x="752" y="1536" type="line" smooth="yes"/>
      <point x="810" y="1536"/>
      <point x="857" y="1567" type="qcurve" smooth="yes"/>
      <point x="931" y="1616" type="line"/>
    </contour>
    <contour>
      <point x="0" y="732"/>
      <point x="154" y="998"/>
      <point x="420" y="1152"/>
      <point x="732" y="1152"/>
      <point x="998" y="998"/>
      <point x="1152" y="732"/>
      <point x="1152" y="420"/>
      <point x="998" y="154"/>
      <point x="732" y="0"/>
      <point x="420" y="0"/>
      <point x="154" y="154"/>
      <point x="0" y="420"/>
    </contour>
    <contour>
      <point x="549" y="896"/>
      <point x="512" y="859"/>
      <point x="512" y="832" type="qcurve" smooth="yes"/>
      <point x="512" y="640" type="line"/>
      <point x="320" y="640" type="line" smooth="yes"/>
      <point x="293" y="640"/>
      <point x="256" y="603"/>
      <point x="256" y="549"/>
      <point x="293" y="512"/>
      <point x="320" y="512" type="qcurve" smooth="yes"/>
      <point x="512" y="512" type="line"/>
      <point x="512" y="320" type="line" smooth="yes"/>
      <point x="512" y="293"/>
      <point x="549" y="256"/>
      <point x="603" y="256"/>
      <point x="640" y="293"/>
      <point x="640" y="320" type="qcurve" smooth="yes"/>
      <point x="640" y="512" type="line"/>
      <point x="832" y="512" type="line" smooth="yes"/>
      <point x="859" y="512"/>
      <point x="896" y="549"/>
      <point x="896" y="603"/>
      <point x="859" y="640"/>
      <point x="832" y="640" type="qcurve" smooth="yes"/>
      <point x="640" y="640" type="line"/>
      <point x="640" y="832" type="line" smooth="yes"/>
      <point x="640" y="859"/>
      <point x="603" y="896"/>
    </contour>
  </outline>
</glyph>
<glyph name="uF004D" format="2">
  <advance width="2048"/>
  <unicode hex="F004D"/>
  <outline>
    <contour>
      <point x="1831" y="1508"/>
      <point x="1884" y="1499"/>
      <point x="1900" y="1478" type="qcurve" smooth="yes"/>
      <point x="2048" y="1276"/>
      <point x="2048" y="1024" type="qcurve" smooth="yes"/>
      <point x="2048" y="815"/>
      <point x="1842" y="462"/>
      <point x="1489" y="256"/>
      <point x="1280" y="256" type="qcurve" smooth="yes"/>
      <point x="602" y="256" type="line"/>
      <point x="749" y="109" type="line" smooth="yes"/>
      <point x="768" y="90"/>
      <point x="768" y="38"/>
      <point x="730" y="0"/>
      <point x="678" y="0"/>
      <point x="659" y="19" type="qcurve" smooth="yes"/>
      <point x="403" y="275" type="line" smooth="yes"/>
      <point x="384" y="294"/>
      <point x="384" y="346"/>
      <point x="403" y="365" type="qcurve" smooth="yes"/>
      <point x="659" y="621" type="line" smooth="yes"/>
      <point x="678" y="640"/>
      <point x="730" y="640"/>
      <point x="768" y="602"/>
      <point x="768" y="550"/>
      <point x="749" y="531" type="qcurve" smooth="yes"/>
      <point x="602" y="384" type="line"/>
      <point x="1280" y="384" type="line" smooth="yes"/>
      <point x="1410" y="384"/>
      <point x="1647" y="485"/>
      <point x="1819" y="657"/>
      <point x="1920" y="894"/>
      <point x="1920" y="1024" type="qcurve" smooth="yes"/>
      <point x="1920" y="1233"/>
      <point x="1796" y="1402" type="qcurve" smooth="yes"/>
      <point x="1780" y="1423"/>
      <point x="1789" y="1476"/>
    </contour>
    <contour>
      <point x="146" y="875" type="qcurve"/>
      <point x="176" y="749"/>
      <point x="252" y="646" type="qcurve" smooth="yes"/>
      <point x="268" y="625"/>
      <point x="259" y="572"/>
      <point x="217" y="540"/>
      <point x="164" y="549"/>
      <point x="148" y="570" type="qcurve" smooth="yes"/>
      <point x="3" y="767"/>
      <point x="0" y="1014" type="qcurve"/>
      <point x="63" y="935"/>
    </contour>
    <contour>
      <point x="1370" y="2048"/>
      <point x="1389" y="2029" type="qcurve" smooth="yes"/>
      <point x="1645" y="1773" type="line" smooth="yes"/>
      <point x="1664" y="1754"/>
      <point x="1664" y="1702"/>
      <point x="1645" y="1683" type="qcurve" smooth="yes"/>
      <point x="1389" y="1427" type="line" smooth="yes"/>
      <point x="1370" y="1408"/>
      <point x="1344" y="1408" type="qcurve" smooth="yes"/>
      <point x="1326" y="1408"/>
      <point x="1310" y="1418" type="qcurve"/>
      <point x="1312" y="1446"/>
      <point x="1312" y="1472" type="qcurve" smooth="yes"/>
      <point x="1312" y="1501"/>
      <point x="1310" y="1528" type="qcurve"/>
      <point x="1446" y="1664" type="line"/>
      <point x="1287" y="1664" type="line"/>
      <point x="1269" y="1729"/>
      <point x="1239" y="1792" type="qcurve"/>
      <point x="1446" y="1792" type="line"/>
      <point x="1299" y="1939" type="line" smooth="yes"/>
      <point x="1280" y="1958"/>
      <point x="1280" y="2010"/>
      <point x="1318" y="2048"/>
    </contour>
    <contour>
      <point x="0" y="1628"/>
      <point x="154" y="1894"/>
      <point x="420" y="2048"/>
      <point x="732" y="2048"/>
      <point x="998" y="1894"/>
      <point x="1152" y="1628"/>
      <point x="1152" y="1316"/>
      <point x="998" y="1050"/>
      <point x="732" y="896"/>
      <point x="420" y="896"/>
      <point x="154" y="1050"/>
      <point x="0" y="1316"/>
    </contour>
    <contour>
      <point x="640" y="1728" type="line" smooth="yes"/>
      <point x="640" y="1771"/>
      <point x="601" y="1787" type="qcurve" smooth="yes"/>
      <point x="561" y="1803"/>
      <point x="531" y="1773" type="qcurve" smooth="yes"/>
      <point x="403" y="1645" type="line" smooth="yes"/>
      <point x="384" y="1626"/>
      <point x="384" y="1574"/>
      <point x="422" y="1536"/>
      <point x="474" y="1536"/>
      <point x="493" y="1555" type="qcurve" smooth="yes"/>
      <point x="512" y="1573" type="line"/>
      <point x="512" y="1216" type="line" smooth="yes"/>
      <point x="512" y="1189"/>
      <point x="549" y="1152"/>
      <point x="603" y="1152"/>
      <point x="640" y="1189"/>
      <point x="640" y="1216" type="qcurve" smooth="yes"/>
    </contour>
  </outline>
</glyph>
<glyph name="uF004E" format="2">
  <advance width="2048"/>
  <unicode hex="F004E"/>
  <outline>
    <contour>
      <point x="659" y="2029" type="line" smooth="yes"/>
      <point x="678" y="2048"/>
      <point x="730" y="2048"/>
      <point x="768" y="2010"/>
      <point x="768" y="1958"/>
      <point x="749" y="1939" type="qcurve" smooth="yes"/>
      <point x="602" y="1792" type="line"/>
      <point x="1280" y="1792" type="line" smooth="yes"/>
      <point x="1489" y="1792"/>
      <point x="1842" y="1586"/>
      <point x="2048" y="1233"/>
      <point x="2048" y="1024" type="qcurve" smooth="yes"/>
      <point x="2048" y="850"/>
      <point x="1973" y="691" type="qcurve" smooth="yes"/>
      <point x="1948" y="638"/>
      <point x="1922" y="599" type="qcurve" smooth="yes"/>
      <point x="1908" y="579"/>
      <point x="1895" y="562" type="qcurve" smooth="yes"/>
      <point x="1879" y="542"/>
      <point x="1825" y="537"/>
      <point x="1785" y="571"/>
      <point x="1781" y="624"/>
      <point x="1797" y="644" type="qcurve" smooth="yes"/>
      <point x="1803" y="652"/>
      <point x="1814" y="668" type="qcurve" smooth="yes"/>
      <point x="1837" y="703"/>
      <point x="1857" y="745" type="qcurve" smooth="yes"/>
      <point x="1920" y="879"/>
      <point x="1920" y="1024" type="qcurve" smooth="yes"/>
      <point x="1920" y="1154"/>
      <point x="1819" y="1391"/>
      <point x="1647" y="1563"/>
      <point x="1410" y="1664"/>
      <point x="1280" y="1664" type="qcurve" smooth="yes"/>
      <point x="602" y="1664" type="line"/>
      <point x="749" y="1517" type="line" smooth="yes"/>
      <point x="768" y="1498"/>
      <point x="768" y="1446"/>
      <point x="730" y="1408"/>
      <point x="678" y="1408"/>
      <point x="659" y="1427" type="qcurve" smooth="yes"/>
      <point x="403" y="1683" type="line" smooth="yes"/>
      <point x="384" y="1702"/>
      <point x="384" y="1754"/>
      <point x="403" y="1773" type="qcurve" smooth="yes"/>
    </contour>
    <contour>
      <point x="263" y="1477"/>
      <point x="268" y="1424"/>
      <point x="251" y="1404" type="qcurve" smooth="yes"/>
      <point x="242" y="1392"/>
      <point x="234" y="1380" type="qcurve" smooth="yes"/>
      <point x="211" y="1345"/>
      <point x="191" y="1303" type="qcurve" smooth="yes"/>
      <point x="128" y="1169"/>
      <point x="128" y="1024" type="qcurve" smooth="yes"/>
      <point x="128" y="894"/>
      <point x="229" y="657"/>
      <point x="401" y="485"/>
      <point x="638" y="384"/>
      <point x="768" y="384" type="qcurve" smooth="yes"/>
      <point x="1446" y="384" type="line"/>
      <point x="1299" y="531" type="line" smooth="yes"/>
      <point x="1280" y="550"/>
      <point x="1280" y="602"/>
      <point x="1318" y="640"/>
      <point x="1370" y="640"/>
      <point x="1389" y="621" type="qcurve" smooth="yes"/>
      <point x="1645" y="365" type="line" smooth="yes"/>
      <point x="1664" y="346"/>
      <point x="1664" y="294"/>
      <point x="1645" y="275" type="qcurve" smooth="yes"/>
      <point x="1389" y="19" type="line" smooth="yes"/>
      <point x="1370" y="0"/>
      <point x="1318" y="0"/>
      <point x="1280" y="38"/>
      <point x="1280" y="90"/>
      <point x="1299" y="109" type="qcurve" smooth="yes"/>
      <point x="1446" y="256" type="line"/>
      <point x="768" y="256" type="line" smooth="yes"/>
      <point x="559" y="256"/>
      <point x="206" y="462"/>
      <point x="0" y="815"/>
      <point x="0" y="1024" type="qcurve" smooth="yes"/>
      <point x="0" y="1198"/>
      <point x="75" y="1357" type="qcurve" smooth="yes"/>
      <point x="100" y="1410"/>
      <point x="126" y="1449" type="qcurve" smooth="yes"/>
      <point x="129" y="1454"/>
      <point x="153" y="1486" type="qcurve" smooth="yes"/>
      <point x="169" y="1506"/>
      <point x="223" y="1511"/>
    </contour>
  </outline>
</glyph>
<glyph name="uF006F" format="2">
  <advance width="2048"/>
  <unicode hex="F006F"/>
  <outline>
    <contour>
      <point x="1306" y="1958" type="line" smooth="yes"/>
      <point x="1306" y="1992"/>
      <point x="1354" y="2037"/>
      <point x="1386" y="2037" type="qcurve" smooth="yes"/>
      <point x="1407" y="2037"/>
      <point x="1425" y="2027" type="qcurve" smooth="yes"/>
      <point x="1951" y="1734" type="line" smooth="yes"/>
      <point x="1992" y="1711"/>
      <point x="1992" y="1617"/>
      <point x="1951" y="1594" type="qcurve" smooth="yes"/>
      <point x="1425" y="1301" type="line" smooth="yes"/>
      <point x="1407" y="1291"/>
      <point x="1386" y="1291" type="qcurve" smooth="yes"/>
      <point x="1354" y="1291"/>
      <point x="1306" y="1336"/>
      <point x="1306" y="1370" type="qcurve" smooth="yes"/>
    </contour>
    <contour>
      <point x="0" y="1627"/>
      <point x="37" y="1664"/>
      <point x="64" y="1664" type="qcurve" smooth="yes"/>
      <point x="1114" y="1664" type="line" smooth="yes"/>
      <point x="1141" y="1664"/>
      <point x="1178" y="1627"/>
      <point x="1178" y="1573"/>
      <point x="1141" y="1536"/>
      <point x="1114" y="1536" type="qcurve" smooth="yes"/>
      <point x="64" y="1536" type="line" smooth="yes"/>
      <point x="37" y="1536"/>
      <point x="0" y="1573"/>
    </contour>
    <contour>
      <point x="0" y="1115"/>
      <point x="37" y="1152"/>
      <point x="64" y="1152" type="qcurve" smooth="yes"/>
      <point x="1984" y="1152" type="line" smooth="yes"/>
      <point x="2011" y="1152"/>
      <point x="2048" y="1115"/>
      <point x="2048" y="1061"/>
      <point x="2011" y="1024"/>
      <point x="1984" y="1024" type="qcurve" smooth="yes"/>
      <point x="64" y="1024" type="line" smooth="yes"/>
      <point x="37" y="1024"/>
      <point x="0" y="1061"/>
    </contour>
    <contour>
      <point x="0" y="603"/>
      <point x="37" y="640"/>
      <point x="64" y="640" type="qcurve" smooth="yes"/>
      <point x="1984" y="640" type="line" smooth="yes"/>
      <point x="2011" y="640"/>
      <point x="2048" y="603"/>
      <point x="2048" y="549"/>
      <point x="2011" y="512"/>
      <point x="1984" y="512" type="qcurve" smooth="yes"/>
      <point x="64" y="512" type="line" smooth="yes"/>
      <point x="37" y="512"/>
      <point x="0" y="549"/>
    </contour>
  </outline>
</glyph>
<glyph name="uF00A4" format="2">
  <advance width="2048"/>
  <unicode hex="F00A4"/>
  <outline>
    <contour>
      <point x="691" y="1741" type="qcurve"/>
      <point x="851" y="1792"/>
      <point x="1024" y="1792" type="qcurve" smooth="yes"/>
      <point x="1168" y="1792"/>
      <point x="1436" y="1722"/>
      <point x="1641" y="1605"/>
      <point x="1814" y="1463"/>
      <point x="1940" y="1305"/>
      <point x="2021" y="1170"/>
      <point x="2044" y="1111" type="qcurve" smooth="yes"/>
      <point x="2048" y="1101"/>
      <point x="2048" y="1088" type="qcurve" smooth="yes"/>
      <point x="2048" y="1044"/>
      <point x="2007" y="1028" type="qcurve" smooth="yes"/>
      <point x="1997" y="1024"/>
      <point x="1984" y="1024" type="qcurve" smooth="yes"/>
      <point x="1940" y="1024"/>
      <point x="1924" y="1065" type="qcurve" smooth="yes"/>
      <point x="1904" y="1118"/>
      <point x="1866" y="1180" type="qcurve"/>
      <point x="1634" y="1034" type="line" smooth="yes"/>
      <point x="1612" y="1020"/>
      <point x="1560" y="1032"/>
      <point x="1532" y="1076"/>
      <point x="1544" y="1128"/>
      <point x="1566" y="1142" type="qcurve" smooth="yes"/>
      <point x="1793" y="1284" type="line"/>
      <point x="1737" y="1354"/>
      <point x="1603" y="1474"/>
      <point x="1428" y="1584"/>
      <point x="1208" y="1654"/>
      <point x="1088" y="1662" type="qcurve"/>
      <point x="1088" y="1344" type="line" smooth="yes"/>
      <point x="1088" y="1317"/>
      <point x="1051" y="1280"/>
      <point x="997" y="1280"/>
      <point x="960" y="1317"/>
      <point x="960" y="1344" type="qcurve" smooth="yes"/>
      <point x="960" y="1662" type="line"/>
      <point x="866" y="1656"/>
      <point x="775" y="1632" type="qcurve"/>
      <point x="694" y="1738" type="line" smooth="yes"/>
      <point x="692" y="1740"/>
    </contour>
    <contour>
      <point x="312" y="1527" type="qcurve"/>
      <point x="354" y="1392" type="line"/>
      <point x="301" y="1341"/>
      <point x="255" y="1284" type="qcurve"/>
      <point x="482" y="1142" type="line" smooth="yes"/>
      <point x="504" y="1128"/>
      <point x="516" y="1076"/>
      <point x="488" y="1032"/>
      <point x="436" y="1020"/>
      <point x="414" y="1034" type="qcurve" smooth="yes"/>
      <point x="182" y="1180" type="line"/>
      <point x="144" y="1118"/>
      <point x="124" y="1065" type="qcurve" smooth="yes"/>
      <point x="108" y="1024"/>
      <point x="64" y="1024" type="qcurve" smooth="yes"/>
      <point x="51" y="1024"/>
      <point x="41" y="1028" type="qcurve" smooth="yes"/>
      <point x="0" y="1044"/>
      <point x="0" y="1088" type="qcurve" smooth="yes"/>
      <point x="0" y="1101"/>
      <point x="4" y="1111" type="qcurve" smooth="yes"/>
      <point x="39" y="1204"/>
      <point x="198" y="1429"/>
    </contour>
    <contour>
      <point x="521" y="1668" type="qcurve" smooth="yes"/>
      <point x="553" y="1668"/>
      <point x="572" y="1643" type="qcurve" smooth="yes"/>
      <point x="1226" y="799" type="line" smooth="yes"/>
      <point x="1280" y="729"/>
      <point x="1280" y="642" type="qcurve" smooth="yes"/>
      <point x="1280" y="571"/>
      <point x="1208" y="447"/>
      <point x="1144" y="413" type="qcurve" smooth="yes"/>
      <point x="1089" y="384"/>
      <point x="1030" y="384" type="qcurve" smooth="yes"/>
      <point x="943" y="384"/>
      <point x="805" y="484"/>
      <point x="779" y="566" type="qcurve" smooth="yes"/>
      <point x="458" y="1584" type="line" smooth="yes"/>
      <point x="455" y="1594"/>
      <point x="455" y="1603" type="qcurve" smooth="yes"/>
      <point x="455" y="1642"/>
      <point x="490" y="1660" type="qcurve" smooth="yes"/>
      <point x="505" y="1668"/>
    </contour>
    <contour>
      <point x="687" y="1285" type="line"/>
      <point x="900" y="602" type="line" smooth="yes"/>
      <point x="918" y="545"/>
      <point x="1031" y="498"/>
      <point x="1137" y="554"/>
      <point x="1164" y="674"/>
      <point x="1127" y="721" type="qcurve" smooth="yes"/>
    </contour>
  </outline>
</glyph>
<glyph name="uF00A8" format="2">
  <advance width="2048"/>
  <unicode hex="F00A8"/>
  <outline>
    <contour>
      <point x="128" y="1408" type="line" smooth="yes"/>
      <point x="128" y="1567"/>
      <point x="353" y="1792"/>
      <point x="512" y="1792" type="qcurve" smooth="yes"/>
      <point x="1536" y="1792" type="line" smooth="yes"/>
      <point x="1695" y="1792"/>
      <point x="1920" y="1567"/>
      <point x="1920" y="1408" type="qcurve" smooth="yes"/>
      <point x="1920" y="384" type="line" smooth="yes"/>
      <point x="1920" y="225"/>
      <point x="1695" y="0"/>
      <point x="1536" y="0" type="qcurve" smooth="yes"/>
      <point x="512" y="0" type="line" smooth="yes"/>
      <point x="353" y="0"/>
      <point x="128" y="225"/>
      <point x="128" y="384" type="qcurve" smooth="yes"/>
    </contour>
    <contour>
      <point x="256" y="1408" type="qcurve" smooth="yes"/>
      <point x="256" y="384" type="line" smooth="yes"/>
      <point x="256" y="278"/>
      <point x="406" y="128"/>
      <point x="512" y="128" type="qcurve" smooth="yes"/>
      <point x="1536" y="128" type="line" smooth="yes"/>
      <point x="1642" y="128"/>
      <point x="1792" y="278"/>
      <point x="1792" y="384" type="qcurve" smooth="yes"/>
      <point x="1792" y="1408" type="line" smooth="yes"/>
      <point x="1792" y="1514"/>
      <point x="1642" y="1664"/>
      <point x="1536" y="1664" type="qcurve" smooth="yes"/>
      <point x="512" y="1664" type="line" smooth="yes"/>
      <point x="406" y="1664"/>
      <point x="256" y="1514"/>
    </contour>
    <contour>
      <point x="384" y="2011"/>
      <point x="421" y="2048"/>
      <point x="448" y="2048" type="qcurve" smooth="yes"/>
      <point x="1600" y="2048" type="line" smooth="yes"/>
      <point x="1627" y="2048"/>
      <point x="1664" y="2011"/>
      <point x="1664" y="1957"/>
      <point x="1627" y="1920"/>
      <point x="1600" y="1920" type="qcurve" smooth="yes"/>
      <point x="448" y="1920" type="line" smooth="yes"/>
      <point x="421" y="1920"/>
      <point x="384" y="1957"/>
    </contour>
    <contour>
      <point x="640" y="1184" type="line" smooth="yes"/>
      <point x="640" y="1243"/>
      <point x="715" y="1332"/>
      <point x="820" y="1351"/>
      <point x="876" y="1325" type="qcurve"/>
      <point x="1402" y="1037" type="line" smooth="yes"/>
      <point x="1456" y="1008"/>
      <point x="1496" y="896"/>
      <point x="1456" y="784"/>
      <point x="1402" y="755" type="qcurve" smooth="yes"/>
      <point x="876" y="467" type="line"/>
      <point x="820" y="441"/>
      <point x="715" y="460"/>
      <point x="640" y="549"/>
      <point x="640" y="608" type="qcurve" smooth="yes"/>
    </contour>
    <contour>
      <point x="768" y="1184" type="qcurve" smooth="yes"/>
      <point x="768" y="608" type="line" smooth="yes"/>
      <point x="768" y="590"/>
      <point x="800" y="571"/>
      <point x="816" y="580" type="qcurve" smooth="yes"/>
      <point x="1342" y="868" type="line" smooth="yes"/>
      <point x="1359" y="877"/>
      <point x="1359" y="915"/>
      <point x="1342" y="924" type="qcurve" smooth="yes"/>
      <point x="816" y="1212" type="line" smooth="yes"/>
      <point x="800" y="1221"/>
      <point x="768" y="1202"/>
    </contour>
  </outline>
</glyph>
<glyph name="uF00A9" format="2">
  <advance width="2048"/>
  <unicode hex="F00A9"/>
  <outline>
    <contour>
      <point x="128" y="1408" type="line" smooth="yes"/>
      <point x="128" y="1493"/>
      <point x="198" y="1644"/>
      <point x="260" y="1698" type="qcurve"/>
      <point x="19" y="1939" type="line" smooth="yes"/>
      <point x="0" y="1958"/>
      <point x="0" y="2010"/>
      <point x="38" y="2048"/>
      <point x="90" y="2048"/>
      <point x="109" y="2029" type="qcurve" smooth="yes"/>
      <point x="2029" y="109" type="line" smooth="yes"/>
      <point x="2048" y="90"/>
      <point x="2048" y="38"/>
      <point x="2010" y="0"/>
      <point x="1958" y="0"/>
      <point x="1939" y="19" type="qcurve" smooth="yes"/>
      <point x="1826" y="132" type="line"/>
      <point x="1772" y="70"/>
      <point x="1621" y="0"/>
      <point x="1536" y="0" type="qcurve" smooth="yes"/>
      <point x="512" y="0" type="line" smooth="yes"/>
      <point x="353" y="0"/>
      <point x="128" y="225"/>
      <point x="128" y="384" type="qcurve" smooth="yes"/>
    </contour>
    <contour>
      <point x="351" y="1607" type="line"/>
      <point x="256" y="1530"/>
      <point x="256" y="1408" type="qcurve" smooth="yes"/>
      <point x="256" y="384" type="line" smooth="yes"/>
      <point x="256" y="278"/>
      <point x="406" y="128"/>
      <point x="512" y="128" type="qcurve" smooth="yes"/>
      <point x="1536" y="128" type="line" smooth="yes"/>
      <point x="1658" y="128"/>
      <point x="1735" y="223" type="qcurve"/>
      <point x="1273" y="685" type="line"/>
      <point x="876" y="467" type="line"/>
      <point x="820" y="441"/>
      <point x="715" y="460"/>
      <point x="640" y="549"/>
      <point x="640" y="608" type="qcurve" smooth="yes"/>
      <point x="640" y="1184" type="line" smooth="yes"/>
      <point x="640" y="1241"/>
      <point x="674" y="1284" type="qcurve"/>
    </contour>
    <contour>
      <point x="769" y="1189" type="line"/>
      <point x="768" y="1188"/>
      <point x="768" y="1184" type="qcurve" smooth="yes"/>
      <point x="768" y="608" type="line" smooth="yes"/>
      <point x="768" y="590"/>
      <point x="800" y="571"/>
      <point x="816" y="580" type="qcurve" smooth="yes"/>
      <point x="1179" y="779" type="line"/>
    </contour>
    <contour>
      <point x="528" y="1792" type="line"/>
      <point x="1536" y="1792" type="line" smooth="yes"/>
      <point x="1695" y="1792"/>
      <point x="1920" y="1567"/>
      <point x="1920" y="1408" type="qcurve" smooth="yes"/>
      <point x="1920" y="400" type="line"/>
      <point x="1792" y="528" type="line"/>
      <point x="1792" y="1408" type="line" smooth="yes"/>
      <point x="1792" y="1514"/>
      <point x="1642" y="1664"/>
      <point x="1536" y="1664" type="qcurve" smooth="yes"/>
      <point x="656" y="1664" type="line"/>
    </contour>
    <contour>
      <point x="1138" y="1182" type="line"/>
      <point x="1402" y="1037" type="line" smooth="yes"/>
      <point x="1455" y="1008"/>
      <point x="1495" y="897"/>
      <point x="1476" y="843" type="qcurve"/>
    </contour>
    <contour>
      <point x="384" y="2011"/>
      <point x="421" y="2048"/>
      <point x="448" y="2048" type="qcurve" smooth="yes"/>
      <point x="1600" y="2048" type="line" smooth="yes"/>
      <point x="1627" y="2048"/>
      <point x="1664" y="2011"/>
      <point x="1664" y="1957"/>
      <point x="1627" y="1920"/>
      <point x="1600" y="1920" type="qcurve" smooth="yes"/>
      <point x="448" y="1920" type="line" smooth="yes"/>
      <point x="421" y="1920"/>
      <point x="384" y="1957"/>
    </contour>
  </outline>
</glyph>
<glyph name="uF00AA" format="2">
  <advance width="2048"/>
  <unicode hex="F00AA"/>
  <outline>
    <contour>
      <point x="128" y="888" type="line"/>
      <point x="185" y="845"/>
      <point x="256" y="810" type="qcurve"/>
      <point x="256" y="384" type="line" smooth="yes"/>
      <point x="256" y="278"/>
      <point x="406" y="128"/>
      <point x="512" y="128" type="qcurve" smooth="yes"/>
      <point x="1536" y="128" type="line" smooth="yes"/>
      <point x="1642" y="128"/>
      <point x="1792" y="278"/>
      <point x="1792" y="384" type="qcurve" smooth="yes"/>
      <point x="1792" y="1408" type="line" smooth="yes"/>
      <point x="1792" y="1514"/>
      <point x="1642" y="1664"/>
      <point x="1536" y="1664" type="qcurve" smooth="yes"/>
      <point x="1287" y="1664" type="line"/>
      <point x="1269" y="1729"/>
      <point x="1239" y="1792" type="qcurve"/>
      <point x="1536" y="1792" type="line" smooth="yes"/>
      <point x="1695" y="1792"/>
      <point x="1920" y="1567"/>
      <point x="1920" y="1408" type="qcurve" smooth="yes"/>
      <point x="1920" y="384" type="line" smooth="yes"/>
      <point x="1920" y="225"/>
      <point x="1695" y="0"/>
      <point x="1536" y="0" type="qcurve" smooth="yes"/>
      <point x="512" y="0" type="line" smooth="yes"/>
      <point x="353" y="0"/>
      <point x="128" y="225"/>
      <point x="128" y="384" type="qcurve" smooth="yes"/>
    </contour>
    <contour>
      <point x="1034" y="2048" type="qcurve"/>
      <point x="1600" y="2048" type="line" smooth="yes"/>
      <point x="1627" y="2048"/>
      <point x="1664" y="2011"/>
      <point x="1664" y="1957"/>
      <point x="1627" y="1920"/>
      <point x="1600" y="1920" type="qcurve" smooth="yes"/>
      <point x="1160" y="1920" type="line"/>
      <point x="1105" y="1991"/>
    </contour>
    <contour>
      <point x="640" y="739" type="line"/>
      <point x="708" y="745"/>
      <point x="768" y="761" type="qcurve"/>
      <point x="768" y="608" type="line" smooth="yes"/>
      <point x="768" y="590"/>
      <point x="800" y="571"/>
      <point x="816" y="580" type="qcurve" smooth="yes"/>
      <point x="1342" y="868" type="line" smooth="yes"/>
      <point x="1359" y="877"/>
      <point x="1359" y="915"/>
      <point x="1342" y="924" type="qcurve" smooth="yes"/>
      <point x="1160" y="1024" type="line"/>
      <point x="1199" y="1075"/>
      <point x="1229" y="1132" type="qcurve"/>
      <point x="1402" y="1037" type="line" smooth="yes"/>
      <point x="1456" y="1008"/>
      <point x="1496" y="896"/>
      <point x="1456" y="784"/>
      <point x="1402" y="755" type="qcurve" smooth="yes"/>
      <point x="876" y="467" type="line"/>
      <point x="820" y="441"/>
      <point x="715" y="460"/>
      <point x="640" y="549"/>
      <point x="640" y="608" type="qcurve" smooth="yes"/>
    </contour>
    <contour>
      <point x="0" y="1628"/>
      <point x="154" y="1894"/>
      <point x="420" y="2048"/>
      <point x="732" y="2048"/>
      <point x="998" y="1894"/>
      <point x="1152" y="1628"/>
      <point x="1152" y="1316"/>
      <point x="998" y="1050"/>
      <point x="732" y="896"/>
      <point x="420" y="896"/>
      <point x="154" y="1050"/>
      <point x="0" y="1316"/>
    </contour>
    <contour>
      <point x="256" y="1445"/>
      <point x="293" y="1408"/>
      <point x="320" y="1408" type="qcurve" smooth="yes"/>
      <point x="512" y="1408" type="line"/>
      <point x="512" y="1216" type="line" smooth="yes"/>
      <point x="512" y="1189"/>
      <point x="549" y="1152"/>
      <point x="603" y="1152"/>
      <point x="640" y="1189"/>
      <point x="640" y="1216" type="qcurve" smooth="yes"/>
      <point x="640" y="1408" type="line"/>
      <point x="832" y="1408" type="line" smooth="yes"/>
      <point x="859" y="1408"/>
      <point x="896" y="1445"/>
      <point x="896" y="1499"/>
      <point x="859" y="1536"/>
      <point x="832" y="1536" type="qcurve" smooth="yes"/>
      <point x="640" y="1536" type="line"/>
      <point x="640" y="1728" type="line" smooth="yes"/>
      <point x="640" y="1755"/>
      <point x="603" y="1792"/>
      <point x="549" y="1792"/>
      <point x="512" y="1755"/>
      <point x="512" y="1728" type="qcurve" smooth="yes"/>
      <point x="512" y="1536" type="line"/>
      <point x="320" y="1536" type="line" smooth="yes"/>
      <point x="293" y="1536"/>
      <point x="256" y="1499"/>
    </contour>
  </outline>
</glyph>
<glyph name="uF00B8" format="2">
  <advance width="2048"/>
  <unicode hex="F00B8"/>
  <outline>
    <contour>
      <point x="702" y="1920" type="line" smooth="yes"/>
      <point x="777" y="1920"/>
      <point x="911" y="1853"/>
      <point x="956" y="1794" type="qcurve" smooth="yes"/>
      <point x="1055" y="1664" type="line"/>
      <point x="1728" y="1664" type="line" smooth="yes"/>
      <point x="1861" y="1664"/>
      <point x="2048" y="1477"/>
      <point x="2048" y="1344" type="qcurve" smooth="yes"/>
      <point x="2048" y="448" type="line" smooth="yes"/>
      <point x="2048" y="315"/>
      <point x="1861" y="128"/>
      <point x="1728" y="128" type="qcurve" smooth="yes"/>
      <point x="1273" y="128" type="line"/>
      <point x="1280" y="162"/>
      <point x="1280" y="192" type="qcurve" smooth="yes"/>
      <point x="1280" y="256" type="line"/>
      <point x="1728" y="256" type="line" smooth="yes"/>
      <point x="1808" y="256"/>
      <point x="1920" y="368"/>
      <point x="1920" y="448" type="qcurve" smooth="yes"/>
      <point x="1920" y="1344" type="line" smooth="yes"/>
      <point x="1920" y="1424"/>
      <point x="1808" y="1536"/>
      <point x="1728" y="1536" type="qcurve" smooth="yes"/>
      <point x="1043" y="1536" type="line"/>
      <point x="927" y="1460" type="line" smooth="yes"/>
      <point x="847" y="1408"/>
      <point x="752" y="1408" type="qcurve" smooth="yes"/>
      <point x="128" y="1408" type="line"/>
      <point x="128" y="1306" type="line"/>
      <point x="59" y="1293"/>
      <point x="0" y="1255" type="qcurve"/>
      <point x="0" y="1600" type="line" smooth="yes"/>
      <point x="0" y="1733"/>
      <point x="187" y="1920"/>
      <point x="320" y="1920" type="qcurve" smooth="yes"/>
    </contour>
    <contour>
      <point x="702" y="1792" type="qcurve" smooth="yes"/>
      <point x="320" y="1792" type="line" smooth="yes"/>
      <point x="240" y="1792"/>
      <point x="128" y="1680"/>
      <point x="128" y="1600" type="qcurve" smooth="yes"/>
      <point x="128" y="1536" type="line"/>
      <point x="752" y="1536" type="line" smooth="yes"/>
      <point x="810" y="1536"/>
      <point x="857" y="1567" type="qcurve" smooth="yes"/>
      <point x="931" y="1616" type="line"/>
      <point x="854" y="1717" type="line" smooth="yes"/>
      <point x="797" y="1792"/>
    </contour>
    <contour>
      <point x="256" y="832" type="line" smooth="yes"/>
      <point x="256" y="859"/>
      <point x="293" y="896"/>
      <point x="347" y="896"/>
      <point x="384" y="859"/>
      <point x="384" y="832" type="qcurve" smooth="yes"/>
      <point x="384" y="704" type="line" smooth="yes"/>
      <point x="384" y="677"/>
      <point x="347" y="640"/>
      <point x="293" y="640"/>
      <point x="256" y="677"/>
      <point x="256" y="704" type="qcurve" smooth="yes"/>
    </contour>
    <contour>
      <point x="347" y="512"/>
      <point x="384" y="475"/>
      <point x="384" y="448" type="qcurve" smooth="yes"/>
      <point x="384" y="320" type="line" smooth="yes"/>
      <point x="384" y="293"/>
      <point x="347" y="256"/>
      <point x="293" y="256"/>
      <point x="256" y="293"/>
      <point x="256" y="320" type="qcurve" smooth="yes"/>
      <point x="256" y="448" type="line" smooth="yes"/>
      <point x="256" y="475"/>
      <point x="293" y="512"/>
    </contour>
    <contour>
      <point x="859" y="896"/>
      <point x="896" y="859"/>
      <point x="896" y="832" type="qcurve" smooth="yes"/>
      <point x="896" y="704" type="line" smooth="yes"/>
      <point x="896" y="677"/>
      <point x="859" y="640"/>
      <point x="805" y="640"/>
      <point x="768" y="677"/>
      <point x="768" y="704" type="qcurve" smooth="yes"/>
      <point x="768" y="832" type="line" smooth="yes"/>
      <point x="768" y="859"/>
      <point x="805" y="896"/>
    </contour>
    <contour>
      <point x="859" y="512"/>
      <point x="896" y="475"/>
      <point x="896" y="448" type="qcurve" smooth="yes"/>
      <point x="896" y="320" type="line" smooth="yes"/>
      <point x="896" y="293"/>
      <point x="859" y="256"/>
      <point x="805" y="256"/>
      <point x="768" y="293"/>
      <point x="768" y="320" type="qcurve" smooth="yes"/>
      <point x="768" y="448" type="line" smooth="yes"/>
      <point x="768" y="475"/>
      <point x="805" y="512"/>
    </contour>
    <contour>
      <point x="192" y="1152" type="qcurve" smooth="yes"/>
      <point x="960" y="1152" type="line" smooth="yes"/>
      <point x="1040" y="1152"/>
      <point x="1152" y="1040"/>
      <point x="1152" y="960" type="qcurve" smooth="yes"/>
      <point x="1152" y="192" type="line" smooth="yes"/>
      <point x="1152" y="112"/>
      <point x="1040" y="0"/>
      <point x="960" y="0" type="qcurve" smooth="yes"/>
      <point x="192" y="0" type="line" smooth="yes"/>
      <point x="112" y="0"/>
      <point x="0" y="112"/>
      <point x="0" y="192" type="qcurve" smooth="yes"/>
      <point x="0" y="960" type="line" smooth="yes"/>
      <point x="0" y="1040"/>
      <point x="112" y="1152"/>
    </contour>
    <contour>
      <point x="128" y="960" type="qcurve" smooth="yes"/>
      <point x="128" y="192" type="line" smooth="yes"/>
      <point x="128" y="165"/>
      <point x="165" y="128"/>
      <point x="192" y="128" type="qcurve" smooth="yes"/>
      <point x="960" y="128" type="line" smooth="yes"/>
      <point x="987" y="128"/>
      <point x="1024" y="165"/>
      <point x="1024" y="192" type="qcurve" smooth="yes"/>
      <point x="1024" y="960" type="line" smooth="yes"/>
      <point x="1024" y="987"/>
      <point x="987" y="1024"/>
      <point x="960" y="1024" type="qcurve" smooth="yes"/>
      <point x="192" y="1024" type="line" smooth="yes"/>
      <point x="165" y="1024"/>
      <point x="128" y="987"/>
    </contour>
  </outline>
</glyph>
<glyph name="uF00B9" format="2">
  <advance width="2048"/>
  <unicode hex="F00B9"/>
  <outline>
    <contour>
      <point x="0" y="1600" type="line" smooth="yes"/>
      <point x="0" y="1733"/>
      <point x="187" y="1920"/>
      <point x="320" y="1920" type="qcurve" smooth="yes"/>
      <point x="702" y="1920" type="line" smooth="yes"/>
      <point x="777" y="1920"/>
      <point x="911" y="1853"/>
      <point x="956" y="1794" type="qcurve" smooth="yes"/>
      <point x="1055" y="1664" type="line"/>
      <point x="1728" y="1664" type="line" smooth="yes"/>
      <point x="1861" y="1664"/>
      <point x="2048" y="1477"/>
      <point x="2048" y="1344" type="qcurve" smooth="yes"/>
      <point x="2048" y="1280" type="line"/>
      <point x="1986" y="1305"/>
      <point x="1920" y="1294" type="qcurve"/>
      <point x="1920" y="1344" type="line" smooth="yes"/>
      <point x="1920" y="1424"/>
      <point x="1808" y="1536"/>
      <point x="1728" y="1536" type="qcurve" smooth="yes"/>
      <point x="1043" y="1536" type="line"/>
      <point x="927" y="1460" type="line" smooth="yes"/>
      <point x="847" y="1408"/>
      <point x="752" y="1408" type="qcurve" smooth="yes"/>
      <point x="128" y="1408" type="line"/>
      <point x="128" y="448" type="line" smooth="yes"/>
      <point x="128" y="368"/>
      <point x="240" y="256"/>
      <point x="320" y="256" type="qcurve" smooth="yes"/>
      <point x="896" y="256" type="line"/>
      <point x="890" y="226"/>
      <point x="890" y="158"/>
      <point x="896" y="128" type="qcurve"/>
      <point x="320" y="128" type="line" smooth="yes"/>
      <point x="187" y="128"/>
      <point x="0" y="315"/>
      <point x="0" y="448" type="qcurve" smooth="yes"/>
    </contour>
    <contour>
      <point x="931" y="1616" type="line"/>
      <point x="854" y="1717" type="line" smooth="yes"/>
      <point x="797" y="1792"/>
      <point x="702" y="1792" type="qcurve" smooth="yes"/>
      <point x="320" y="1792" type="line" smooth="yes"/>
      <point x="240" y="1792"/>
      <point x="128" y="1680"/>
      <point x="128" y="1600" type="qcurve" smooth="yes"/>
      <point x="128" y="1536" type="line"/>
      <point x="752" y="1536" type="line" smooth="yes"/>
      <point x="810" y="1536"/>
      <point x="857" y="1567" type="qcurve" smooth="yes"/>
    </contour>
    <contour>
      <point x="1941" y="1143" type="line" smooth="yes"/>
      <point x="1983" y="1151"/>
      <point x="2048" y="1097"/>
      <point x="2048" y="1055" type="qcurve" smooth="yes"/>
      <point x="2048" y="320" type="line" smooth="yes"/>
      <point x="2048" y="240"/>
      <point x="1936" y="128"/>
      <point x="1776" y="128"/>
      <point x="1664" y="240"/>
      <point x="1664" y="400"/>
      <point x="1776" y="512"/>
      <point x="1856" y="512" type="qcurve" smooth="yes"/>
      <point x="1889" y="512"/>
      <point x="1920" y="501" type="qcurve"/>
      <point x="1920" y="819" type="line"/>
      <point x="1408" y="716" type="line"/>
      <point x="1408" y="192" type="line" smooth="yes"/>
      <point x="1408" y="112"/>
      <point x="1296" y="0"/>
      <point x="1136" y="0"/>
      <point x="1024" y="112"/>
      <point x="1024" y="272"/>
      <point x="1136" y="384"/>
      <point x="1216" y="384" type="qcurve" smooth="yes"/>
      <point x="1249" y="384"/>
      <point x="1280" y="373" type="qcurve"/>
      <point x="1280" y="938" type="line" smooth="yes"/>
      <point x="1280" y="970"/>
      <point x="1321" y="1019"/>
      <point x="1352" y="1025" type="qcurve" smooth="yes"/>
    </contour>
  </outline>
</glyph>
<glyph name="uF00BA" format="2">
  <advance width="2048"/>
  <unicode hex="F00BA"/>
  <outline>
    <contour>
      <point x="320" y="1920" type="qcurve" smooth="yes"/>
      <point x="702" y="1920" type="line" smooth="yes"/>
      <point x="777" y="1920"/>
      <point x="911" y="1853"/>
      <point x="956" y="1794" type="qcurve" smooth="yes"/>
      <point x="1055" y="1664" type="line"/>
      <point x="1728" y="1664" type="line" smooth="yes"/>
      <point x="1861" y="1664"/>
      <point x="2048" y="1477"/>
      <point x="2048" y="1344" type="qcurve" smooth="yes"/>
      <point x="2048" y="448" type="line" smooth="yes"/>
      <point x="2048" y="315"/>
      <point x="1861" y="128"/>
      <point x="1728" y="128" type="qcurve" smooth="yes"/>
      <point x="1152" y="128" type="line"/>
      <point x="1187" y="186"/>
      <point x="1199" y="256" type="qcurve"/>
      <point x="1728" y="256" type="line" smooth="yes"/>
      <point x="1808" y="256"/>
      <point x="1920" y="368"/>
      <point x="1920" y="448" type="qcurve" smooth="yes"/>
      <point x="1920" y="1344" type="line" smooth="yes"/>
      <point x="1920" y="1424"/>
      <point x="1808" y="1536"/>
      <point x="1728" y="1536" type="qcurve" smooth="yes"/>
      <point x="1043" y="1536" type="line"/>
      <point x="927" y="1460" type="line" smooth="yes"/>
      <point x="847" y="1408"/>
      <point x="752" y="1408" type="qcurve" smooth="yes"/>
      <point x="128" y="1408" type="line"/>
      <point x="128" y="560" type="line"/>
      <point x="60" y="548"/>
      <point x="0" y="512" type="qcurve"/>
      <point x="0" y="1600" type="line" smooth="yes"/>
      <point x="0" y="1733"/>
      <point x="187" y="1920"/>
    </contour>
    <contour>
      <point x="854" y="1717" type="line" smooth="yes"/>
      <point x="797" y="1792"/>
      <point x="702" y="1792" type="qcurve" smooth="yes"/>
      <point x="320" y="1792" type="line" smooth="yes"/>
      <point x="240" y="1792"/>
      <point x="128" y="1680"/>
      <point x="128" y="1600" type="qcurve" smooth="yes"/>
      <point x="128" y="1536" type="line"/>
      <point x="752" y="1536" type="line" smooth="yes"/>
      <point x="810" y="1536"/>
      <point x="857" y="1567" type="qcurve" smooth="yes"/>
      <point x="931" y="1616" type="line"/>
    </contour>
    <contour>
      <point x="917" y="1143" type="line" smooth="yes"/>
      <point x="959" y="1151"/>
      <point x="1024" y="1097"/>
      <point x="1024" y="1055" type="qcurve" smooth="yes"/>
      <point x="1024" y="320" type="line" smooth="yes"/>
      <point x="1024" y="240"/>
      <point x="912" y="128"/>
      <point x="752" y="128"/>
      <point x="640" y="240"/>
      <point x="640" y="400"/>
      <point x="752" y="512"/>
      <point x="832" y="512" type="qcurve" smooth="yes"/>
      <point x="865" y="512"/>
      <point x="896" y="501" type="qcurve"/>
      <point x="896" y="819" type="line"/>
      <point x="384" y="716" type="line"/>
      <point x="384" y="192" type="line" smooth="yes"/>
      <point x="384" y="112"/>
      <point x="272" y="0"/>
      <point x="112" y="0"/>
      <point x="0" y="112"/>
      <point x="0" y="272"/>
      <point x="112" y="384"/>
      <point x="192" y="384" type="qcurve" smooth="yes"/>
      <point x="225" y="384"/>
      <point x="256" y="373" type="qcurve"/>
      <point x="256" y="938" type="line" smooth="yes"/>
      <point x="256" y="970"/>
      <point x="297" y="1019"/>
      <point x="328" y="1025" type="qcurve" smooth="yes"/>
    </contour>
  </outline>
</glyph>
<glyph name="uF00C2" format="2">
  <advance width="2048"/>
  <unicode hex="F00C2"/>
  <outline>
    <contour>
      <point x="0" y="1930" type="line" smooth="yes"/>
      <point x="0" y="1971"/>
      <point x="57" y="2026"/>
      <point x="96" y="2026" type="qcurve" smooth="yes"/>
      <point x="122" y="2026"/>
      <point x="143" y="2014" type="qcurve" smooth="yes"/>
      <point x="620" y="1748" type="line" smooth="yes"/>
      <point x="669" y="1721"/>
      <point x="669" y="1607"/>
      <point x="620" y="1580" type="qcurve" smooth="yes"/>
      <point x="143" y="1314" type="line" smooth="yes"/>
      <point x="122" y="1302"/>
      <point x="96" y="1302" type="qcurve" smooth="yes"/>
      <point x="57" y="1302"/>
      <point x="0" y="1357"/>
      <point x="0" y="1398" type="qcurve" smooth="yes"/>
    </contour>
    <contour>
      <point x="896" y="1627"/>
      <point x="933" y="1664"/>
      <point x="960" y="1664" type="qcurve" smooth="yes"/>
      <point x="1984" y="1664" type="line" smooth="yes"/>
      <point x="2011" y="1664"/>
      <point x="2048" y="1627"/>
      <point x="2048" y="1573"/>
      <point x="2011" y="1536"/>
      <point x="1984" y="1536" type="qcurve" smooth="yes"/>
      <point x="960" y="1536" type="line" smooth="yes"/>
      <point x="933" y="1536"/>
      <point x="896" y="1573"/>
    </contour>
    <contour>
      <point x="0" y="1115"/>
      <point x="37" y="1152"/>
      <point x="64" y="1152" type="qcurve" smooth="yes"/>
      <point x="1014" y="1152" type="line"/>
      <point x="943" y="1095"/>
      <point x="888" y="1024" type="qcurve"/>
      <point x="64" y="1024" type="line" smooth="yes"/>
      <point x="37" y="1024"/>
      <point x="0" y="1061"/>
    </contour>
    <contour>
      <point x="0" y="603"/>
      <point x="37" y="640"/>
      <point x="64" y="640" type="qcurve" smooth="yes"/>
      <point x="739" y="640" type="line"/>
      <point x="736" y="605"/>
      <point x="736" y="547"/>
      <point x="739" y="512" type="qcurve"/>
      <point x="64" y="512" type="line" smooth="yes"/>
      <point x="37" y="512"/>
      <point x="0" y="549"/>
    </contour>
    <contour>
      <point x="896" y="732"/>
      <point x="1050" y="998"/>
      <point x="1316" y="1152"/>
      <point x="1628" y="1152"/>
      <point x="1894" y="998"/>
      <point x="2048" y="732"/>
      <point x="2048" y="420"/>
      <point x="1894" y="154"/>
      <point x="1628" y="0"/>
      <point x="1316" y="0"/>
      <point x="1050" y="154"/>
      <point x="896" y="420"/>
    </contour>
    <contour>
      <point x="1152" y="549"/>
      <point x="1189" y="512"/>
      <point x="1216" y="512" type="qcurve" smooth="yes"/>
      <point x="1408" y="512" type="line"/>
      <point x="1408" y="320" type="line" smooth="yes"/>
      <point x="1408" y="293"/>
      <point x="1445" y="256"/>
      <point x="1499" y="256"/>
      <point x="1536" y="293"/>
      <point x="1536" y="320" type="qcurve" smooth="yes"/>
      <point x="1536" y="512" type="line"/>
      <point x="1728" y="512" type="line" smooth="yes"/>
      <point x="1755" y="512"/>
      <point x="1792" y="549"/>
      <point x="1792" y="603"/>
      <point x="1755" y="640"/>
      <point x="1728" y="640" type="qcurve" smooth="yes"/>
      <point x="1536" y="640" type="line"/>
      <point x="1536" y="832" type="line" smooth="yes"/>
      <point x="1536" y="859"/>
      <point x="1499" y="896"/>
      <point x="1445" y="896"/>
      <point x="1408" y="859"/>
      <point x="1408" y="832" type="qcurve" smooth="yes"/>
      <point x="1408" y="640" type="line"/>
      <point x="1216" y="640" type="line" smooth="yes"/>
      <point x="1189" y="640"/>
      <point x="1152" y="603"/>
    </contour>
  </outline>
</glyph>
<glyph name="uF00C3" format="2">
  <advance width="2048"/>
  <unicode hex="F00C3"/>
  <outline>
    <contour>
      <point x="0" y="1627"/>
      <point x="37" y="1664"/>
      <point x="64" y="1664" type="qcurve" smooth="yes"/>
      <point x="1088" y="1664" type="line" smooth="yes"/>
      <point x="1115" y="1664"/>
      <point x="1152" y="1627"/>
      <point x="1152" y="1573"/>
      <point x="1115" y="1536"/>
      <point x="1088" y="1536" type="qcurve" smooth="yes"/>
      <point x="64" y="1536" type="line" smooth="yes"/>
      <point x="37" y="1536"/>
      <point x="0" y="1573"/>
    </contour>
    <contour>
      <point x="1280" y="1930" type="line" smooth="yes"/>
      <point x="1280" y="1971"/>
      <point x="1337" y="2026"/>
      <point x="1376" y="2026" type="qcurve" smooth="yes"/>
      <point x="1402" y="2026"/>
      <point x="1423" y="2014" type="qcurve" smooth="yes"/>
      <point x="1900" y="1748" type="line" smooth="yes"/>
      <point x="1949" y="1721"/>
      <point x="1949" y="1607"/>
      <point x="1900" y="1580" type="qcurve" smooth="yes"/>
      <point x="1423" y="1314" type="line" smooth="yes"/>
      <point x="1402" y="1302"/>
      <point x="1376" y="1302" type="qcurve" smooth="yes"/>
      <point x="1337" y="1302"/>
      <point x="1280" y="1357"/>
      <point x="1280" y="1398" type="qcurve" smooth="yes"/>
    </contour>
    <contour>
      <point x="1034" y="1152" type="qcurve"/>
      <point x="1984" y="1152" type="line" smooth="yes"/>
      <point x="2011" y="1152"/>
      <point x="2048" y="1115"/>
      <point x="2048" y="1061"/>
      <point x="2011" y="1024"/>
      <point x="1984" y="1024" type="qcurve" smooth="yes"/>
      <point x="1160" y="1024" type="line"/>
      <point x="1105" y="1095"/>
    </contour>
    <contour>
      <point x="1984" y="640" type="line" smooth="yes"/>
      <point x="2011" y="640"/>
      <point x="2048" y="603"/>
      <point x="2048" y="549"/>
      <point x="2011" y="512"/>
      <point x="1984" y="512" type="qcurve" smooth="yes"/>
      <point x="1309" y="512" type="line"/>
      <point x="1312" y="547"/>
      <point x="1312" y="605"/>
      <point x="1309" y="640" type="qcurve"/>
    </contour>
    <contour>
      <point x="256" y="549"/>
      <point x="293" y="512"/>
      <point x="320" y="512" type="qcurve" smooth="yes"/>
      <point x="512" y="512" type="line"/>
      <point x="512" y="320" type="line" smooth="yes"/>
      <point x="512" y="293"/>
      <point x="549" y="256"/>
      <point x="603" y="256"/>
      <point x="640" y="293"/>
      <point x="640" y="320" type="qcurve" smooth="yes"/>
      <point x="640" y="512" type="line"/>
      <point x="832" y="512" type="line" smooth="yes"/>
      <point x="859" y="512"/>
      <point x="896" y="549"/>
      <point x="896" y="603"/>
      <point x="859" y="640"/>
      <point x="832" y="640" type="qcurve" smooth="yes"/>
      <point x="640" y="640" type="line"/>
      <point x="640" y="832" type="line" smooth="yes"/>
      <point x="640" y="859"/>
      <point x="603" y="896"/>
      <point x="549" y="896"/>
      <point x="512" y="859"/>
      <point x="512" y="832" type="qcurve" smooth="yes"/>
      <point x="512" y="640" type="line"/>
      <point x="320" y="640" type="line" smooth="yes"/>
      <point x="293" y="640"/>
      <point x="256" y="603"/>
    </contour>
    <contour>
      <point x="0" y="732"/>
      <point x="154" y="998"/>
      <point x="420" y="1152"/>
      <point x="732" y="1152"/>
      <point x="998" y="998"/>
      <point x="1152" y="732"/>
      <point x="1152" y="420"/>
      <point x="998" y="154"/>
      <point x="732" y="0"/>
      <point x="420" y="0"/>
      <point x="154" y="154"/>
      <point x="0" y="420"/>
    </contour>
  </outline>
</glyph>
<glyph name="uF00F0" format="2">
  <advance width="2048"/>
  <unicode hex="F00F0"/>
  <outline>
    <contour>
      <point x="821" y="1152"/>
      <point x="896" y="1077"/>
      <point x="896" y="971"/>
      <point x="821" y="896"/>
      <point x="715" y="896"/>
      <point x="640" y="971"/>
      <point x="640" y="1077"/>
      <point x="715" y="1152"/>
    </contour>
    <contour>
      <point x="1024" y="1077"/>
      <point x="1099" y="1152"/>
      <point x="1205" y="1152"/>
      <point x="1280" y="1077"/>
      <point x="1280" y="971"/>
      <point x="1205" y="896"/>
      <point x="1099" y="896"/>
      <point x="1024" y="971"/>
    </contour>
    <contour>
      <point x="1589" y="1152"/>
      <point x="1664" y="1077"/>
      <point x="1664" y="971"/>
      <point x="1589" y="896"/>
      <point x="1483" y="896"/>
      <point x="1408" y="971"/>
      <point x="1408" y="1077"/>
      <point x="1483" y="1152"/>
    </contour>
    <contour>
      <point x="640" y="693"/>
      <point x="715" y="768"/>
      <point x="821" y="768"/>
      <point x="896" y="693"/>
      <point x="896" y="587"/>
      <point x="821" y="512"/>
      <point x="715" y="512"/>
      <point x="640" y="587"/>
    </contour>
    <contour>
      <point x="1205" y="768"/>
      <point x="1280" y="693"/>
      <point x="1280" y="587"/>
      <point x="1205" y="512"/>
      <point x="1099" y="512"/>
      <point x="1024" y="587"/>
      <point x="1024" y="693"/>
      <point x="1099" y="768"/>
    </contour>
    <contour>
      <point x="960" y="1536" type="line" smooth="yes"/>
      <point x="987" y="1536"/>
      <point x="1024" y="1499"/>
      <point x="1024" y="1445"/>
      <point x="987" y="1408"/>
      <point x="960" y="1408" type="qcurve" smooth="yes"/>
      <point x="704" y="1408" type="line" smooth="yes"/>
      <point x="677" y="1408"/>
      <point x="640" y="1445"/>
      <point x="640" y="1499"/>
      <point x="677" y="1536"/>
      <point x="704" y="1536" type="qcurve" smooth="yes"/>
    </contour>
    <contour>
      <point x="1472" y="1536" type="qcurve" smooth="yes"/>
      <point x="1600" y="1536" type="line" smooth="yes"/>
      <point x="1627" y="1536"/>
      <point x="1664" y="1499"/>
      <point x="1664" y="1445"/>
      <point x="1627" y="1408"/>
      <point x="1600" y="1408" type="qcurve" smooth="yes"/>
      <point x="1472" y="1408" type="line" smooth="yes"/>
      <point x="1445" y="1408"/>
      <point x="1408" y="1445"/>
      <point x="1408" y="1499"/>
      <point x="1445" y="1536"/>
    </contour>
    <contour>
      <point x="0" y="1408" type="line" smooth="yes"/>
      <point x="0" y="1567"/>
      <point x="225" y="1792"/>
      <point x="384" y="1792" type="qcurve" smooth="yes"/>
      <point x="1536" y="1792" type="line" smooth="yes"/>
      <point x="1695" y="1792"/>
      <point x="1920" y="1567"/>
      <point x="1920" y="1408" type="qcurve" smooth="yes"/>
      <point x="1920" y="640" type="line" smooth="yes"/>
      <point x="1920" y="481"/>
      <point x="1695" y="256"/>
      <point x="1536" y="256" type="qcurve" smooth="yes"/>
      <point x="384" y="256" type="line" smooth="yes"/>
      <point x="225" y="256"/>
      <point x="0" y="481"/>
      <point x="0" y="640" type="qcurve" smooth="yes"/>
    </contour>
    <contour>
      <point x="384" y="1664" type="line"/>
      <point x="278" y="1664"/>
      <point x="128" y="1514"/>
      <point x="128" y="1408" type="qcurve" smooth="yes"/>
      <point x="128" y="640" type="line" smooth="yes"/>
      <point x="128" y="534"/>
      <point x="278" y="384"/>
      <point x="384" y="384" type="qcurve"/>
    </contour>
    <contour>
      <point x="1536" y="1664" type="qcurve" smooth="yes"/>
      <point x="512" y="1664" type="line"/>
      <point x="512" y="384" type="line"/>
      <point x="1536" y="384" type="line" smooth="yes"/>
      <point x="1642" y="384"/>
      <point x="1792" y="534"/>
      <point x="1792" y="640" type="qcurve" smooth="yes"/>
      <point x="1792" y="1408" type="line" smooth="yes"/>
      <point x="1792" y="1514"/>
      <point x="1642" y="1664"/>
    </contour>
  </outline>
</glyph>
<glyph name="uF00F1" format="2">
  <advance width="2048"/>
  <unicode hex="F00F1"/>
  <outline>
    <contour>
      <point x="704" y="1536" type="qcurve" smooth="yes"/>
      <point x="960" y="1536" type="line" smooth="yes"/>
      <point x="987" y="1536"/>
      <point x="1024" y="1499"/>
      <point x="1024" y="1445"/>
      <point x="987" y="1408"/>
      <point x="960" y="1408" type="qcurve" smooth="yes"/>
      <point x="704" y="1408" type="line" smooth="yes"/>
      <point x="677" y="1408"/>
      <point x="640" y="1445"/>
      <point x="640" y="1499"/>
      <point x="677" y="1536"/>
    </contour>
    <contour>
      <point x="768" y="987"/>
      <point x="805" y="1024"/>
      <point x="859" y="1024"/>
      <point x="896" y="987"/>
      <point x="896" y="933"/>
      <point x="859" y="896"/>
      <point x="805" y="896"/>
      <point x="768" y="933"/>
    </contour>
    <contour>
      <point x="1152" y="1024" type="qcurve" smooth="yes"/>
      <point x="1408" y="1024" type="line" smooth="yes"/>
      <point x="1435" y="1024"/>
      <point x="1472" y="987"/>
      <point x="1472" y="933"/>
      <point x="1435" y="896"/>
      <point x="1408" y="896" type="qcurve" smooth="yes"/>
      <point x="1152" y="896" type="line" smooth="yes"/>
      <point x="1125" y="896"/>
      <point x="1088" y="933"/>
      <point x="1088" y="987"/>
      <point x="1125" y="1024"/>
    </contour>
    <contour>
      <point x="0" y="1408" type="line" smooth="yes"/>
      <point x="0" y="1567"/>
      <point x="225" y="1792"/>
      <point x="384" y="1792" type="qcurve" smooth="yes"/>
      <point x="1536" y="1792" type="line" smooth="yes"/>
      <point x="1695" y="1792"/>
      <point x="1920" y="1567"/>
      <point x="1920" y="1408" type="qcurve" smooth="yes"/>
      <point x="1920" y="640" type="line" smooth="yes"/>
      <point x="1920" y="481"/>
      <point x="1695" y="256"/>
      <point x="1536" y="256" type="qcurve" smooth="yes"/>
      <point x="384" y="256" type="line" smooth="yes"/>
      <point x="225" y="256"/>
      <point x="0" y="481"/>
      <point x="0" y="640" type="qcurve" smooth="yes"/>
    </contour>
    <contour>
      <point x="384" y="1664" type="line"/>
      <point x="278" y="1664"/>
      <point x="128" y="1514"/>
      <point x="128" y="1408" type="qcurve" smooth="yes"/>
      <point x="128" y="640" type="line" smooth="yes"/>
      <point x="128" y="534"/>
      <point x="278" y="384"/>
      <point x="384" y="384" type="qcurve"/>
    </contour>
    <contour>
      <point x="1536" y="1664" type="qcurve" smooth="yes"/>
      <point x="512" y="1664" type="line"/>
      <point x="512" y="384" type="line"/>
      <point x="1536" y="384" type="line" smooth="yes"/>
      <point x="1642" y="384"/>
      <point x="1792" y="534"/>
      <point x="1792" y="640" type="qcurve" smooth="yes"/>
      <point x="1792" y="1408" type="line" smooth="yes"/>
      <point x="1792" y="1514"/>
      <point x="1642" y="1664"/>
    </contour>
  </outline>
</glyph>
<glyph name="uF010D" format="2">
  <advance width="2048"/>
  <unicode hex="F010D"/>
  <outline>
    <contour>
      <point x="256" y="1792" type="qcurve" smooth="yes"/>
      <point x="1792" y="1792" type="line" smooth="yes"/>
      <point x="1898" y="1792"/>
      <point x="2048" y="1642"/>
      <point x="2048" y="1536" type="qcurve" smooth="yes"/>
      <point x="2048" y="1289" type="line"/>
      <point x="1987" y="1312"/>
      <point x="1920" y="1302" type="qcurve"/>
      <point x="1920" y="1536" type="line" smooth="yes"/>
      <point x="1920" y="1589"/>
      <point x="1845" y="1664"/>
      <point x="1792" y="1664" type="qcurve" smooth="yes"/>
      <point x="256" y="1664" type="line" smooth="yes"/>
      <point x="203" y="1664"/>
      <point x="128" y="1589"/>
      <point x="128" y="1536" type="qcurve" smooth="yes"/>
      <point x="128" y="512" type="line" smooth="yes"/>
      <point x="128" y="459"/>
      <point x="203" y="384"/>
      <point x="256" y="384" type="qcurve" smooth="yes"/>
      <point x="421" y="384" type="line"/>
      <point x="865" y="830" type="line" smooth="yes"/>
      <point x="931" y="896"/>
      <point x="1024" y="896" type="qcurve" smooth="yes"/>
      <point x="1094" y="896"/>
      <point x="1152" y="856" type="qcurve"/>
      <point x="1152" y="680" type="line"/>
      <point x="1092" y="740" type="line" smooth="yes"/>
      <point x="1064" y="768"/>
      <point x="984" y="768"/>
      <point x="956" y="740" type="qcurve" smooth="yes"/>
      <point x="602" y="384" type="line"/>
      <point x="896" y="384" type="line"/>
      <point x="860" y="324"/>
      <point x="848" y="256" type="qcurve"/>
      <point x="256" y="256" type="line" smooth="yes"/>
      <point x="150" y="256"/>
      <point x="0" y="406"/>
      <point x="0" y="512" type="qcurve" smooth="yes"/>
      <point x="0" y="1536" type="line" smooth="yes"/>
      <point x="0" y="1642"/>
      <point x="150" y="1792"/>
    </contour>
    <contour>
      <point x="1374" y="1193" type="qcurve"/>
      <point x="1282" y="1175"/>
      <point x="1248" y="1156" type="qcurve"/>
      <point x="1206" y="1167"/>
      <point x="1152" y="1236"/>
      <point x="1152" y="1280" type="qcurve" smooth="yes"/>
      <point x="1152" y="1333"/>
      <point x="1227" y="1408"/>
      <point x="1333" y="1408"/>
      <point x="1408" y="1333"/>
      <point x="1408" y="1280" type="qcurve" smooth="yes"/>
      <point x="1408" y="1230"/>
    </contour>
    <contour>
      <point x="347" y="1536"/>
      <point x="384" y="1499"/>
      <point x="384" y="1472" type="qcurve" smooth="yes"/>
      <point x="384" y="1344" type="line" smooth="yes"/>
      <point x="384" y="1317"/>
      <point x="347" y="1280"/>
      <point x="293" y="1280"/>
      <point x="256" y="1317"/>
      <point x="256" y="1344" type="qcurve" smooth="yes"/>
      <point x="256" y="1472" type="line" smooth="yes"/>
      <point x="256" y="1499"/>
      <point x="293" y="1536"/>
    </contour>
    <contour>
      <point x="1755" y="1536"/>
      <point x="1792" y="1499"/>
      <point x="1792" y="1472" type="qcurve" smooth="yes"/>
      <point x="1792" y="1344" type="line" smooth="yes"/>
      <point x="1792" y="1317"/>
      <point x="1755" y="1280"/>
      <point x="1701" y="1280"/>
      <point x="1664" y="1317"/>
      <point x="1664" y="1344" type="qcurve" smooth="yes"/>
      <point x="1664" y="1472" type="line" smooth="yes"/>
      <point x="1664" y="1499"/>
      <point x="1701" y="1536"/>
    </contour>
    <contour>
      <point x="347" y="1152"/>
      <point x="384" y="1115"/>
      <point x="384" y="1088" type="qcurve" smooth="yes"/>
      <point x="384" y="960" type="line" smooth="yes"/>
      <point x="384" y="933"/>
      <point x="347" y="896"/>
      <point x="293" y="896"/>
      <point x="256" y="933"/>
      <point x="256" y="960" type="qcurve" smooth="yes"/>
      <point x="256" y="1088" type="line" smooth="yes"/>
      <point x="256" y="1115"/>
      <point x="293" y="1152"/>
    </contour>
    <contour>
      <point x="347" y="768"/>
      <point x="384" y="731"/>
      <point x="384" y="704" type="qcurve" smooth="yes"/>
      <point x="384" y="576" type="line" smooth="yes"/>
      <point x="384" y="549"/>
      <point x="347" y="512"/>
      <point x="293" y="512"/>
      <point x="256" y="549"/>
      <point x="256" y="576" type="qcurve" smooth="yes"/>
      <point x="256" y="704" type="line" smooth="yes"/>
      <point x="256" y="731"/>
      <point x="293" y="768"/>
    </contour>
    <contour>
      <point x="1352" y="1025" type="qcurve" smooth="yes"/>
      <point x="1941" y="1143" type="line" smooth="yes"/>
      <point x="1983" y="1151"/>
      <point x="2048" y="1098"/>
      <point x="2048" y="1056" type="qcurve" smooth="yes"/>
      <point x="2048" y="320" type="line" smooth="yes"/>
      <point x="2048" y="240"/>
      <point x="1936" y="128"/>
      <point x="1776" y="128"/>
      <point x="1664" y="240"/>
      <point x="1664" y="400"/>
      <point x="1776" y="512"/>
      <point x="1856" y="512" type="qcurve" smooth="yes"/>
      <point x="1889" y="512"/>
      <point x="1920" y="501" type="qcurve"/>
      <point x="1920" y="819" type="line"/>
      <point x="1408" y="716" type="line"/>
      <point x="1408" y="192" type="line" smooth="yes"/>
      <point x="1408" y="112"/>
      <point x="1296" y="0"/>
      <point x="1136" y="0"/>
      <point x="1024" y="112"/>
      <point x="1024" y="272"/>
      <point x="1136" y="384"/>
      <point x="1216" y="384" type="qcurve" smooth="yes"/>
      <point x="1249" y="384"/>
      <point x="1280" y="373" type="qcurve"/>
      <point x="1280" y="938" type="line" smooth="yes"/>
      <point x="1280" y="970"/>
      <point x="1321" y="1019"/>
    </contour>
  </outline>
</glyph>
<glyph name="uF010E" format="2">
  <advance width="2048"/>
  <unicode hex="F010E"/>
  <outline>
    <contour>
      <point x="256" y="1792" type="qcurve" smooth="yes"/>
      <point x="1792" y="1792" type="line" smooth="yes"/>
      <point x="1898" y="1792"/>
      <point x="2048" y="1642"/>
      <point x="2048" y="1536" type="qcurve" smooth="yes"/>
      <point x="2048" y="512" type="line" smooth="yes"/>
      <point x="2048" y="406"/>
      <point x="1898" y="256"/>
      <point x="1792" y="256" type="qcurve" smooth="yes"/>
      <point x="1146" y="256" type="line"/>
      <point x="1152" y="286"/>
      <point x="1152" y="320" type="qcurve" smooth="yes"/>
      <point x="1152" y="384" type="line"/>
      <point x="1446" y="384" type="line"/>
      <point x="1152" y="680" type="line"/>
      <point x="1152" y="856" type="line"/>
      <point x="1169" y="844"/>
      <point x="1183" y="830" type="qcurve" smooth="yes"/>
      <point x="1627" y="384" type="line"/>
      <point x="1792" y="384" type="line" smooth="yes"/>
      <point x="1845" y="384"/>
      <point x="1920" y="459"/>
      <point x="1920" y="512" type="qcurve" smooth="yes"/>
      <point x="1920" y="1536" type="line" smooth="yes"/>
      <point x="1920" y="1589"/>
      <point x="1845" y="1664"/>
      <point x="1792" y="1664" type="qcurve" smooth="yes"/>
      <point x="256" y="1664" type="line" smooth="yes"/>
      <point x="203" y="1664"/>
      <point x="128" y="1589"/>
      <point x="128" y="1536" type="qcurve" smooth="yes"/>
      <point x="128" y="560" type="line"/>
      <point x="60" y="548"/>
      <point x="0" y="512" type="qcurve"/>
      <point x="0" y="1536" type="line" smooth="yes"/>
      <point x="0" y="1642"/>
      <point x="150" y="1792"/>
    </contour>
    <contour>
      <point x="347" y="1536"/>
      <point x="384" y="1499"/>
      <point x="384" y="1472" type="qcurve" smooth="yes"/>
      <point x="384" y="1344" type="line" smooth="yes"/>
      <point x="384" y="1317"/>
      <point x="347" y="1280"/>
      <point x="293" y="1280"/>
      <point x="256" y="1317"/>
      <point x="256" y="1344" type="qcurve" smooth="yes"/>
      <point x="256" y="1472" type="line" smooth="yes"/>
      <point x="256" y="1499"/>
      <point x="293" y="1536"/>
    </contour>
    <contour>
      <point x="1755" y="1536"/>
      <point x="1792" y="1499"/>
      <point x="1792" y="1472" type="qcurve" smooth="yes"/>
      <point x="1792" y="1344" type="line" smooth="yes"/>
      <point x="1792" y="1317"/>
      <point x="1755" y="1280"/>
      <point x="1701" y="1280"/>
      <point x="1664" y="1317"/>
      <point x="1664" y="1344" type="qcurve" smooth="yes"/>
      <point x="1664" y="1472" type="line" smooth="yes"/>
      <point x="1664" y="1499"/>
      <point x="1701" y="1536"/>
    </contour>
    <contour>
      <point x="1152" y="1333"/>
      <point x="1227" y="1408"/>
      <point x="1333" y="1408"/>
      <point x="1408" y="1333"/>
      <point x="1408" y="1227"/>
      <point x="1333" y="1152"/>
      <point x="1227" y="1152"/>
      <point x="1152" y="1227"/>
    </contour>
    <contour>
      <point x="1755" y="1152"/>
      <point x="1792" y="1115"/>
      <point x="1792" y="1088" type="qcurve" smooth="yes"/>
      <point x="1792" y="960" type="line" smooth="yes"/>
      <point x="1792" y="933"/>
      <point x="1755" y="896"/>
      <point x="1701" y="896"/>
      <point x="1664" y="933"/>
      <point x="1664" y="960" type="qcurve" smooth="yes"/>
      <point x="1664" y="1088" type="line" smooth="yes"/>
      <point x="1664" y="1115"/>
      <point x="1701" y="1152"/>
    </contour>
    <contour>
      <point x="1755" y="768"/>
      <point x="1792" y="731"/>
      <point x="1792" y="704" type="qcurve" smooth="yes"/>
      <point x="1792" y="576" type="line" smooth="yes"/>
      <point x="1792" y="549"/>
      <point x="1755" y="512"/>
      <point x="1701" y="512"/>
      <point x="1664" y="549"/>
      <point x="1664" y="576" type="qcurve" smooth="yes"/>
      <point x="1664" y="704" type="line" smooth="yes"/>
      <point x="1664" y="731"/>
      <point x="1701" y="768"/>
    </contour>
    <contour>
      <point x="328" y="1025" type="qcurve" smooth="yes"/>
      <point x="917" y="1143" type="line" smooth="yes"/>
      <point x="959" y="1151"/>
      <point x="1024" y="1098"/>
      <point x="1024" y="1056" type="qcurve" smooth="yes"/>
      <point x="1024" y="320" type="line" smooth="yes"/>
      <point x="1024" y="240"/>
      <point x="912" y="128"/>
      <point x="752" y="128"/>
      <point x="640" y="240"/>
      <point x="640" y="400"/>
      <point x="752" y="512"/>
      <point x="832" y="512" type="qcurve" smooth="yes"/>
      <point x="865" y="512"/>
      <point x="896" y="501" type="qcurve"/>
      <point x="896" y="819" type="line"/>
      <point x="384" y="716" type="line"/>
      <point x="384" y="192" type="line" smooth="yes"/>
      <point x="384" y="112"/>
      <point x="272" y="0"/>
      <point x="112" y="0"/>
      <point x="0" y="112"/>
      <point x="0" y="272"/>
      <point x="112" y="384"/>
      <point x="192" y="384" type="qcurve" smooth="yes"/>
      <point x="225" y="384"/>
      <point x="256" y="373" type="qcurve"/>
      <point x="256" y="938" type="line" smooth="yes"/>
      <point x="256" y="970"/>
      <point x="297" y="1019"/>
    </contour>
  </outline>
</glyph>
<glyph name="uF0127" format="2">
  <advance width="2048"/>
  <unicode hex="F0127"/>
  <outline>
    <contour>
      <point x="703" y="1773" type="qcurve" smooth="yes"/>
      <point x="959" y="2029" type="line" smooth="yes"/>
      <point x="978" y="2048"/>
      <point x="1030" y="2048"/>
      <point x="1068" y="2010"/>
      <point x="1068" y="1958"/>
      <point x="1049" y="1939" type="qcurve" smooth="yes"/>
      <point x="902" y="1792" type="line"/>
      <point x="1280" y="1792" type="line" smooth="yes"/>
      <point x="1489" y="1792"/>
      <point x="1842" y="1586"/>
      <point x="2048" y="1233"/>
      <point x="2048" y="1024" type="qcurve" smooth="yes"/>
      <point x="2048" y="850"/>
      <point x="1973" y="691" type="qcurve" smooth="yes"/>
      <point x="1948" y="638"/>
      <point x="1922" y="599" type="qcurve" smooth="yes"/>
      <point x="1908" y="579"/>
      <point x="1895" y="562" type="qcurve" smooth="yes"/>
      <point x="1879" y="542"/>
      <point x="1825" y="537"/>
      <point x="1785" y="571"/>
      <point x="1781" y="624"/>
      <point x="1797" y="644" type="qcurve" smooth="yes"/>
      <point x="1803" y="652"/>
      <point x="1814" y="668" type="qcurve" smooth="yes"/>
      <point x="1837" y="703"/>
      <point x="1857" y="745" type="qcurve" smooth="yes"/>
      <point x="1920" y="879"/>
      <point x="1920" y="1024" type="qcurve" smooth="yes"/>
      <point x="1920" y="1154"/>
      <point x="1819" y="1391"/>
      <point x="1647" y="1563"/>
      <point x="1410" y="1664"/>
      <point x="1280" y="1664" type="qcurve" smooth="yes"/>
      <point x="902" y="1664" type="line"/>
      <point x="1049" y="1517" type="line" smooth="yes"/>
      <point x="1068" y="1498"/>
      <point x="1068" y="1446"/>
      <point x="1030" y="1408"/>
      <point x="978" y="1408"/>
      <point x="959" y="1427" type="qcurve" smooth="yes"/>
      <point x="703" y="1683" type="line" smooth="yes"/>
      <point x="684" y="1702"/>
      <point x="684" y="1754"/>
    </contour>
    <contour>
      <point x="153" y="1486" type="qcurve" smooth="yes"/>
      <point x="169" y="1506"/>
      <point x="223" y="1511"/>
      <point x="263" y="1477"/>
      <point x="268" y="1424"/>
      <point x="251" y="1404" type="qcurve" smooth="yes"/>
      <point x="242" y="1392"/>
      <point x="234" y="1380" type="qcurve" smooth="yes"/>
      <point x="211" y="1345"/>
      <point x="191" y="1303" type="qcurve" smooth="yes"/>
      <point x="128" y="1169"/>
      <point x="128" y="1024" type="qcurve" smooth="yes"/>
      <point x="128" y="894"/>
      <point x="229" y="657"/>
      <point x="401" y="485"/>
      <point x="638" y="384"/>
      <point x="768" y="384" type="qcurve" smooth="yes"/>
      <point x="1446" y="384" type="line"/>
      <point x="1299" y="531" type="line" smooth="yes"/>
      <point x="1280" y="550"/>
      <point x="1280" y="602"/>
      <point x="1299" y="621" type="qcurve" smooth="yes"/>
      <point x="1309" y="631"/>
      <point x="1322" y="636" type="qcurve"/>
      <point x="19" y="1939" type="line" smooth="yes"/>
      <point x="0" y="1958"/>
      <point x="0" y="2010"/>
      <point x="38" y="2048"/>
      <point x="90" y="2048"/>
      <point x="109" y="2029" type="qcurve" smooth="yes"/>
      <point x="2029" y="109" type="line" smooth="yes"/>
      <point x="2048" y="90"/>
      <point x="2048" y="38"/>
      <point x="2010" y="0"/>
      <point x="1958" y="0"/>
      <point x="1939" y="19" type="qcurve" smooth="yes"/>
      <point x="1660" y="298" type="line"/>
      <point x="1655" y="285"/>
      <point x="1645" y="275" type="qcurve" smooth="yes"/>
      <point x="1389" y="19" type="line" smooth="yes"/>
      <point x="1370" y="0"/>
      <point x="1318" y="0"/>
      <point x="1280" y="38"/>
      <point x="1280" y="90"/>
      <point x="1299" y="109" type="qcurve" smooth="yes"/>
      <point x="1446" y="256" type="line"/>
      <point x="768" y="256" type="line" smooth="yes"/>
      <point x="559" y="256"/>
      <point x="206" y="462"/>
      <point x="0" y="815"/>
      <point x="0" y="1024" type="qcurve" smooth="yes"/>
      <point x="0" y="1198"/>
      <point x="75" y="1357" type="qcurve" smooth="yes"/>
      <point x="100" y="1410"/>
      <point x="126" y="1449" type="qcurve" smooth="yes"/>
      <point x="129" y="1454"/>
    </contour>
  </outline>
</glyph>
<glyph name="uF0131" format="2">
  <advance width="2048"/>
  <unicode hex="F0131"/>
  <outline>
    <contour>
      <point x="1344" y="1152" type="qcurve" smooth="yes"/>
      <point x="1472" y="1152" type="line" smooth="yes"/>
      <point x="1499" y="1152"/>
      <point x="1536" y="1115"/>
      <point x="1536" y="1061"/>
      <point x="1499" y="1024"/>
      <point x="1472" y="1024" type="qcurve" smooth="yes"/>
      <point x="1344" y="1024" type="line" smooth="yes"/>
      <point x="1317" y="1024"/>
      <point x="1280" y="1061"/>
      <point x="1280" y="1115"/>
      <point x="1317" y="1152"/>
    </contour>
    <contour>
      <point x="1755" y="1152"/>
      <point x="1792" y="1115"/>
      <point x="1792" y="1061"/>
      <point x="1755" y="1024"/>
      <point x="1701" y="1024"/>
      <point x="1664" y="1061"/>
      <point x="1664" y="1115"/>
      <point x="1701" y="1152"/>
    </contour>
    <contour>
      <point x="0" y="1408" type="line" smooth="yes"/>
      <point x="0" y="1567"/>
      <point x="225" y="1792"/>
      <point x="384" y="1792" type="qcurve" smooth="yes"/>
      <point x="1664" y="1792" type="line" smooth="yes"/>
      <point x="1823" y="1792"/>
      <point x="2048" y="1567"/>
      <point x="2048" y="1408" type="qcurve" smooth="yes"/>
      <point x="2048" y="640" type="line" smooth="yes"/>
      <point x="2048" y="481"/>
      <point x="1823" y="256"/>
      <point x="1664" y="256" type="qcurve" smooth="yes"/>
      <point x="384" y="256" type="line" smooth="yes"/>
      <point x="225" y="256"/>
      <point x="0" y="481"/>
      <point x="0" y="640" type="qcurve" smooth="yes"/>
    </contour>
    <contour>
      <point x="128" y="1408" type="qcurve" smooth="yes"/>
      <point x="128" y="640" type="line" smooth="yes"/>
      <point x="128" y="534"/>
      <point x="278" y="384"/>
      <point x="384" y="384" type="qcurve" smooth="yes"/>
      <point x="1024" y="384" type="line"/>
      <point x="1024" y="1152" type="line" smooth="yes"/>
      <point x="1024" y="1258"/>
      <point x="1174" y="1408"/>
      <point x="1280" y="1408" type="qcurve" smooth="yes"/>
      <point x="1920" y="1408" type="line"/>
      <point x="1920" y="1514"/>
      <point x="1770" y="1664"/>
      <point x="1664" y="1664" type="qcurve" smooth="yes"/>
      <point x="384" y="1664" type="line" smooth="yes"/>
      <point x="278" y="1664"/>
      <point x="128" y="1514"/>
    </contour>
    <contour>
      <point x="1280" y="1280" type="line" smooth="yes"/>
      <point x="1227" y="1280"/>
      <point x="1152" y="1205"/>
      <point x="1152" y="1152" type="qcurve" smooth="yes"/>
      <point x="1152" y="896" type="line"/>
      <point x="1920" y="896" type="line"/>
      <point x="1920" y="1280" type="line"/>
    </contour>
    <contour>
      <point x="1152" y="768" type="line"/>
      <point x="1152" y="384" type="line"/>
      <point x="1664" y="384" type="line" smooth="yes"/>
      <point x="1770" y="384"/>
      <point x="1920" y="534"/>
      <point x="1920" y="640" type="qcurve" smooth="yes"/>
      <point x="1920" y="768" type="line"/>
    </contour>
  </outline>
</glyph>
<glyph name=".notdef" format="2">
  <advance width="1322"/>
  <outline>
    <contour>
      <point x="1156" y="1398" type="line"/>
      <point x="1156" y="0" type="line"/>
      <point x="166" y="0" type="line"/>
      <point x="166" y="1398" type="line"/>
    </contour>
    <contour>
      <point x="1008" y="1250" type="line"/>
      <point x="314" y="1250" type="line"/>
      <point x="314" y="148" type="line"/>
      <point x="1008" y="148" type="line"/>
    </contour>
  </outline>
</glyph>
